<svg width="1110" height="304" viewBox="0 0 1110 304" fill="none" xmlns="http://www.w3.org/2000/svg">
<path d="M477.268 43V13.84H482.56V26.08H483.64L488.356 13.84H493.648L488.104 27.592L494.08 43H488.68L483.64 29.572H482.56V43H477.268ZM504.593 43.396C502.529 43.396 500.885 43.012 499.661 42.244C498.437 41.476 497.561 40.372 497.033 38.932C496.505 37.492 496.241 35.788 496.241 33.82V22.912C496.241 20.944 496.505 19.264 497.033 17.872C497.561 16.456 498.437 15.376 499.661 14.632C500.885 13.888 502.529 13.516 504.593 13.516C506.705 13.516 508.361 13.888 509.561 14.632C510.785 15.376 511.661 16.456 512.189 17.872C512.741 19.264 513.017 20.944 513.017 22.912V33.856C513.017 35.8 512.741 37.492 512.189 38.932C511.661 40.348 510.785 41.452 509.561 42.244C508.361 43.012 506.705 43.396 504.593 43.396ZM504.593 39.472C505.481 39.472 506.129 39.28 506.537 38.896C506.969 38.512 507.257 37.984 507.401 37.312C507.545 36.64 507.617 35.908 507.617 35.116V21.688C507.617 20.872 507.545 20.14 507.401 19.492C507.257 18.844 506.969 18.34 506.537 17.98C506.129 17.596 505.481 17.404 504.593 17.404C503.753 17.404 503.117 17.596 502.685 17.98C502.253 18.34 501.965 18.844 501.821 19.492C501.677 20.14 501.605 20.872 501.605 21.688V35.116C501.605 35.908 501.665 36.64 501.785 37.312C501.929 37.984 502.217 38.512 502.649 38.896C503.081 39.28 503.729 39.472 504.593 39.472ZM517.03 43V13.84H522.322V26.044H528.262V13.84H533.59V43H528.262V29.824H522.322V43H517.03ZM540.967 43V17.764H536.323V13.84H550.867V17.764H546.295V43H540.967ZM552.044 43L557.876 13.84H563.564L569.396 43H564.464L563.312 36.268H558.236L557.048 43H552.044ZM558.776 32.884H562.736L560.756 20.644L558.776 32.884ZM572.401 43V13.84H577.693V26.08H578.773L583.489 13.84H588.781L583.237 27.592L589.213 43H583.813L578.773 29.572H577.693V43H572.401ZM594.721 43V17.764H590.077V13.84H604.621V17.764H600.049V43H594.721ZM607.346 43V13.84H612.638V26.08H613.934C615.926 26.08 617.582 26.356 618.902 26.908C620.222 27.436 621.218 28.324 621.89 29.572C622.562 30.796 622.898 32.452 622.898 34.54C622.898 36.172 622.682 37.54 622.25 38.644C621.842 39.724 621.242 40.588 620.45 41.236C619.658 41.884 618.698 42.34 617.57 42.604C616.442 42.868 615.158 43 613.718 43H607.346ZM612.638 39.4H613.754C614.762 39.4 615.578 39.256 616.202 38.968C616.826 38.68 617.282 38.176 617.57 37.456C617.858 36.712 617.99 35.704 617.966 34.432C617.966 32.92 617.666 31.768 617.066 30.976C616.466 30.184 615.338 29.788 613.682 29.788H612.638V39.4ZM625.634 43V13.84H630.926V43H625.634Z" fill="black"/>
<path d="M92.9644 207L96.8524 187.56H100.644L104.532 207H101.244L100.476 202.512H97.0924L96.3004 207H92.9644ZM97.4524 200.256H100.092L98.7724 192.096L97.4524 200.256ZM105.383 210.864V204.48H106.079C106.399 204.304 106.703 204.072 106.991 203.784C107.295 203.48 107.567 203.08 107.807 202.584C108.047 202.088 108.263 201.456 108.455 200.688C108.663 199.904 108.839 198.952 108.983 197.832C109.143 196.712 109.263 195.384 109.343 193.848L109.775 187.56H118.367V204.48H120.407V210.864H117.935L117.719 207H108.143L107.903 210.864H105.383ZM109.391 204.48H115.007V190.104H112.559L112.343 194.4C112.279 195.936 112.175 197.24 112.031 198.312C111.887 199.368 111.719 200.248 111.527 200.952C111.335 201.64 111.119 202.2 110.879 202.632C110.655 203.064 110.415 203.416 110.159 203.688C109.903 203.96 109.647 204.224 109.391 204.48ZM122.355 207V187.56H128.067C129.235 187.56 130.179 187.776 130.899 188.208C131.635 188.64 132.171 189.272 132.507 190.104C132.859 190.92 133.035 191.912 133.035 193.08C133.035 194.344 132.819 195.368 132.387 196.152C131.955 196.92 131.347 197.48 130.563 197.832C129.795 198.184 128.883 198.36 127.827 198.36H125.907V207H122.355ZM125.907 195.864H127.251C127.891 195.864 128.387 195.776 128.739 195.6C129.107 195.408 129.355 195.112 129.483 194.712C129.627 194.296 129.699 193.744 129.699 193.056C129.699 192.352 129.643 191.784 129.531 191.352C129.435 190.904 129.211 190.576 128.859 190.368C128.523 190.16 127.987 190.056 127.251 190.056H125.907V195.864ZM135.011 207V187.56H143.171V190.056H138.563V195.648H142.187V198.12H138.563V204.552H143.219V207H135.011ZM150.509 207.264C149.085 207.264 147.965 206.984 147.149 206.424C146.349 205.864 145.789 205.104 145.469 204.144C145.149 203.168 144.989 202.048 144.989 200.784V193.848C144.989 192.52 145.149 191.368 145.469 190.392C145.789 189.416 146.349 188.664 147.149 188.136C147.965 187.608 149.085 187.344 150.509 187.344C151.853 187.344 152.901 187.576 153.653 188.04C154.421 188.488 154.965 189.136 155.285 189.984C155.605 190.832 155.765 191.816 155.765 192.936V194.568H152.357V192.888C152.357 192.344 152.325 191.848 152.261 191.4C152.213 190.952 152.061 190.6 151.805 190.344C151.565 190.072 151.141 189.936 150.533 189.936C149.925 189.936 149.477 190.08 149.189 190.368C148.917 190.64 148.741 191.016 148.661 191.496C148.581 191.96 148.541 192.488 148.541 193.08V201.528C148.541 202.232 148.597 202.816 148.709 203.28C148.821 203.728 149.021 204.072 149.309 204.312C149.613 204.536 150.021 204.648 150.533 204.648C151.125 204.648 151.541 204.512 151.781 204.24C152.037 203.952 152.197 203.576 152.261 203.112C152.325 202.648 152.357 202.128 152.357 201.552V199.8H155.765V201.36C155.765 202.512 155.613 203.536 155.309 204.432C155.005 205.312 154.469 206.008 153.701 206.52C152.949 207.016 151.885 207.264 150.509 207.264ZM158.309 197.088V193.872H161.429V197.088H158.309ZM158.309 205.2V201.984H161.429V205.2H158.309Z" fill="#999999"/>
<path d="M127.5 112C117.469 112 109.5 120.156 109.5 130C109.5 136.75 111.656 138.812 123.656 157.938C125.438 160.75 129.469 160.75 131.25 157.938C143.25 138.812 145.5 136.75 145.5 130C145.5 120.062 137.344 112 127.5 112ZM127.5 155.5C115.5 136.375 114 135.156 114 130C114 122.594 120 116.5 127.5 116.5C134.906 116.5 141 122.594 141 130C141 135.156 139.5 136.188 127.5 155.5ZM120 130C120 134.219 123.281 137.5 127.5 137.5C131.625 137.5 135 134.219 135 130C135 125.875 131.625 122.5 127.5 122.5C123.281 122.5 120 125.875 120 130Z" fill="#F7654A"/>
<path d="M41.6783 264.408V261.936C42.4303 261.984 43.0463 261.968 43.5263 261.888C44.0223 261.808 44.3983 261.648 44.6543 261.408C44.9103 261.168 45.0623 260.848 45.1103 260.448C45.1583 260.032 45.1263 259.528 45.0143 258.936L40.9103 241.56H44.1983L45.8543 249.696L46.7422 255.36L47.4622 249.696L48.9023 241.56H52.2383L48.4703 259.296C48.2943 260.128 48.1103 260.84 47.9183 261.432C47.7423 262.04 47.5103 262.544 47.2223 262.944C46.9503 263.36 46.5823 263.68 46.1183 263.904C45.6543 264.128 45.0623 264.272 44.3423 264.336C43.6223 264.416 42.7343 264.44 41.6783 264.408ZM51.9638 261V258.456C52.4117 258.472 52.7878 258.448 53.0918 258.384C53.4118 258.304 53.6758 258.136 53.8838 257.88C54.1078 257.624 54.2918 257.232 54.4358 256.704C54.5798 256.16 54.6998 255.432 54.7958 254.52C54.8918 253.608 54.9958 252.448 55.1078 251.04L55.7318 241.56H65.1878V261H61.6598V244.224H58.8758L58.4438 251.472C58.3478 252.896 58.2358 254.152 58.1078 255.24C57.9958 256.328 57.8118 257.256 57.5558 258.024C57.3158 258.776 56.9718 259.384 56.5238 259.848C56.0758 260.312 55.4838 260.64 54.7478 260.832C54.0118 261.008 53.0838 261.064 51.9638 261ZM68.2386 261V241.56H71.1426V253.824L76.4706 241.56H78.8466V261H75.9186V248.544L70.5666 261H68.2386ZM92.9192 264.864L92.5352 261H81.8792V241.56H85.4072V258.552H89.7752V241.56H93.3032V258.552H95.5592V264.864H92.9192ZM96.5738 261L100.462 241.56H104.254L108.142 261H104.854L104.086 256.512H100.702L99.9098 261H96.5738ZM101.062 254.256H103.702L102.382 246.096L101.062 254.256ZM115.885 261L116.221 241.56H119.893L122.653 255.024L125.533 241.56H129.085L129.445 261H126.805L126.517 247.488L123.757 261H121.621L118.813 247.44L118.549 261H115.885ZM132.364 261V241.56H135.268V253.824L140.596 241.56H142.972V261H140.044V248.544L134.692 261H132.364ZM145.956 261V241.56H151.668C152.836 241.56 153.78 241.776 154.5 242.208C155.236 242.64 155.772 243.272 156.108 244.104C156.46 244.92 156.636 245.912 156.636 247.08C156.636 248.344 156.42 249.368 155.988 250.152C155.556 250.92 154.948 251.48 154.164 251.832C153.396 252.184 152.484 252.36 151.428 252.36H149.508V261H145.956ZM149.508 249.864H150.852C151.492 249.864 151.988 249.776 152.34 249.6C152.708 249.408 152.956 249.112 153.084 248.712C153.228 248.296 153.3 247.744 153.3 247.056C153.3 246.352 153.244 245.784 153.132 245.352C153.036 244.904 152.812 244.576 152.46 244.368C152.124 244.16 151.588 244.056 150.852 244.056H149.508V249.864ZM157.277 261L161.165 241.56H164.957L168.845 261H165.557L164.789 256.512H161.405L160.613 261H157.277ZM161.765 254.256H164.405L163.085 246.096L161.765 254.256ZM178.796 261V245.232C178.7 245.28 178.508 245.352 178.22 245.448C177.948 245.544 177.644 245.64 177.308 245.736C176.972 245.816 176.66 245.896 176.372 245.976C176.1 246.056 175.908 246.12 175.796 246.168V243.696C176.02 243.616 176.3 243.504 176.636 243.36C176.972 243.216 177.324 243.056 177.692 242.88C178.076 242.688 178.428 242.48 178.748 242.256C179.084 242.032 179.356 241.8 179.564 241.56H182.108V261H178.796ZM191.146 261V256.224H185.338V253.392L190.402 241.56H194.266V253.584H196.258V256.224H194.266V261H191.146ZM188.122 253.584H191.146V245.136L188.122 253.584ZM203.072 261.288C201.936 261.288 200.992 261.048 200.24 260.568C199.504 260.088 198.944 259.424 198.56 258.576C198.192 257.728 198.008 256.752 198.008 255.648V247.032C198.008 245.896 198.184 244.904 198.536 244.056C198.904 243.192 199.456 242.52 200.192 242.04C200.944 241.56 201.904 241.32 203.072 241.32C204.24 241.32 205.192 241.56 205.928 242.04C206.68 242.52 207.232 243.192 207.584 244.056C207.952 244.904 208.136 245.896 208.136 247.032V255.648C208.136 256.752 207.944 257.728 207.56 258.576C207.192 259.424 206.632 260.088 205.88 260.568C205.144 261.048 204.208 261.288 203.072 261.288ZM203.072 258.432C203.568 258.432 203.936 258.28 204.176 257.976C204.416 257.672 204.576 257.304 204.656 256.872C204.736 256.44 204.776 256.016 204.776 255.6V247.08C204.776 246.632 204.736 246.192 204.656 245.76C204.592 245.312 204.44 244.936 204.2 244.632C203.96 244.328 203.584 244.176 203.072 244.176C202.56 244.176 202.184 244.328 201.944 244.632C201.704 244.936 201.544 245.312 201.464 245.76C201.4 246.192 201.368 246.632 201.368 247.08V255.6C201.368 256.016 201.408 256.44 201.488 256.872C201.584 257.304 201.752 257.672 201.992 257.976C202.232 258.28 202.592 258.432 203.072 258.432ZM210.996 264.264L210.66 263.064C211.092 262.936 211.46 262.704 211.764 262.368C212.068 262.048 212.22 261.592 212.22 261H210.492V257.76H213.684V260.712C213.684 261.736 213.46 262.536 213.012 263.112C212.564 263.704 211.892 264.088 210.996 264.264ZM64.5878 297.264C63.2118 297.264 62.1158 297.008 61.2998 296.496C60.4838 295.984 59.8998 295.248 59.5478 294.288C59.1958 293.328 59.0198 292.192 59.0198 290.88V283.608C59.0198 282.296 59.1958 281.176 59.5478 280.248C59.8998 279.304 60.4838 278.584 61.2998 278.088C62.1158 277.592 63.2118 277.344 64.5878 277.344C65.9958 277.344 67.0998 277.592 67.8998 278.088C68.7158 278.584 69.2998 279.304 69.6518 280.248C70.0198 281.176 70.2038 282.296 70.2038 283.608V290.904C70.2038 292.2 70.0198 293.328 69.6518 294.288C69.2998 295.232 68.7158 295.968 67.8998 296.496C67.0998 297.008 65.9958 297.264 64.5878 297.264ZM64.5878 294.648C65.1798 294.648 65.6118 294.52 65.8838 294.264C66.1718 294.008 66.3638 293.656 66.4598 293.208C66.5558 292.76 66.6038 292.272 66.6038 291.744V282.792C66.6038 282.248 66.5558 281.76 66.4598 281.328C66.3638 280.896 66.1718 280.56 65.8838 280.32C65.6118 280.064 65.1798 279.936 64.5878 279.936C64.0278 279.936 63.6038 280.064 63.3158 280.32C63.0278 280.56 62.8358 280.896 62.7398 281.328C62.6438 281.76 62.5958 282.248 62.5958 282.792V291.744C62.5958 292.272 62.6358 292.76 62.7158 293.208C62.8118 293.656 63.0038 294.008 63.2918 294.264C63.5798 294.52 64.0118 294.648 64.5878 294.648ZM78.3512 297.768V294.696C78.1752 294.712 77.9832 294.728 77.7752 294.744C77.5672 294.76 77.3672 294.768 77.1752 294.768C76.2472 294.768 75.4312 294.6 74.7272 294.264C74.0232 293.928 73.4712 293.4 73.0712 292.68C72.6872 291.944 72.4952 290.992 72.4952 289.824V284.448C72.4952 283.344 72.6872 282.424 73.0712 281.688C73.4712 280.952 74.0232 280.4 74.7272 280.032C75.4472 279.664 76.2872 279.48 77.2472 279.48C77.4392 279.48 77.6392 279.488 77.8472 279.504C78.0552 279.504 78.2232 279.512 78.3512 279.528V276.12H81.4472V279.528C81.5912 279.512 81.7592 279.504 81.9512 279.504C82.1592 279.488 82.3512 279.48 82.5272 279.48C83.5192 279.48 84.3672 279.664 85.0712 280.032C85.7912 280.4 86.3432 280.96 86.7272 281.712C87.1272 282.448 87.3272 283.36 87.3272 284.448V289.824C87.3272 290.992 87.1352 291.944 86.7512 292.68C86.3672 293.4 85.8472 293.936 85.1912 294.288C84.5512 294.624 83.8312 294.792 83.0312 294.792C82.7752 294.792 82.5112 294.784 82.2392 294.768C81.9832 294.752 81.7192 294.736 81.4472 294.72V297.768H78.3512ZM77.7752 292.608C77.8712 292.608 77.9752 292.608 78.0872 292.608C78.1992 292.592 78.2872 292.576 78.3512 292.56V281.64C78.2392 281.624 78.1192 281.616 77.9912 281.616C77.8792 281.6 77.7672 281.592 77.6552 281.592C77.1912 281.592 76.8072 281.688 76.5032 281.88C76.2152 282.072 75.9992 282.376 75.8552 282.792C75.7112 283.208 75.6392 283.752 75.6392 284.424V289.848C75.6392 290.504 75.6952 291.032 75.8072 291.432C75.9352 291.832 76.1512 292.128 76.4552 292.32C76.7592 292.512 77.1992 292.608 77.7752 292.608ZM82.1192 292.584C82.6472 292.584 83.0552 292.496 83.3432 292.32C83.6472 292.144 83.8552 291.856 83.9672 291.456C84.0952 291.04 84.1592 290.504 84.1592 289.848V284.424C84.1592 283.736 84.0952 283.184 83.9672 282.768C83.8392 282.352 83.6312 282.056 83.3432 281.88C83.0712 281.688 82.6872 281.592 82.1912 281.592C82.0632 281.592 81.9352 281.6 81.8072 281.616C81.6792 281.616 81.5592 281.624 81.4472 281.64V292.536C81.5432 292.552 81.6472 292.568 81.7592 292.584C81.8872 292.584 82.0072 292.584 82.1192 292.584ZM89.9651 297V277.56H92.8691V289.824L98.1971 277.56H100.573V297H97.6451V284.544L92.2931 297H89.9651ZM108.79 297.264C107.366 297.264 106.246 296.984 105.43 296.424C104.63 295.864 104.07 295.104 103.75 294.144C103.43 293.168 103.27 292.048 103.27 290.784V283.848C103.27 282.52 103.43 281.368 103.75 280.392C104.07 279.416 104.63 278.664 105.43 278.136C106.246 277.608 107.366 277.344 108.79 277.344C110.134 277.344 111.182 277.576 111.934 278.04C112.702 278.488 113.246 279.136 113.566 279.984C113.886 280.832 114.046 281.816 114.046 282.936V284.568H110.638V282.888C110.638 282.344 110.606 281.848 110.542 281.4C110.494 280.952 110.342 280.6 110.086 280.344C109.846 280.072 109.422 279.936 108.814 279.936C108.206 279.936 107.758 280.08 107.47 280.368C107.198 280.64 107.022 281.016 106.942 281.496C106.862 281.96 106.822 282.488 106.822 283.08V291.528C106.822 292.232 106.878 292.816 106.99 293.28C107.102 293.728 107.302 294.072 107.59 294.312C107.894 294.536 108.302 294.648 108.814 294.648C109.406 294.648 109.822 294.512 110.062 294.24C110.318 293.952 110.478 293.576 110.542 293.112C110.606 292.648 110.638 292.128 110.638 291.552V289.8H114.046V291.36C114.046 292.512 113.894 293.536 113.59 294.432C113.286 295.312 112.75 296.008 111.982 296.52C111.23 297.016 110.166 297.264 108.79 297.264ZM124.515 297V281.232C124.419 281.28 124.227 281.352 123.939 281.448C123.667 281.544 123.363 281.64 123.027 281.736C122.691 281.816 122.379 281.896 122.091 281.976C121.819 282.056 121.627 282.12 121.515 282.168V279.696C121.739 279.616 122.019 279.504 122.355 279.36C122.691 279.216 123.043 279.056 123.411 278.88C123.795 278.688 124.147 278.48 124.467 278.256C124.803 278.032 125.075 277.8 125.283 277.56H127.827V297H124.515ZM136.865 297V292.224H131.057V289.392L136.121 277.56H139.985V289.584H141.977V292.224H139.985V297H136.865ZM133.841 289.584H136.865V281.136L133.841 289.584ZM148.791 297.288C147.655 297.288 146.711 297.048 145.959 296.568C145.223 296.088 144.663 295.424 144.279 294.576C143.911 293.728 143.727 292.752 143.727 291.648V283.032C143.727 281.896 143.903 280.904 144.255 280.056C144.623 279.192 145.175 278.52 145.911 278.04C146.663 277.56 147.623 277.32 148.791 277.32C149.959 277.32 150.911 277.56 151.647 278.04C152.399 278.52 152.951 279.192 153.303 280.056C153.671 280.904 153.855 281.896 153.855 283.032V291.648C153.855 292.752 153.663 293.728 153.279 294.576C152.911 295.424 152.351 296.088 151.599 296.568C150.863 297.048 149.927 297.288 148.791 297.288ZM148.791 294.432C149.287 294.432 149.655 294.28 149.895 293.976C150.135 293.672 150.295 293.304 150.375 292.872C150.455 292.44 150.495 292.016 150.495 291.6V283.08C150.495 282.632 150.455 282.192 150.375 281.76C150.311 281.312 150.159 280.936 149.919 280.632C149.679 280.328 149.303 280.176 148.791 280.176C148.279 280.176 147.903 280.328 147.663 280.632C147.423 280.936 147.263 281.312 147.183 281.76C147.119 282.192 147.087 282.632 147.087 283.08V291.6C147.087 292.016 147.127 292.44 147.207 292.872C147.303 293.304 147.471 293.672 147.711 293.976C147.951 294.28 148.311 294.432 148.791 294.432ZM156.571 290.256V288.048H162.355V290.256H156.571ZM167.358 297V281.232C167.262 281.28 167.07 281.352 166.782 281.448C166.51 281.544 166.206 281.64 165.87 281.736C165.534 281.816 165.222 281.896 164.934 281.976C164.662 282.056 164.47 282.12 164.358 282.168V279.696C164.582 279.616 164.862 279.504 165.198 279.36C165.534 279.216 165.886 279.056 166.254 278.88C166.638 278.688 166.99 278.48 167.31 278.256C167.646 278.032 167.918 277.8 168.126 277.56H170.67V297H167.358ZM179.709 297V292.224H173.901V289.392L178.965 277.56H182.829V289.584H184.821V292.224H182.829V297H179.709ZM176.685 289.584H179.709V281.136L176.685 289.584ZM186.211 297V294.648L191.011 287.232C191.363 286.688 191.691 286.168 191.995 285.672C192.315 285.176 192.571 284.664 192.763 284.136C192.971 283.592 193.075 283 193.075 282.36C193.075 281.64 192.947 281.088 192.691 280.704C192.435 280.32 192.035 280.128 191.491 280.128C190.979 280.128 190.579 280.272 190.291 280.56C190.003 280.848 189.803 281.224 189.691 281.688C189.595 282.152 189.547 282.664 189.547 283.224V284.04H186.283V283.176C186.283 282.024 186.451 281.016 186.787 280.152C187.139 279.272 187.691 278.584 188.443 278.088C189.195 277.592 190.179 277.344 191.395 277.344C193.059 277.344 194.307 277.792 195.139 278.688C195.971 279.584 196.387 280.832 196.387 282.432C196.387 283.232 196.275 283.96 196.051 284.616C195.827 285.256 195.531 285.872 195.163 286.464C194.795 287.056 194.395 287.664 193.963 288.288L189.979 294.336H195.883V297H186.211Z" fill="black"/>
<path d="M367.838 207V190.176H364.742V187.56H374.438V190.176H371.39V207H367.838ZM376.206 207V187.56H384.366V190.056H379.758V195.648H383.382V198.12H379.758V204.552H384.414V207H376.206ZM385.128 207V204.456C385.576 204.472 385.952 204.448 386.256 204.384C386.576 204.304 386.84 204.136 387.048 203.88C387.272 203.624 387.456 203.232 387.6 202.704C387.744 202.16 387.864 201.432 387.96 200.52C388.056 199.608 388.16 198.448 388.272 197.04L388.896 187.56H398.352V207H394.824V190.224H392.04L391.608 197.472C391.512 198.896 391.4 200.152 391.272 201.24C391.16 202.328 390.976 203.256 390.72 204.024C390.48 204.776 390.136 205.384 389.688 205.848C389.24 206.312 388.648 206.64 387.912 206.832C387.176 207.008 386.248 207.064 385.128 207ZM401.355 207V187.56H409.515V190.056H404.907V195.648H408.531V198.12H404.907V204.552H409.563V207H401.355ZM417.14 207.768V204.696C416.964 204.712 416.772 204.728 416.564 204.744C416.356 204.76 416.156 204.768 415.964 204.768C415.036 204.768 414.22 204.6 413.516 204.264C412.812 203.928 412.26 203.4 411.86 202.68C411.476 201.944 411.284 200.992 411.284 199.824V194.448C411.284 193.344 411.476 192.424 411.86 191.688C412.26 190.952 412.812 190.4 413.516 190.032C414.236 189.664 415.076 189.48 416.036 189.48C416.228 189.48 416.428 189.488 416.636 189.504C416.844 189.504 417.012 189.512 417.14 189.528V186.12H420.236V189.528C420.38 189.512 420.548 189.504 420.74 189.504C420.948 189.488 421.14 189.48 421.316 189.48C422.308 189.48 423.156 189.664 423.86 190.032C424.58 190.4 425.132 190.96 425.516 191.712C425.916 192.448 426.116 193.36 426.116 194.448V199.824C426.116 200.992 425.924 201.944 425.54 202.68C425.156 203.4 424.636 203.936 423.98 204.288C423.34 204.624 422.62 204.792 421.82 204.792C421.564 204.792 421.3 204.784 421.028 204.768C420.772 204.752 420.508 204.736 420.236 204.72V207.768H417.14ZM416.564 202.608C416.66 202.608 416.764 202.608 416.876 202.608C416.988 202.592 417.076 202.576 417.14 202.56V191.64C417.028 191.624 416.908 191.616 416.78 191.616C416.668 191.6 416.556 191.592 416.444 191.592C415.98 191.592 415.596 191.688 415.292 191.88C415.004 192.072 414.788 192.376 414.644 192.792C414.5 193.208 414.428 193.752 414.428 194.424V199.848C414.428 200.504 414.484 201.032 414.596 201.432C414.724 201.832 414.94 202.128 415.244 202.32C415.548 202.512 415.988 202.608 416.564 202.608ZM420.908 202.584C421.436 202.584 421.844 202.496 422.132 202.32C422.436 202.144 422.644 201.856 422.756 201.456C422.884 201.04 422.948 200.504 422.948 199.848V194.424C422.948 193.736 422.884 193.184 422.756 192.768C422.628 192.352 422.42 192.056 422.132 191.88C421.86 191.688 421.476 191.592 420.98 191.592C420.852 191.592 420.724 191.6 420.596 191.616C420.468 191.616 420.348 191.624 420.236 191.64V202.536C420.332 202.552 420.436 202.568 420.548 202.584C420.676 202.584 420.796 202.584 420.908 202.584ZM433.986 207.264C432.61 207.264 431.514 207.008 430.698 206.496C429.882 205.984 429.298 205.248 428.946 204.288C428.594 203.328 428.418 202.192 428.418 200.88V193.608C428.418 192.296 428.594 191.176 428.946 190.248C429.298 189.304 429.882 188.584 430.698 188.088C431.514 187.592 432.61 187.344 433.986 187.344C435.394 187.344 436.498 187.592 437.298 188.088C438.114 188.584 438.698 189.304 439.05 190.248C439.418 191.176 439.602 192.296 439.602 193.608V200.904C439.602 202.2 439.418 203.328 439.05 204.288C438.698 205.232 438.114 205.968 437.298 206.496C436.498 207.008 435.394 207.264 433.986 207.264ZM433.986 204.648C434.578 204.648 435.01 204.52 435.282 204.264C435.57 204.008 435.762 203.656 435.858 203.208C435.954 202.76 436.002 202.272 436.002 201.744V192.792C436.002 192.248 435.954 191.76 435.858 191.328C435.762 190.896 435.57 190.56 435.282 190.32C435.01 190.064 434.578 189.936 433.986 189.936C433.426 189.936 433.002 190.064 432.714 190.32C432.426 190.56 432.234 190.896 432.138 191.328C432.042 191.76 431.994 192.248 431.994 192.792V201.744C431.994 202.272 432.034 202.76 432.114 203.208C432.21 203.656 432.402 204.008 432.69 204.264C432.978 204.52 433.41 204.648 433.986 204.648ZM442.278 207V187.56H445.806V195.696H449.766V187.56H453.318V207H449.766V198.216H445.806V207H442.278ZM456.364 197.088V193.872H459.484V197.088H456.364ZM456.364 205.2V201.984H459.484V205.2H456.364Z" fill="#999999"/>
<path d="M433.125 114.156L424.312 112.188C422.25 111.719 420.188 112.75 419.438 114.625L415.312 124.188C414.562 125.875 415.031 127.938 416.531 129.156L420.281 132.25C417.656 137.125 413.531 141.156 408.656 143.875L405.562 140.125C404.344 138.625 402.281 138.156 400.594 138.906L391.031 142.938C389.156 143.781 388.125 145.844 388.594 147.906L390.562 156.719C391.031 158.688 392.812 160 394.781 160C417.75 160 436.5 141.438 436.5 118.375C436.5 116.406 435.094 114.625 433.125 114.156ZM394.969 155.5L393 147.062L402.188 143.125L407.438 149.5C416.719 145.094 421.5 140.312 425.906 131.031L419.531 125.781L423.469 116.594L432 118.562C431.906 138.906 415.312 155.406 394.969 155.5Z" fill="#F7654A"/>
<path d="M336.085 261.264C332.709 261.264 331.021 259.328 331.021 255.456C331.021 253.184 331.797 251.616 333.349 250.752C332.725 250.32 332.229 249.744 331.861 249.024C331.493 248.288 331.309 247.392 331.309 246.336C331.309 244.768 331.717 243.544 332.533 242.664C333.349 241.784 334.533 241.344 336.085 241.344C337.653 241.344 338.837 241.784 339.637 242.664C340.437 243.544 340.837 244.768 340.837 246.336C340.837 248.368 340.165 249.84 338.821 250.752C340.373 251.632 341.149 253.224 341.149 255.528C341.149 259.352 339.461 261.264 336.085 261.264ZM336.085 249.456C337.141 249.44 337.669 248.408 337.669 246.36C337.669 245.592 337.541 244.984 337.285 244.536C337.029 244.088 336.629 243.864 336.085 243.864C335.541 243.864 335.133 244.088 334.861 244.536C334.589 244.984 334.453 245.584 334.453 246.336C334.453 248.4 334.997 249.44 336.085 249.456ZM336.085 258.744C336.821 258.744 337.309 258.44 337.549 257.832C337.789 257.208 337.909 256.392 337.909 255.384C337.909 254.456 337.773 253.712 337.501 253.152C337.245 252.576 336.773 252.28 336.085 252.264C335.397 252.28 334.917 252.592 334.645 253.2C334.373 253.792 334.237 254.576 334.237 255.552C334.237 256.496 334.365 257.264 334.621 257.856C334.877 258.448 335.365 258.744 336.085 258.744ZM354.899 265.464C353.363 265.464 352.211 264.92 351.443 263.832C350.675 262.744 350.179 261.368 349.955 259.704C349.747 258.04 349.643 255.96 349.643 253.464C349.643 250.888 349.747 248.768 349.955 247.104C350.179 245.44 350.667 244.072 351.419 243C352.187 241.912 353.347 241.368 354.899 241.368V243.624C354.259 243.624 353.779 244.04 353.459 244.872C353.155 245.704 352.955 246.808 352.859 248.184C352.763 249.544 352.715 251.304 352.715 253.464C352.715 255.608 352.763 257.368 352.859 258.744C352.955 260.104 353.163 261.184 353.483 261.984C353.803 262.8 354.275 263.216 354.899 263.232V265.464ZM361.819 261.264C358.443 261.264 356.755 259.328 356.755 255.456C356.755 253.184 357.531 251.616 359.083 250.752C358.459 250.32 357.963 249.744 357.595 249.024C357.227 248.288 357.043 247.392 357.043 246.336C357.043 244.768 357.451 243.544 358.267 242.664C359.083 241.784 360.267 241.344 361.819 241.344C363.387 241.344 364.571 241.784 365.371 242.664C366.171 243.544 366.571 244.768 366.571 246.336C366.571 248.368 365.899 249.84 364.555 250.752C366.107 251.632 366.883 253.224 366.883 255.528C366.883 259.352 365.195 261.264 361.819 261.264ZM361.819 249.456C362.875 249.44 363.403 248.408 363.403 246.36C363.403 245.592 363.275 244.984 363.019 244.536C362.763 244.088 362.363 243.864 361.819 243.864C361.275 243.864 360.867 244.088 360.595 244.536C360.323 244.984 360.187 245.584 360.187 246.336C360.187 248.4 360.731 249.44 361.819 249.456ZM361.819 258.744C362.555 258.744 363.043 258.44 363.283 257.832C363.523 257.208 363.643 256.392 363.643 255.384C363.643 254.456 363.507 253.712 363.235 253.152C362.979 252.576 362.507 252.28 361.819 252.264C361.131 252.28 360.651 252.592 360.379 253.2C360.107 253.792 359.971 254.576 359.971 255.552C359.971 256.496 360.099 257.264 360.355 257.856C360.611 258.448 361.099 258.744 361.819 258.744ZM371.558 245.232C371.398 245.344 370.814 245.528 369.806 245.784C368.99 246.024 368.574 246.152 368.558 246.168V243.696C369.198 243.472 369.894 243.168 370.646 242.784C371.414 242.384 371.974 241.976 372.326 241.56H374.894V261H371.558V245.232ZM378.316 258.648L383.116 251.232C383.196 251.104 383.268 250.992 383.332 250.896C383.396 250.8 383.452 250.712 383.5 250.632C384.076 249.736 384.5 248.992 384.772 248.4C385.044 247.808 385.18 247.136 385.18 246.384C385.18 244.88 384.652 244.128 383.596 244.128C382.876 244.128 382.372 244.408 382.084 244.968C381.796 245.528 381.652 246.28 381.652 247.224V248.04H378.388V247.176C378.388 245.352 378.796 243.928 379.612 242.904C380.444 241.864 381.74 241.344 383.5 241.344C385.132 241.344 386.372 241.792 387.22 242.688C388.068 243.568 388.492 244.808 388.492 246.408C388.492 247.4 388.316 248.28 387.964 249.048C387.628 249.816 387.1 250.76 386.38 251.88L386.092 252.312L382.084 258.336H387.988V261H378.316V258.648ZM390.006 263.208C390.63 263.208 391.102 262.792 391.422 261.96C391.758 261.144 391.974 260.056 392.07 258.696C392.166 257.336 392.214 255.584 392.214 253.44C392.214 251.264 392.166 249.496 392.07 248.136C391.974 246.776 391.766 245.68 391.446 244.848C391.126 244.016 390.646 243.6 390.006 243.6V241.368C391.558 241.368 392.718 241.904 393.486 242.976C394.254 244.048 394.742 245.416 394.95 247.08C395.158 248.744 395.262 250.864 395.262 253.44C395.262 255.952 395.158 258.04 394.95 259.704C394.742 261.368 394.254 262.744 393.486 263.832C392.718 264.92 391.558 265.464 390.006 265.464V263.208ZM405.776 245.232C405.616 245.344 405.032 245.528 404.024 245.784C403.208 246.024 402.792 246.152 402.776 246.168V243.696C403.416 243.472 404.112 243.168 404.864 242.784C405.632 242.384 406.192 241.976 406.544 241.56H409.112V261H405.776V245.232ZM415.175 245.232C415.015 245.344 414.431 245.528 413.423 245.784C412.607 246.024 412.191 246.152 412.175 246.168V243.696C412.815 243.472 413.511 243.168 414.263 242.784C415.031 242.384 415.591 241.976 415.943 241.56H418.511V261H415.175V245.232ZM424.573 245.232C424.413 245.344 423.829 245.528 422.821 245.784C422.005 246.024 421.589 246.152 421.573 246.168V243.696C422.213 243.472 422.909 243.168 423.661 242.784C424.429 242.384 424.989 241.976 425.341 241.56H427.909V261H424.573V245.232ZM431.716 252.024H437.5V254.256H431.716V252.024ZM439.863 258.648L444.663 251.232C444.743 251.104 444.815 250.992 444.879 250.896C444.943 250.8 444.999 250.712 445.047 250.632C445.623 249.736 446.047 248.992 446.319 248.4C446.591 247.808 446.727 247.136 446.727 246.384C446.727 244.88 446.199 244.128 445.143 244.128C444.423 244.128 443.919 244.408 443.631 244.968C443.343 245.528 443.199 246.28 443.199 247.224V248.04H439.935V247.176C439.935 245.352 440.343 243.928 441.159 242.904C441.991 241.864 443.287 241.344 445.047 241.344C446.679 241.344 447.919 241.792 448.767 242.688C449.615 243.568 450.039 244.808 450.039 246.408C450.039 247.4 449.863 248.28 449.511 249.048C449.175 249.816 448.647 250.76 447.927 251.88L447.639 252.312L443.631 258.336H449.535V261H439.863V258.648ZM451.769 258.648L456.569 251.232C456.649 251.104 456.721 250.992 456.785 250.896C456.849 250.8 456.905 250.712 456.953 250.632C457.529 249.736 457.953 248.992 458.225 248.4C458.497 247.808 458.633 247.136 458.633 246.384C458.633 244.88 458.105 244.128 457.049 244.128C456.329 244.128 455.825 244.408 455.537 244.968C455.249 245.528 455.105 246.28 455.105 247.224V248.04H451.841V247.176C451.841 245.352 452.249 243.928 453.065 242.904C453.897 241.864 455.193 241.344 456.953 241.344C458.585 241.344 459.825 241.792 460.673 242.688C461.521 243.568 461.945 244.808 461.945 246.408C461.945 247.4 461.769 248.28 461.417 249.048C461.081 249.816 460.553 250.76 459.833 251.88L459.545 252.312L455.537 258.336H461.441V261H451.769V258.648ZM464.059 252.024H469.843V254.256H464.059V252.024ZM477.223 261.288C473.847 261.288 472.159 259.432 472.159 255.72V255.048H475.447V255.624C475.479 256.616 475.615 257.344 475.855 257.808C476.111 258.272 476.575 258.504 477.247 258.504C477.935 258.504 478.399 258.264 478.639 257.784C478.879 257.288 478.999 256.512 478.999 255.456C478.999 254.4 478.831 253.6 478.495 253.056C478.159 252.512 477.567 252.216 476.719 252.168H476.167V249.504H476.671C477.535 249.488 478.135 249.256 478.471 248.808C478.823 248.36 478.999 247.624 478.999 246.6C478.999 245.72 478.863 245.064 478.591 244.632C478.335 244.2 477.871 243.984 477.199 243.984C476.543 243.984 476.095 244.216 475.855 244.68C475.615 245.144 475.479 245.832 475.447 246.744V247.44H472.159V246.528C472.159 244.864 472.591 243.584 473.455 242.688C474.335 241.776 475.583 241.32 477.199 241.32C478.847 241.32 480.103 241.768 480.967 242.664C481.847 243.544 482.287 244.808 482.287 246.456C482.287 247.592 482.047 248.536 481.567 249.288C481.103 250.024 480.487 250.504 479.719 250.728C480.519 251 481.143 251.52 481.591 252.288C482.055 253.04 482.287 254.072 482.287 255.384C482.287 257.24 481.879 258.688 481.063 259.728C480.263 260.768 478.983 261.288 477.223 261.288ZM489.129 261.288C485.753 261.288 484.065 259.432 484.065 255.72V255.048H487.353V255.624C487.385 256.616 487.521 257.344 487.761 257.808C488.017 258.272 488.481 258.504 489.153 258.504C489.841 258.504 490.305 258.264 490.545 257.784C490.785 257.288 490.905 256.512 490.905 255.456C490.905 254.4 490.737 253.6 490.401 253.056C490.065 252.512 489.473 252.216 488.625 252.168H488.073V249.504H488.577C489.441 249.488 490.041 249.256 490.377 248.808C490.729 248.36 490.905 247.624 490.905 246.6C490.905 245.72 490.769 245.064 490.497 244.632C490.241 244.2 489.777 243.984 489.105 243.984C488.449 243.984 488.001 244.216 487.761 244.68C487.521 245.144 487.385 245.832 487.353 246.744V247.44H484.065V246.528C484.065 244.864 484.497 243.584 485.361 242.688C486.241 241.776 487.489 241.32 489.105 241.32C490.753 241.32 492.009 241.768 492.873 242.664C493.753 243.544 494.193 244.808 494.193 246.456C494.193 247.592 493.953 248.536 493.473 249.288C493.009 250.024 492.393 250.504 491.625 250.728C492.425 251 493.049 251.52 493.497 252.288C493.961 253.04 494.193 254.072 494.193 255.384C494.193 257.24 493.785 258.688 492.969 259.728C492.169 260.768 490.889 261.288 489.129 261.288ZM336.085 297.264C332.709 297.264 331.021 295.328 331.021 291.456C331.021 289.184 331.797 287.616 333.349 286.752C332.725 286.32 332.229 285.744 331.861 285.024C331.493 284.288 331.309 283.392 331.309 282.336C331.309 280.768 331.717 279.544 332.533 278.664C333.349 277.784 334.533 277.344 336.085 277.344C337.653 277.344 338.837 277.784 339.637 278.664C340.437 279.544 340.837 280.768 340.837 282.336C340.837 284.368 340.165 285.84 338.821 286.752C340.373 287.632 341.149 289.224 341.149 291.528C341.149 295.352 339.461 297.264 336.085 297.264ZM336.085 285.456C337.141 285.44 337.669 284.408 337.669 282.36C337.669 281.592 337.541 280.984 337.285 280.536C337.029 280.088 336.629 279.864 336.085 279.864C335.541 279.864 335.133 280.088 334.861 280.536C334.589 280.984 334.453 281.584 334.453 282.336C334.453 284.4 334.997 285.44 336.085 285.456ZM336.085 294.744C336.821 294.744 337.309 294.44 337.549 293.832C337.789 293.208 337.909 292.392 337.909 291.384C337.909 290.456 337.773 289.712 337.501 289.152C337.245 288.576 336.773 288.28 336.085 288.264C335.397 288.28 334.917 288.592 334.645 289.2C334.373 289.792 334.237 290.576 334.237 291.552C334.237 292.496 334.365 293.264 334.621 293.856C334.877 294.448 335.365 294.744 336.085 294.744ZM354.899 301.464C353.363 301.464 352.211 300.92 351.443 299.832C350.675 298.744 350.179 297.368 349.955 295.704C349.747 294.04 349.643 291.96 349.643 289.464C349.643 286.888 349.747 284.768 349.955 283.104C350.179 281.44 350.667 280.072 351.419 279C352.187 277.912 353.347 277.368 354.899 277.368V279.624C354.259 279.624 353.779 280.04 353.459 280.872C353.155 281.704 352.955 282.808 352.859 284.184C352.763 285.544 352.715 287.304 352.715 289.464C352.715 291.608 352.763 293.368 352.859 294.744C352.955 296.104 353.163 297.184 353.483 297.984C353.803 298.8 354.275 299.216 354.899 299.232V301.464ZM361.819 297.264C358.443 297.264 356.755 295.328 356.755 291.456C356.755 289.184 357.531 287.616 359.083 286.752C358.459 286.32 357.963 285.744 357.595 285.024C357.227 284.288 357.043 283.392 357.043 282.336C357.043 280.768 357.451 279.544 358.267 278.664C359.083 277.784 360.267 277.344 361.819 277.344C363.387 277.344 364.571 277.784 365.371 278.664C366.171 279.544 366.571 280.768 366.571 282.336C366.571 284.368 365.899 285.84 364.555 286.752C366.107 287.632 366.883 289.224 366.883 291.528C366.883 295.352 365.195 297.264 361.819 297.264ZM361.819 285.456C362.875 285.44 363.403 284.408 363.403 282.36C363.403 281.592 363.275 280.984 363.019 280.536C362.763 280.088 362.363 279.864 361.819 279.864C361.275 279.864 360.867 280.088 360.595 280.536C360.323 280.984 360.187 281.584 360.187 282.336C360.187 284.4 360.731 285.44 361.819 285.456ZM361.819 294.744C362.555 294.744 363.043 294.44 363.283 293.832C363.523 293.208 363.643 292.392 363.643 291.384C363.643 290.456 363.507 289.712 363.235 289.152C362.979 288.576 362.507 288.28 361.819 288.264C361.131 288.28 360.651 288.592 360.379 289.2C360.107 289.792 359.971 290.576 359.971 291.552C359.971 292.496 360.099 293.264 360.355 293.856C360.611 294.448 361.099 294.744 361.819 294.744ZM371.558 281.232C371.398 281.344 370.814 281.528 369.806 281.784C368.99 282.024 368.574 282.152 368.558 282.168V279.696C369.198 279.472 369.894 279.168 370.646 278.784C371.414 278.384 371.974 277.976 372.326 277.56H374.894V297H371.558V281.232ZM378.316 294.648L383.116 287.232C383.196 287.104 383.268 286.992 383.332 286.896C383.396 286.8 383.452 286.712 383.5 286.632C384.076 285.736 384.5 284.992 384.772 284.4C385.044 283.808 385.18 283.136 385.18 282.384C385.18 280.88 384.652 280.128 383.596 280.128C382.876 280.128 382.372 280.408 382.084 280.968C381.796 281.528 381.652 282.28 381.652 283.224V284.04H378.388V283.176C378.388 281.352 378.796 279.928 379.612 278.904C380.444 277.864 381.74 277.344 383.5 277.344C385.132 277.344 386.372 277.792 387.22 278.688C388.068 279.568 388.492 280.808 388.492 282.408C388.492 283.4 388.316 284.28 387.964 285.048C387.628 285.816 387.1 286.76 386.38 287.88L386.092 288.312L382.084 294.336H387.988V297H378.316V294.648ZM390.006 299.208C390.63 299.208 391.102 298.792 391.422 297.96C391.758 297.144 391.974 296.056 392.07 294.696C392.166 293.336 392.214 291.584 392.214 289.44C392.214 287.264 392.166 285.496 392.07 284.136C391.974 282.776 391.766 281.68 391.446 280.848C391.126 280.016 390.646 279.6 390.006 279.6V277.368C391.558 277.368 392.718 277.904 393.486 278.976C394.254 280.048 394.742 281.416 394.95 283.08C395.158 284.744 395.262 286.864 395.262 289.44C395.262 291.952 395.158 294.04 394.95 295.704C394.742 297.368 394.254 298.744 393.486 299.832C392.718 300.92 391.558 301.464 390.006 301.464V299.208ZM405.776 281.232C405.616 281.344 405.032 281.528 404.024 281.784C403.208 282.024 402.792 282.152 402.776 282.168V279.696C403.416 279.472 404.112 279.168 404.864 278.784C405.632 278.384 406.192 277.976 406.544 277.56H409.112V297H405.776V281.232ZM415.175 281.232C415.015 281.344 414.431 281.528 413.423 281.784C412.607 282.024 412.191 282.152 412.175 282.168V279.696C412.815 279.472 413.511 279.168 414.263 278.784C415.031 278.384 415.591 277.976 415.943 277.56H418.511V297H415.175V281.232ZM424.573 281.232C424.413 281.344 423.829 281.528 422.821 281.784C422.005 282.024 421.589 282.152 421.573 282.168V279.696C422.213 279.472 422.909 279.168 423.661 278.784C424.429 278.384 424.989 277.976 425.341 277.56H427.909V297H424.573V281.232ZM431.716 288.024H437.5V290.256H431.716V288.024ZM439.863 294.648L444.663 287.232C444.743 287.104 444.815 286.992 444.879 286.896C444.943 286.8 444.999 286.712 445.047 286.632C445.623 285.736 446.047 284.992 446.319 284.4C446.591 283.808 446.727 283.136 446.727 282.384C446.727 280.88 446.199 280.128 445.143 280.128C444.423 280.128 443.919 280.408 443.631 280.968C443.343 281.528 443.199 282.28 443.199 283.224V284.04H439.935V283.176C439.935 281.352 440.343 279.928 441.159 278.904C441.991 277.864 443.287 277.344 445.047 277.344C446.679 277.344 447.919 277.792 448.767 278.688C449.615 279.568 450.039 280.808 450.039 282.408C450.039 283.4 449.863 284.28 449.511 285.048C449.175 285.816 448.647 286.76 447.927 287.88L447.639 288.312L443.631 294.336H449.535V297H439.863V294.648ZM451.769 294.648L456.569 287.232C456.649 287.104 456.721 286.992 456.785 286.896C456.849 286.8 456.905 286.712 456.953 286.632C457.529 285.736 457.953 284.992 458.225 284.4C458.497 283.808 458.633 283.136 458.633 282.384C458.633 280.88 458.105 280.128 457.049 280.128C456.329 280.128 455.825 280.408 455.537 280.968C455.249 281.528 455.105 282.28 455.105 283.224V284.04H451.841V283.176C451.841 281.352 452.249 279.928 453.065 278.904C453.897 277.864 455.193 277.344 456.953 277.344C458.585 277.344 459.825 277.792 460.673 278.688C461.521 279.568 461.945 280.808 461.945 282.408C461.945 283.4 461.769 284.28 461.417 285.048C461.081 285.816 460.553 286.76 459.833 287.88L459.545 288.312L455.537 294.336H461.441V297H451.769V294.648ZM464.059 288.024H469.843V290.256H464.059V288.024ZM477.223 297.288C473.847 297.288 472.159 295.432 472.159 291.72V291.048H475.447V291.624C475.479 292.616 475.615 293.344 475.855 293.808C476.111 294.272 476.575 294.504 477.247 294.504C477.935 294.504 478.399 294.264 478.639 293.784C478.879 293.288 478.999 292.512 478.999 291.456C478.999 290.4 478.831 289.6 478.495 289.056C478.159 288.512 477.567 288.216 476.719 288.168H476.167V285.504H476.671C477.535 285.488 478.135 285.256 478.471 284.808C478.823 284.36 478.999 283.624 478.999 282.6C478.999 281.72 478.863 281.064 478.591 280.632C478.335 280.2 477.871 279.984 477.199 279.984C476.543 279.984 476.095 280.216 475.855 280.68C475.615 281.144 475.479 281.832 475.447 282.744V283.44H472.159V282.528C472.159 280.864 472.591 279.584 473.455 278.688C474.335 277.776 475.583 277.32 477.199 277.32C478.847 277.32 480.103 277.768 480.967 278.664C481.847 279.544 482.287 280.808 482.287 282.456C482.287 283.592 482.047 284.536 481.567 285.288C481.103 286.024 480.487 286.504 479.719 286.728C480.519 287 481.143 287.52 481.591 288.288C482.055 289.04 482.287 290.072 482.287 291.384C482.287 293.24 481.879 294.688 481.063 295.728C480.263 296.768 478.983 297.288 477.223 297.288ZM489.129 297.288C485.753 297.288 484.065 295.432 484.065 291.72V291.048H487.353V291.624C487.385 292.616 487.521 293.344 487.761 293.808C488.017 294.272 488.481 294.504 489.153 294.504C489.841 294.504 490.305 294.264 490.545 293.784C490.785 293.288 490.905 292.512 490.905 291.456C490.905 290.4 490.737 289.6 490.401 289.056C490.065 288.512 489.473 288.216 488.625 288.168H488.073V285.504H488.577C489.441 285.488 490.041 285.256 490.377 284.808C490.729 284.36 490.905 283.624 490.905 282.6C490.905 281.72 490.769 281.064 490.497 280.632C490.241 280.2 489.777 279.984 489.105 279.984C488.449 279.984 488.001 280.216 487.761 280.68C487.521 281.144 487.385 281.832 487.353 282.744V283.44H484.065V282.528C484.065 280.864 484.497 279.584 485.361 278.688C486.241 277.776 487.489 277.32 489.105 277.32C490.753 277.32 492.009 277.768 492.873 278.664C493.753 279.544 494.193 280.808 494.193 282.456C494.193 283.592 493.953 284.536 493.473 285.288C493.009 286.024 492.393 286.504 491.625 286.728C492.425 287 493.049 287.52 493.497 288.288C493.961 289.04 494.193 290.072 494.193 291.384C494.193 293.24 493.785 294.688 492.969 295.728C492.169 296.768 490.889 297.288 489.129 297.288Z" fill="black"/>
<path d="M619.909 207V187.56H624.685C625.549 187.56 626.325 187.64 627.013 187.8C627.717 187.96 628.317 188.232 628.813 188.616C629.325 188.984 629.717 189.488 629.989 190.128C630.261 190.768 630.397 191.576 630.397 192.552C630.397 193.336 630.285 194.008 630.061 194.568C629.853 195.128 629.541 195.576 629.125 195.912C628.709 196.232 628.189 196.448 627.565 196.56C628.333 196.688 628.965 196.96 629.461 197.376C629.973 197.776 630.349 198.304 630.589 198.96C630.845 199.616 630.973 200.408 630.973 201.336C630.973 202.264 630.853 203.088 630.613 203.808C630.389 204.512 630.045 205.104 629.581 205.584C629.133 206.048 628.565 206.4 627.877 206.64C627.205 206.88 626.413 207 625.501 207H619.909ZM623.461 204.504H624.805C625.877 204.504 626.605 204.248 626.989 203.736C627.373 203.208 627.565 202.4 627.565 201.312C627.565 200.528 627.469 199.896 627.277 199.416C627.101 198.92 626.797 198.552 626.365 198.312C625.949 198.072 625.389 197.952 624.685 197.952H623.461V204.504ZM623.461 195.504H624.661C625.365 195.504 625.909 195.4 626.293 195.192C626.677 194.984 626.941 194.664 627.085 194.232C627.245 193.8 627.325 193.256 627.325 192.6C627.325 191.912 627.205 191.384 626.965 191.016C626.741 190.632 626.397 190.376 625.933 190.248C625.469 190.104 624.877 190.032 624.157 190.032H623.461V195.504ZM633.269 207V187.56H638.981C640.149 187.56 641.093 187.776 641.813 188.208C642.549 188.64 643.085 189.272 643.421 190.104C643.773 190.92 643.949 191.912 643.949 193.08C643.949 194.344 643.733 195.368 643.301 196.152C642.869 196.92 642.261 197.48 641.477 197.832C640.709 198.184 639.797 198.36 638.741 198.36H636.821V207H633.269ZM636.821 195.864H638.165C638.805 195.864 639.301 195.776 639.653 195.6C640.021 195.408 640.269 195.112 640.397 194.712C640.541 194.296 640.613 193.744 640.613 193.056C640.613 192.352 640.557 191.784 640.445 191.352C640.349 190.904 640.125 190.576 639.773 190.368C639.437 190.16 638.901 190.056 638.165 190.056H636.821V195.864ZM645.925 207V187.56H654.085V190.056H649.477V195.648H653.101V198.12H649.477V204.552H654.133V207H645.925ZM656.143 207L656.479 187.56H660.151L662.911 201.024L665.791 187.56H669.343L669.703 207H667.063L666.775 193.488L664.015 207H661.879L659.071 193.44L658.807 207H656.143ZM671.373 207L675.261 198.312C674.461 197.896 673.813 197.256 673.317 196.392C672.821 195.512 672.573 194.432 672.573 193.152C672.573 191.872 672.805 190.824 673.269 190.008C673.733 189.176 674.429 188.56 675.357 188.16C676.301 187.76 677.493 187.56 678.933 187.56H683.421V207H679.893V199.128H678.765C678.733 199.128 678.661 199.128 678.549 199.128C678.437 199.128 678.365 199.128 678.333 199.128L675.237 207H671.373ZM679.101 196.632H679.893V190.032H679.029C677.989 190.032 677.205 190.288 676.677 190.8C676.149 191.296 675.885 192.08 675.885 193.152C675.885 194.256 676.117 195.112 676.581 195.72C677.061 196.328 677.901 196.632 679.101 196.632ZM692.237 207V187.56H697.949C699.117 187.56 700.061 187.776 700.781 188.208C701.517 188.64 702.053 189.272 702.389 190.104C702.741 190.92 702.917 191.912 702.917 193.08C702.917 194.344 702.701 195.368 702.269 196.152C701.837 196.92 701.229 197.48 700.445 197.832C699.677 198.184 698.765 198.36 697.709 198.36H695.789V207H692.237ZM695.789 195.864H697.133C697.773 195.864 698.269 195.776 698.621 195.6C698.989 195.408 699.237 195.112 699.365 194.712C699.509 194.296 699.581 193.744 699.581 193.056C699.581 192.352 699.525 191.784 699.413 191.352C699.317 190.904 699.093 190.576 698.741 190.368C698.405 190.16 697.869 190.056 697.133 190.056H695.789V195.864ZM703.558 207L707.446 187.56H711.238L715.126 207H711.838L711.07 202.512H707.686L706.894 207H703.558ZM708.046 200.256H710.686L709.366 192.096L708.046 200.256ZM717.129 207V187.56H726.153V190.2H720.657V195.72H721.425C722.737 195.72 723.833 195.904 724.713 196.272C725.609 196.624 726.281 197.216 726.729 198.048C727.177 198.864 727.401 199.968 727.401 201.36C727.401 202.448 727.265 203.36 726.993 204.096C726.721 204.816 726.313 205.392 725.769 205.824C725.241 206.256 724.601 206.56 723.849 206.736C723.097 206.912 722.241 207 721.281 207H717.129ZM720.657 204.6H721.305C721.977 204.6 722.521 204.504 722.937 204.312C723.353 204.12 723.657 203.784 723.849 203.304C724.041 202.808 724.129 202.136 724.113 201.288C724.097 200.28 723.889 199.512 723.489 198.984C723.105 198.456 722.361 198.192 721.257 198.192H720.657V204.6ZM734.971 207.264C733.595 207.264 732.499 207.008 731.683 206.496C730.867 205.984 730.283 205.248 729.931 204.288C729.579 203.328 729.403 202.192 729.403 200.88V193.608C729.403 192.296 729.579 191.176 729.931 190.248C730.283 189.304 730.867 188.584 731.683 188.088C732.499 187.592 733.595 187.344 734.971 187.344C736.379 187.344 737.483 187.592 738.283 188.088C739.099 188.584 739.683 189.304 740.035 190.248C740.403 191.176 740.587 192.296 740.587 193.608V200.904C740.587 202.2 740.403 203.328 740.035 204.288C739.683 205.232 739.099 205.968 738.283 206.496C737.483 207.008 736.379 207.264 734.971 207.264ZM734.971 204.648C735.563 204.648 735.995 204.52 736.267 204.264C736.555 204.008 736.747 203.656 736.843 203.208C736.939 202.76 736.987 202.272 736.987 201.744V192.792C736.987 192.248 736.939 191.76 736.843 191.328C736.747 190.896 736.555 190.56 736.267 190.32C735.995 190.064 735.563 189.936 734.971 189.936C734.411 189.936 733.987 190.064 733.699 190.32C733.411 190.56 733.219 190.896 733.123 191.328C733.027 191.76 732.979 192.248 732.979 192.792V201.744C732.979 202.272 733.019 202.76 733.099 203.208C733.195 203.656 733.387 204.008 733.675 204.264C733.963 204.52 734.395 204.648 734.971 204.648ZM745.158 207V190.176H742.062V187.56H751.758V190.176H748.71V207H745.158ZM753.575 207V187.56H757.103V195.72H757.967C759.295 195.72 760.399 195.904 761.279 196.272C762.159 196.624 762.823 197.216 763.271 198.048C763.719 198.864 763.943 199.968 763.943 201.36C763.943 202.448 763.799 203.36 763.511 204.096C763.239 204.816 762.839 205.392 762.311 205.824C761.783 206.256 761.143 206.56 760.391 206.736C759.639 206.912 758.783 207 757.823 207H753.575ZM757.103 204.6H757.847C758.519 204.6 759.063 204.504 759.479 204.312C759.895 204.12 760.199 203.784 760.391 203.304C760.583 202.808 760.671 202.136 760.655 201.288C760.655 200.28 760.455 199.512 760.055 198.984C759.655 198.456 758.903 198.192 757.799 198.192H757.103V204.6ZM765.767 207V187.56H769.295V207H765.767ZM772.349 197.088V193.872H775.469V197.088H772.349ZM772.349 205.2V201.984H775.469V205.2H772.349Z" fill="#999999"/>
<path d="M697.5 112.75C684.656 112.75 674.25 123.156 674.25 136C674.25 148.844 684.656 159.25 697.5 159.25C710.344 159.25 720.75 148.844 720.75 136C720.75 123.156 710.344 112.75 697.5 112.75ZM697.5 154.75C687.094 154.75 678.75 146.406 678.75 136C678.75 125.688 687.094 117.25 697.5 117.25C707.812 117.25 716.25 125.688 716.25 136C716.25 146.406 707.812 154.75 697.5 154.75ZM703.219 145C703.781 145.375 704.438 145.281 704.812 144.719L706.594 142.375C706.969 141.812 706.875 141.156 706.312 140.781L700.125 136.188V122.875C700.125 122.312 699.562 121.75 699 121.75H696C695.344 121.75 694.875 122.312 694.875 122.875V138.344C694.875 138.625 694.969 139 695.25 139.188L703.219 145Z" fill="#F7654A"/>
<path d="M667.816 241.56H679.024V261H675.52V244.08H671.32V261H667.816V241.56ZM681.996 241.56H685.524V249.672H689.484V241.56H693.036V261H689.484V252.216H685.524V261H681.996V241.56ZM695.915 252.024H701.699V254.256H695.915V252.024ZM709.774 261.264C707.758 261.264 706.326 260.704 705.478 259.584C704.646 258.448 704.23 256.848 704.23 254.784V247.848C704.23 245.72 704.646 244.104 705.478 243C706.31 241.896 707.742 241.344 709.774 241.344C711.678 241.344 713.03 241.824 713.83 242.784C714.63 243.744 715.03 245.128 715.03 246.936V248.568H711.622V246.888C711.622 246.2 711.59 245.664 711.526 245.28C711.462 244.88 711.294 244.56 711.022 244.32C710.766 244.064 710.358 243.936 709.798 243.936C709.222 243.936 708.79 244.072 708.502 244.344C708.214 244.6 708.022 244.952 707.926 245.4C707.846 245.832 707.806 246.4 707.806 247.104V255.528C707.806 256.632 707.95 257.432 708.238 257.928C708.526 258.408 709.046 258.648 709.798 258.648C710.342 258.648 710.742 258.52 710.998 258.264C711.27 258.008 711.438 257.672 711.502 257.256C711.582 256.824 711.622 256.256 711.622 255.552V253.8H715.03V255.36C715.03 257.232 714.638 258.688 713.854 259.728C713.07 260.752 711.71 261.264 709.774 261.264ZM717.551 241.56H726.575V244.2H721.079V249.72H721.847C723.879 249.72 725.383 250.152 726.359 251.016C727.335 251.88 727.823 253.328 727.823 255.36C727.823 257.44 727.311 258.904 726.287 259.752C725.263 260.584 723.743 261 721.727 261H717.551V241.56ZM721.751 258.6C722.759 258.6 723.471 258.376 723.887 257.928C724.319 257.464 724.535 256.624 724.535 255.408C724.535 254.304 724.327 253.496 723.911 252.984C723.495 252.456 722.751 252.192 721.679 252.192H721.079V258.6H721.751ZM636.167 281.232C636.007 281.344 635.423 281.528 634.415 281.784C633.599 282.024 633.183 282.152 633.167 282.168V279.696C633.807 279.472 634.503 279.168 635.255 278.784C636.023 278.384 636.583 277.976 636.935 277.56H639.503V297H636.167V281.232ZM648.349 297.288C646.701 297.288 645.445 296.776 644.581 295.752C643.717 294.728 643.285 293.36 643.285 291.648V283.032C643.285 281.256 643.701 279.864 644.533 278.856C645.365 277.848 646.637 277.344 648.349 277.344C650.029 277.344 651.293 277.856 652.141 278.88C652.989 279.888 653.413 281.272 653.413 283.032V291.648C653.413 293.36 652.981 294.728 652.117 295.752C651.253 296.776 649.997 297.288 648.349 297.288ZM648.349 294.432C649.485 294.432 650.053 293.488 650.053 291.6V283.08C650.053 282.232 649.933 281.544 649.693 281.016C649.469 280.472 649.021 280.2 648.349 280.2C647.661 280.2 647.205 280.472 646.981 281.016C646.757 281.544 646.645 282.232 646.645 283.08V291.6C646.645 292.384 646.765 293.056 647.005 293.616C647.261 294.16 647.709 294.432 648.349 294.432ZM656.298 283.872H659.418V287.088H656.298V283.872ZM656.298 291.984H659.418V295.2H656.298V291.984ZM666.912 297.288C665.264 297.288 664.008 296.776 663.144 295.752C662.28 294.728 661.848 293.36 661.848 291.648V283.032C661.848 281.256 662.264 279.864 663.096 278.856C663.928 277.848 665.2 277.344 666.912 277.344C668.592 277.344 669.856 277.856 670.704 278.88C671.552 279.888 671.976 281.272 671.976 283.032V291.648C671.976 293.36 671.544 294.728 670.68 295.752C669.816 296.776 668.56 297.288 666.912 297.288ZM666.912 294.432C668.048 294.432 668.616 293.488 668.616 291.6V283.08C668.616 282.232 668.496 281.544 668.256 281.016C668.032 280.472 667.584 280.2 666.912 280.2C666.224 280.2 665.768 280.472 665.544 281.016C665.32 281.544 665.208 282.232 665.208 283.08V291.6C665.208 292.384 665.328 293.056 665.568 293.616C665.824 294.16 666.272 294.432 666.912 294.432ZM679.732 297.288C678.084 297.288 676.828 296.776 675.964 295.752C675.1 294.728 674.668 293.36 674.668 291.648V283.032C674.668 281.256 675.084 279.864 675.916 278.856C676.748 277.848 678.02 277.344 679.732 277.344C681.412 277.344 682.676 277.856 683.524 278.88C684.372 279.888 684.796 281.272 684.796 283.032V291.648C684.796 293.36 684.364 294.728 683.5 295.752C682.636 296.776 681.38 297.288 679.732 297.288ZM679.732 294.432C680.868 294.432 681.436 293.488 681.436 291.6V283.08C681.436 282.232 681.316 281.544 681.076 281.016C680.852 280.472 680.404 280.2 679.732 280.2C679.044 280.2 678.588 280.472 678.364 281.016C678.14 281.544 678.028 282.232 678.028 283.08V291.6C678.028 292.384 678.148 293.056 678.388 293.616C678.644 294.16 679.092 294.432 679.732 294.432ZM693.348 288.024H699.132V290.256H693.348V288.024ZM707.332 294.648L712.132 287.232C712.212 287.104 712.284 286.992 712.348 286.896C712.412 286.8 712.468 286.712 712.516 286.632C713.092 285.736 713.516 284.992 713.788 284.4C714.06 283.808 714.196 283.136 714.196 282.384C714.196 280.88 713.668 280.128 712.612 280.128C711.892 280.128 711.388 280.408 711.1 280.968C710.812 281.528 710.668 282.28 710.668 283.224V284.04H707.404V283.176C707.404 281.352 707.812 279.928 708.628 278.904C709.46 277.864 710.756 277.344 712.516 277.344C714.148 277.344 715.388 277.792 716.236 278.688C717.084 279.568 717.508 280.808 717.508 282.408C717.508 283.4 717.332 284.28 716.98 285.048C716.644 285.816 716.116 286.76 715.396 287.88L715.108 288.312L711.1 294.336H717.004V297H707.332V294.648ZM724.662 297.288C723.014 297.288 721.758 296.776 720.894 295.752C720.03 294.728 719.598 293.36 719.598 291.648V283.032C719.598 281.256 720.014 279.864 720.846 278.856C721.678 277.848 722.95 277.344 724.662 277.344C726.342 277.344 727.606 277.856 728.454 278.88C729.302 279.888 729.726 281.272 729.726 283.032V291.648C729.726 293.36 729.294 294.728 728.43 295.752C727.566 296.776 726.31 297.288 724.662 297.288ZM724.662 294.432C725.798 294.432 726.366 293.488 726.366 291.6V283.08C726.366 282.232 726.246 281.544 726.006 281.016C725.782 280.472 725.334 280.2 724.662 280.2C723.974 280.2 723.518 280.472 723.294 281.016C723.07 281.544 722.958 282.232 722.958 283.08V291.6C722.958 292.384 723.078 293.056 723.318 293.616C723.574 294.16 724.022 294.432 724.662 294.432ZM732.61 283.872H735.73V287.088H732.61V283.872ZM732.61 291.984H735.73V295.2H732.61V291.984ZM743.224 297.288C741.576 297.288 740.32 296.776 739.456 295.752C738.592 294.728 738.16 293.36 738.16 291.648V283.032C738.16 281.256 738.576 279.864 739.408 278.856C740.24 277.848 741.512 277.344 743.224 277.344C744.904 277.344 746.168 277.856 747.016 278.88C747.864 279.888 748.288 281.272 748.288 283.032V291.648C748.288 293.36 747.856 294.728 746.992 295.752C746.128 296.776 744.872 297.288 743.224 297.288ZM743.224 294.432C744.36 294.432 744.928 293.488 744.928 291.6V283.08C744.928 282.232 744.808 281.544 744.568 281.016C744.344 280.472 743.896 280.2 743.224 280.2C742.536 280.2 742.08 280.472 741.856 281.016C741.632 281.544 741.52 282.232 741.52 283.08V291.6C741.52 292.384 741.64 293.056 741.88 293.616C742.136 294.16 742.584 294.432 743.224 294.432ZM756.045 297.288C754.397 297.288 753.141 296.776 752.277 295.752C751.413 294.728 750.981 293.36 750.981 291.648V283.032C750.981 281.256 751.397 279.864 752.229 278.856C753.061 277.848 754.333 277.344 756.045 277.344C757.725 277.344 758.989 277.856 759.837 278.88C760.685 279.888 761.109 281.272 761.109 283.032V291.648C761.109 293.36 760.677 294.728 759.813 295.752C758.949 296.776 757.693 297.288 756.045 297.288ZM756.045 294.432C757.181 294.432 757.749 293.488 757.749 291.6V283.08C757.749 282.232 757.629 281.544 757.389 281.016C757.165 280.472 756.717 280.2 756.045 280.2C755.357 280.2 754.901 280.472 754.677 281.016C754.453 281.544 754.341 282.232 754.341 283.08V291.6C754.341 292.384 754.461 293.056 754.701 293.616C754.957 294.16 755.405 294.432 756.045 294.432Z" fill="black"/>
<path d="M948.878 187.56H957.038V190.056H952.406V195.648H956.054V198.12H952.406V204.576H957.086V207H948.878V187.56ZM959.048 198.024H964.832V200.256H959.048V198.024ZM967.963 187.56H971.635L974.395 201.024L977.251 187.56H980.827L981.187 207H978.547L978.259 193.488L975.499 207H973.363L970.555 193.44L970.291 207H967.627L967.963 187.56ZM986.962 187.56H990.754L994.642 207H991.354L990.586 202.512H987.202L986.41 207H983.074L986.962 187.56ZM990.202 200.256L988.882 192.096L987.562 200.256H990.202ZM996.693 187.56H1000.2V207H996.693V187.56ZM1003.21 187.56H1006.73V204.576H1011.46V207H1003.21V187.56ZM1013.38 193.872H1016.5V197.088H1013.38V193.872ZM1013.38 201.984H1016.5V205.2H1013.38V201.984Z" fill="#999999"/>
<path d="M1002 118H963C960.469 118 958.5 120.062 958.5 122.5V149.5C958.5 152.031 960.469 154 963 154H1002C1004.44 154 1006.5 152.031 1006.5 149.5V122.5C1006.5 120.062 1004.44 118 1002 118ZM1002 122.5V126.344C999.844 128.125 996.469 130.75 989.344 136.375C987.75 137.594 984.656 140.594 982.5 140.5C980.25 140.594 977.156 137.594 975.562 136.375C968.438 130.75 965.062 128.125 963 126.344V122.5H1002ZM963 149.5V132.156C965.062 133.844 968.156 136.281 972.75 139.938C974.812 141.531 978.469 145.094 982.5 145C986.438 145.094 990 141.531 992.156 139.938C996.75 136.281 999.844 133.844 1002 132.156V149.5H963Z" fill="#F7654A"/>
<path d="M920.415 261V241.56H923.919V261H920.415ZM926.929 261V241.56H929.401L934.129 252.648V241.56H937.057V261H934.705L929.953 249.384V261H926.929ZM940.007 261V241.56H947.999V244.008H943.559V249.672H947.183V252.144H943.559V261H940.007ZM955.201 261.264C953.825 261.264 952.729 261.008 951.913 260.496C951.097 259.984 950.513 259.248 950.161 258.288C949.809 257.328 949.633 256.192 949.633 254.88V247.608C949.633 246.296 949.809 245.176 950.161 244.248C950.513 243.304 951.097 242.584 951.913 242.088C952.729 241.592 953.825 241.344 955.201 241.344C956.609 241.344 957.713 241.592 958.513 242.088C959.329 242.584 959.913 243.304 960.265 244.248C960.633 245.176 960.817 246.296 960.817 247.608V254.904C960.817 256.2 960.633 257.328 960.265 258.288C959.913 259.232 959.329 259.968 958.513 260.496C957.713 261.008 956.609 261.264 955.201 261.264ZM955.201 258.648C955.793 258.648 956.225 258.52 956.497 258.264C956.785 258.008 956.977 257.656 957.073 257.208C957.169 256.76 957.217 256.272 957.217 255.744V246.792C957.217 246.248 957.169 245.76 957.073 245.328C956.977 244.896 956.785 244.56 956.497 244.32C956.225 244.064 955.793 243.936 955.201 243.936C954.641 243.936 954.217 244.064 953.929 244.32C953.641 244.56 953.449 244.896 953.353 245.328C953.257 245.76 953.209 246.248 953.209 246.792V255.744C953.209 256.272 953.249 256.76 953.329 257.208C953.425 257.656 953.617 258.008 953.905 258.264C954.193 258.52 954.625 258.648 955.201 258.648ZM973.284 264.12C971.684 264.12 970.244 263.888 968.964 263.424C967.7 262.96 966.628 262.272 965.748 261.36C964.884 260.448 964.244 259.328 963.828 258C963.428 256.656 963.276 255.112 963.372 253.368C963.468 251.48 963.796 249.8 964.356 248.328C964.916 246.856 965.684 245.624 966.66 244.632C967.652 243.624 968.82 242.864 970.164 242.352C971.508 241.824 973.004 241.56 974.652 241.56C976.22 241.56 977.572 241.816 978.708 242.328C979.844 242.84 980.764 243.552 981.468 244.464C982.188 245.376 982.7 246.424 983.004 247.608C983.324 248.776 983.436 250.032 983.34 251.376C983.308 252.272 983.156 253.152 982.884 254.016C982.628 254.88 982.244 255.656 981.732 256.344C981.236 257.032 980.628 257.584 979.908 258C979.188 258.416 978.356 258.624 977.412 258.624C976.98 258.624 976.564 258.552 976.164 258.408C975.78 258.264 975.452 258.04 975.18 257.736C974.908 257.432 974.732 257.064 974.652 256.632C974.508 257.096 974.244 257.512 973.86 257.88C973.476 258.248 972.98 258.456 972.372 258.504C971.524 258.568 970.804 258.4 970.212 258C969.62 257.584 969.18 257.016 968.892 256.296C968.604 255.56 968.468 254.752 968.484 253.872C968.5 253.072 968.628 252.24 968.868 251.376C969.124 250.496 969.484 249.68 969.948 248.928C970.428 248.176 971.012 247.568 971.7 247.104C972.388 246.624 973.172 246.384 974.052 246.384C974.34 246.384 974.588 246.456 974.796 246.6C975.02 246.744 975.204 246.912 975.348 247.104C975.508 247.28 975.636 247.432 975.732 247.56L975.972 246.552H978.492L977.292 254.88C977.26 255.12 977.228 255.384 977.196 255.672C977.18 255.96 977.204 256.216 977.268 256.44C977.332 256.648 977.476 256.768 977.7 256.8C978.1 256.848 978.492 256.744 978.876 256.488C979.276 256.232 979.628 255.864 979.932 255.384C980.252 254.888 980.508 254.312 980.7 253.656C980.908 252.984 981.028 252.264 981.06 251.496C981.124 250.392 981.044 249.368 980.82 248.424C980.612 247.48 980.244 246.656 979.716 245.952C979.188 245.248 978.484 244.704 977.604 244.32C976.724 243.936 975.66 243.744 974.412 243.744C973.1 243.744 971.932 243.984 970.908 244.464C969.884 244.928 969.012 245.584 968.292 246.432C967.588 247.28 967.036 248.288 966.636 249.456C966.252 250.624 966.028 251.904 965.964 253.296C965.9 254.416 965.948 255.44 966.108 256.368C966.268 257.28 966.548 258.08 966.948 258.768C967.348 259.456 967.86 260.04 968.484 260.52C969.108 260.984 969.844 261.336 970.692 261.576C971.556 261.816 972.524 261.936 973.596 261.936C974.028 261.936 974.5 261.904 975.012 261.84C975.524 261.792 976.052 261.712 976.596 261.6C977.156 261.488 977.676 261.36 978.156 261.216L978.588 263.352C977.708 263.576 976.812 263.76 975.9 263.904C975.004 264.048 974.132 264.12 973.284 264.12ZM973.044 256.2C973.268 256.168 973.548 256.04 973.884 255.816C974.22 255.576 974.46 255.184 974.604 254.64L975.372 249.024C975.324 248.944 975.22 248.888 975.06 248.856C974.916 248.808 974.788 248.784 974.676 248.784C974.036 248.784 973.468 249.032 972.972 249.528C972.492 250.008 972.108 250.64 971.82 251.424C971.532 252.192 971.388 253.016 971.388 253.896C971.388 254.328 971.444 254.728 971.556 255.096C971.668 255.464 971.844 255.752 972.084 255.96C972.34 256.168 972.66 256.248 973.044 256.2ZM988.686 261L984.774 241.56H987.918L990.486 255.312L992.886 241.56H996.102L992.19 261H988.686ZM998.181 261V241.56H1001.69V261H998.181ZM1004.69 261V241.56H1010.41C1011.57 241.56 1012.52 241.776 1013.24 242.208C1013.97 242.64 1014.51 243.272 1014.85 244.104C1015.2 244.92 1015.37 245.912 1015.37 247.08C1015.37 248.344 1015.16 249.368 1014.73 250.152C1014.29 250.92 1013.69 251.48 1012.9 251.832C1012.13 252.184 1011.22 252.36 1010.17 252.36H1008.25V261H1004.69ZM1008.25 249.864H1009.59C1010.23 249.864 1010.73 249.776 1011.08 249.6C1011.45 249.408 1011.69 249.112 1011.82 248.712C1011.97 248.296 1012.04 247.744 1012.04 247.056C1012.04 246.352 1011.98 245.784 1011.87 245.352C1011.77 244.904 1011.55 244.576 1011.2 244.368C1010.86 244.16 1010.33 244.056 1009.59 244.056H1008.25V249.864ZM1015.09 261V257.712H1018.26V261H1015.09ZM1020.63 261V241.56H1025.29C1026.6 241.56 1027.7 241.72 1028.6 242.04C1029.51 242.344 1030.2 242.872 1030.66 243.624C1031.14 244.376 1031.38 245.4 1031.38 246.696C1031.38 247.48 1031.31 248.184 1031.17 248.808C1031.02 249.432 1030.78 249.968 1030.42 250.416C1030.09 250.848 1029.62 251.184 1029.01 251.424L1031.72 261H1028.17L1025.82 252.096H1024.18V261H1020.63ZM1024.18 249.864H1025.29C1025.98 249.864 1026.52 249.768 1026.92 249.576C1027.34 249.368 1027.63 249.048 1027.81 248.616C1027.98 248.168 1028.07 247.6 1028.07 246.912C1028.07 245.936 1027.89 245.208 1027.52 244.728C1027.17 244.232 1026.49 243.984 1025.48 243.984H1024.18V249.864ZM1039.34 261.264C1037.9 261.264 1036.78 261 1035.98 260.472C1035.18 259.944 1034.63 259.192 1034.33 258.216C1034.02 257.24 1033.87 256.072 1033.87 254.712V241.56H1037.33V255.12C1037.33 255.728 1037.37 256.304 1037.45 256.848C1037.53 257.376 1037.71 257.808 1038 258.144C1038.3 258.464 1038.75 258.624 1039.34 258.624C1039.97 258.624 1040.41 258.464 1040.69 258.144C1040.97 257.808 1041.16 257.376 1041.24 256.848C1041.33 256.304 1041.38 255.728 1041.38 255.12V241.56H1044.81V254.712C1044.81 256.072 1044.66 257.24 1044.36 258.216C1044.05 259.192 1043.5 259.944 1042.7 260.472C1041.92 261 1040.8 261.264 1039.34 261.264Z" fill="#F7654A"/>
</svg>
