<svg width="172" height="133" viewBox="0 0 172 133" fill="none" xmlns="http://www.w3.org/2000/svg">
<path d="M18.7819 96.231C17.0179 96.231 15.7649 95.741 15.0229 94.761C14.2949 93.767 13.9309 92.367 13.9309 90.561V84.492C13.9309 82.63 14.2949 81.216 15.0229 80.25C15.7509 79.284 17.0039 78.801 18.7819 78.801C20.4479 78.801 21.6309 79.221 22.3309 80.061C23.0309 80.901 23.3809 82.112 23.3809 83.694V85.122H20.3989V83.652C20.3989 83.05 20.3709 82.581 20.3149 82.245C20.2589 81.895 20.1119 81.615 19.8739 81.405C19.6499 81.181 19.2929 81.069 18.8029 81.069C18.2989 81.069 17.9209 81.188 17.6689 81.426C17.4169 81.65 17.2489 81.958 17.1649 82.35C17.0949 82.728 17.0599 83.225 17.0599 83.841V91.212C17.0599 92.178 17.1859 92.878 17.4379 93.312C17.6899 93.732 18.1449 93.942 18.8029 93.942C19.2789 93.942 19.6289 93.83 19.8529 93.606C20.0909 93.382 20.2379 93.088 20.2939 92.724C20.3639 92.346 20.3989 91.849 20.3989 91.233V89.7H23.3809V91.065C23.3809 92.703 23.0379 93.977 22.3519 94.887C21.6659 95.783 20.4759 96.231 18.7819 96.231ZM27.6657 81.279H24.9567V78.99H33.4197V81.279H30.7737V96H27.6657V81.279ZM35.3876 78.99H40.3856C43.2836 78.99 44.7326 80.6 44.7326 83.82C44.7326 86.9 43.2136 88.44 40.1756 88.44H38.4746V96H35.3876V78.99ZM39.6716 86.256C40.5116 86.256 41.0786 86.081 41.3726 85.731C41.6666 85.367 41.8136 84.723 41.8136 83.799C41.8136 83.127 41.7646 82.616 41.6666 82.266C41.5686 81.902 41.3656 81.629 41.0576 81.447C40.7636 81.265 40.3016 81.174 39.6716 81.174H38.4746V86.256H39.6716ZM51.5228 96.231C49.7588 96.231 48.4988 95.762 47.7428 94.824C46.9868 93.872 46.6088 92.486 46.6088 90.666V84.282C46.6088 82.476 46.9868 81.111 47.7428 80.187C48.4988 79.263 49.7588 78.801 51.5228 78.801C53.2728 78.801 54.5258 79.263 55.2818 80.187C56.0378 81.111 56.4158 82.476 56.4158 84.282V90.666C56.4158 92.472 56.0308 93.851 55.2608 94.803C54.5048 95.755 53.2588 96.231 51.5228 96.231ZM51.5228 93.942C52.2088 93.942 52.6708 93.725 52.9088 93.291C53.1468 92.857 53.2658 92.227 53.2658 91.401V83.568C53.2658 82.742 53.1468 82.119 52.9088 81.699C52.6848 81.279 52.2228 81.069 51.5228 81.069C50.8228 81.069 50.3538 81.286 50.1158 81.72C49.8778 82.14 49.7588 82.756 49.7588 83.568V91.401C49.7588 92.227 49.8778 92.857 50.1158 93.291C50.3538 93.725 50.8228 93.942 51.5228 93.942ZM59.1769 78.99H61.7179V89.721L66.3799 78.99H68.4589V96H65.8759V85.08L61.2139 96H59.1769V78.99ZM73.1914 81.279H70.4824V78.99H78.9454V81.279H76.2994V96H73.1914V81.279ZM80.9133 78.99H88.0533V81.174H84.0003V86.067H87.1923V88.23H84.0003V93.879H88.0953V96H80.9133V78.99ZM89.1398 93.774C89.8538 93.788 90.3648 93.676 90.6728 93.438C90.9948 93.186 91.2398 92.626 91.4078 91.758C91.5758 90.89 91.7368 89.399 91.8908 87.285L92.4368 78.99H100.711V96H97.6238V81.321H95.1668L94.8098 87.663C94.6698 89.931 94.4808 91.618 94.2428 92.724C94.0048 93.816 93.5568 94.642 92.8988 95.202C92.2548 95.748 91.2538 96.021 89.8958 96.021C89.5738 96.021 89.3218 96.014 89.1398 96V93.774ZM103.8 78.99H106.887V86.13H107.643C109.407 86.13 110.716 86.508 111.57 87.264C112.438 88.02 112.872 89.287 112.872 91.065C112.872 92.885 112.424 94.166 111.528 94.908C110.632 95.636 109.295 96 107.517 96H103.8V78.99ZM107.517 93.9C108.413 93.9 109.05 93.697 109.428 93.291C109.806 92.885 109.995 92.15 109.995 91.086C109.995 90.134 109.813 89.434 109.449 88.986C109.085 88.524 108.427 88.293 107.475 88.293H106.887V93.9H107.517ZM119.81 96.231C118.046 96.231 116.793 95.741 116.051 94.761C115.323 93.767 114.959 92.367 114.959 90.561V84.492C114.959 82.63 115.323 81.216 116.051 80.25C116.779 79.284 118.032 78.801 119.81 78.801C121.476 78.801 122.659 79.221 123.359 80.061C124.059 80.901 124.409 82.112 124.409 83.694V85.122H121.427V83.652C121.427 83.05 121.399 82.581 121.343 82.245C121.287 81.895 121.14 81.615 120.902 81.405C120.678 81.181 120.321 81.069 119.831 81.069C119.327 81.069 118.949 81.188 118.697 81.426C118.445 81.65 118.277 81.958 118.193 82.35C118.123 82.728 118.088 83.225 118.088 83.841V91.212C118.088 92.178 118.214 92.878 118.466 93.312C118.718 93.732 119.173 93.942 119.831 93.942C120.307 93.942 120.657 93.83 120.881 93.606C121.119 93.382 121.266 93.088 121.322 92.724C121.392 92.346 121.427 91.849 121.427 91.233V89.7H124.409V91.065C124.409 92.703 124.066 93.977 123.38 94.887C122.694 95.783 121.504 96.231 119.81 96.231ZM128.694 81.279H125.985V78.99H134.448V81.279H131.802V96H128.694V81.279ZM136.416 78.99H140.616C142.226 78.99 143.458 79.319 144.312 79.977C145.166 80.635 145.593 81.762 145.593 83.358C145.593 84.394 145.383 85.206 144.963 85.794C144.543 86.368 143.934 86.718 143.136 86.844C145.096 87.222 146.076 88.622 146.076 91.044C146.076 92.682 145.677 93.921 144.879 94.761C144.081 95.587 142.898 96 141.33 96H136.416V78.99ZM140.574 85.941C141.47 85.941 142.079 85.745 142.401 85.353C142.737 84.947 142.905 84.296 142.905 83.4C142.905 82.532 142.688 81.944 142.254 81.636C141.834 81.314 141.127 81.153 140.133 81.153H139.503V85.941H140.574ZM140.7 93.816C141.61 93.816 142.24 93.599 142.59 93.165C142.94 92.731 143.115 92.017 143.115 91.023C143.115 90.001 142.919 89.259 142.527 88.797C142.149 88.321 141.505 88.083 140.595 88.083H139.503V93.816H140.7ZM153.166 96.231C151.402 96.231 150.142 95.762 149.386 94.824C148.63 93.872 148.252 92.486 148.252 90.666V84.282C148.252 82.476 148.63 81.111 149.386 80.187C150.142 79.263 151.402 78.801 153.166 78.801C154.916 78.801 156.169 79.263 156.925 80.187C157.681 81.111 158.059 82.476 158.059 84.282V90.666C158.059 92.472 157.674 93.851 156.904 94.803C156.148 95.755 154.902 96.231 153.166 96.231ZM153.166 93.942C153.852 93.942 154.314 93.725 154.552 93.291C154.79 92.857 154.909 92.227 154.909 91.401V83.568C154.909 82.742 154.79 82.119 154.552 81.699C154.328 81.279 153.866 81.069 153.166 81.069C152.466 81.069 151.997 81.286 151.759 81.72C151.521 82.14 151.402 82.756 151.402 83.568V91.401C151.402 92.227 151.521 92.857 151.759 93.291C151.997 93.725 152.466 93.942 153.166 93.942ZM6.20713 127.231C4.44313 127.231 3.18313 126.762 2.42713 125.824C1.67113 124.872 1.29313 123.486 1.29313 121.666V115.282C1.29313 113.476 1.67113 112.111 2.42713 111.187C3.18313 110.263 4.44313 109.801 6.20713 109.801C7.95713 109.801 9.21013 110.263 9.96613 111.187C10.7221 112.111 11.1001 113.476 11.1001 115.282V121.666C11.1001 123.472 10.7151 124.851 9.94513 125.803C9.18913 126.755 7.94313 127.231 6.20713 127.231ZM6.20713 124.942C6.89313 124.942 7.35513 124.725 7.59313 124.291C7.83113 123.857 7.95013 123.227 7.95013 122.401V114.568C7.95013 113.742 7.83113 113.119 7.59313 112.699C7.36913 112.279 6.90713 112.069 6.20713 112.069C5.50713 112.069 5.03813 112.286 4.80013 112.72C4.56213 113.14 4.44313 113.756 4.44313 114.568V122.401C4.44313 123.227 4.56213 123.857 4.80013 124.291C5.03813 124.725 5.50713 124.942 6.20713 124.942ZM18.6491 124.984C18.0611 125.026 17.7181 125.047 17.6201 125.047C16.3321 125.047 15.3241 124.697 14.5961 123.997C13.8821 123.283 13.5251 122.191 13.5251 120.721V116.017C13.5251 114.603 13.8891 113.525 14.6171 112.783C15.3591 112.041 16.3741 111.67 17.6621 111.67C17.9841 111.67 18.3131 111.684 18.6491 111.712V108.73H21.3581V111.712C21.6941 111.684 22.0091 111.67 22.3031 111.67C23.6191 111.67 24.6411 112.041 25.3691 112.783C26.1111 113.525 26.4821 114.603 26.4821 116.017V120.721C26.4821 122.177 26.1391 123.262 25.4531 123.976C24.7671 124.69 23.8641 125.047 22.7441 125.047C22.2821 125.047 21.8201 125.026 21.3581 124.984V127.672H18.6491V124.984ZM18.1451 123.157C18.3131 123.157 18.4811 123.143 18.6491 123.115V113.56C18.3971 113.532 18.1941 113.518 18.0401 113.518C17.4241 113.518 16.9761 113.714 16.6961 114.106C16.4301 114.484 16.2971 115.114 16.2971 115.996V120.742C16.2971 121.638 16.4231 122.268 16.6751 122.632C16.9271 122.982 17.4171 123.157 18.1451 123.157ZM21.9461 123.157C22.6181 123.157 23.0801 122.982 23.3321 122.632C23.5981 122.268 23.7311 121.645 23.7311 120.763V115.996C23.7311 115.086 23.6051 114.449 23.3531 114.085C23.1011 113.707 22.6531 113.518 22.0091 113.518C21.8271 113.518 21.6101 113.532 21.3581 113.56V123.115C21.5541 123.143 21.7501 123.157 21.9461 123.157ZM29.2313 109.99H31.7723V120.721L36.4343 109.99H38.5133V127H35.9303V116.08L31.2683 127H29.2313V109.99ZM46.1229 127.231C44.3589 127.231 43.1059 126.741 42.3639 125.761C41.6359 124.767 41.2719 123.367 41.2719 121.561V115.492C41.2719 113.63 41.6359 112.216 42.3639 111.25C43.0919 110.284 44.3449 109.801 46.1229 109.801C47.7889 109.801 48.9719 110.221 49.6719 111.061C50.3719 111.901 50.7219 113.112 50.7219 114.694V116.122H47.7399V114.652C47.7399 114.05 47.7119 113.581 47.6559 113.245C47.5999 112.895 47.4529 112.615 47.2149 112.405C46.9909 112.181 46.6339 112.069 46.1439 112.069C45.6399 112.069 45.2619 112.188 45.0099 112.426C44.7579 112.65 44.5899 112.958 44.5059 113.35C44.4359 113.728 44.4009 114.225 44.4009 114.841V122.212C44.4009 123.178 44.5269 123.878 44.7789 124.312C45.0309 124.732 45.4859 124.942 46.1439 124.942C46.6199 124.942 46.9699 124.83 47.1939 124.606C47.4319 124.382 47.5789 124.088 47.6349 123.724C47.7049 123.346 47.7399 122.849 47.7399 122.233V120.7H50.7219V122.065C50.7219 123.703 50.3789 124.977 49.6929 125.887C49.0069 126.783 47.8169 127.231 46.1229 127.231ZM53.3477 109.99H56.4347V117.088H59.8997V109.99H63.0077V127H59.8997V119.314H56.4347V127H53.3477V109.99ZM66.0724 109.99H69.1594V117.13H69.9154C71.6934 117.13 73.0094 117.508 73.8634 118.264C74.7174 119.02 75.1444 120.287 75.1444 122.065C75.1444 123.885 74.6964 125.166 73.8004 125.908C72.9044 126.636 71.5674 127 69.7894 127H66.0724V109.99ZM76.7404 109.99H79.8274V127H76.7404V109.99ZM69.8104 124.9C70.6924 124.9 71.3224 124.697 71.7004 124.291C72.0784 123.885 72.2674 123.15 72.2674 122.086C72.2674 121.134 72.0854 120.434 71.7214 119.986C71.3574 119.524 70.7064 119.293 69.7684 119.293H69.1594V124.9H69.8104ZM85.2086 117.97L81.8906 109.99H84.7886L86.9936 115.282L88.9256 109.99H91.5926L88.3376 118.558L91.8446 127H88.9676L86.5526 121.267L84.4526 127H81.7856L85.2086 117.97ZM103.336 127.252C100.368 127.252 98.8836 125.628 98.8836 122.38V121.792H101.782C101.782 122.072 101.789 122.282 101.803 122.422C101.817 123.262 101.929 123.871 102.139 124.249C102.363 124.627 102.769 124.816 103.357 124.816C103.959 124.816 104.365 124.606 104.575 124.186C104.785 123.752 104.89 123.073 104.89 122.149C104.89 121.225 104.715 120.525 104.365 120.049C104.029 119.573 103.413 119.307 102.517 119.251H101.719V117.193C102.069 117.193 102.321 117.186 102.475 117.172C103.385 117.13 104.015 116.892 104.365 116.458C104.715 116.01 104.89 115.324 104.89 114.4C104.89 113.658 104.757 113.091 104.491 112.699C104.239 112.307 103.819 112.111 103.231 112.111C102.657 112.111 102.237 112.314 101.971 112.72C101.705 113.112 101.558 113.672 101.53 114.4V115.135H98.6316V114.337C98.6316 112.895 99.0306 111.775 99.8286 110.977C100.641 110.179 101.761 109.78 103.189 109.78C104.631 109.78 105.751 110.179 106.549 110.977C107.361 111.761 107.767 112.867 107.767 114.295C107.767 115.275 107.557 116.101 107.137 116.773C106.731 117.445 106.192 117.872 105.52 118.054C107.018 118.6 107.767 119.951 107.767 122.107C107.767 123.731 107.41 124.998 106.696 125.908C105.996 126.804 104.876 127.252 103.336 127.252ZM109.319 124.795H109.928C110.446 124.515 110.887 124.074 111.251 123.472C111.615 122.856 111.93 121.911 112.196 120.637C112.462 119.363 112.658 117.648 112.784 115.492L113.162 109.99H120.68V124.795H122.465V130.381H120.302L120.113 127H111.734L111.524 130.381H109.319V124.795ZM117.74 124.795V112.216H115.598L115.409 115.975C115.311 118.089 115.136 119.727 114.884 120.889C114.646 122.051 114.373 122.877 114.065 123.367C113.757 123.857 113.344 124.333 112.826 124.795H117.74ZM127.129 109.99H130.447L133.849 127H130.972L130.3 123.073H127.339L126.646 127H123.727L127.129 109.99ZM129.964 121.099L128.809 113.959L127.654 121.099H129.964ZM136.022 109.99H139.109V117.088H142.574V109.99H145.682V127H142.574V119.314H139.109V127H136.022V109.99ZM148.747 109.99H151.288V120.721L155.95 109.99H158.029V127H155.446V116.08L150.784 127H148.747V109.99ZM161.102 109.99H163.643V120.721L168.305 109.99H170.384V127H167.801V116.08L163.139 127H161.102V109.99ZM165.974 108.646C164.994 108.646 164.245 108.373 163.727 107.827C163.209 107.281 162.95 106.532 162.95 105.58H164.567C164.581 106.112 164.693 106.504 164.903 106.756C165.127 107.008 165.484 107.134 165.974 107.134C166.478 107.134 166.835 107.008 167.045 106.756C167.269 106.49 167.381 106.098 167.381 105.58H169.019C169.019 106.532 168.76 107.281 168.242 107.827C167.724 108.373 166.968 108.646 165.974 108.646Z" fill="black"/>
<path d="M81.875 36H78.125C77.4688 36 77 36.5625 77 37.125V40.875C77 41.5312 77.4688 42 78.125 42H81.875C82.4375 42 83 41.5312 83 40.875V37.125C83 36.5625 82.4375 36 81.875 36ZM81.875 18H78.125C77.4688 18 77 18.5625 77 19.125V22.875C77 23.5312 77.4688 24 78.125 24H81.875C82.4375 24 83 23.5312 83 22.875V19.125C83 18.5625 82.4375 18 81.875 18ZM72.875 18H69.125C68.4688 18 68 18.5625 68 19.125V22.875C68 23.5312 68.4688 24 69.125 24H72.875C73.4375 24 74 23.5312 74 22.875V19.125C74 18.5625 73.4375 18 72.875 18ZM72.875 36H69.125C68.4688 36 68 36.5625 68 37.125V40.875C68 41.5312 68.4688 42 69.125 42H72.875C73.4375 42 74 41.5312 74 40.875V37.125C74 36.5625 73.4375 36 72.875 36ZM72.875 27H69.125C68.4688 27 68 27.5625 68 28.125V31.875C68 32.5312 68.4688 33 69.125 33H72.875C73.4375 33 74 32.5312 74 31.875V28.125C74 27.5625 73.4375 27 72.875 27ZM81.875 27H78.125C77.4688 27 77 27.5625 77 28.125V31.875C77 32.5312 77.4688 33 78.125 33H81.875C82.4375 33 83 32.5312 83 31.875V28.125C83 27.5625 82.4375 27 81.875 27ZM108.875 36H105.125C104.469 36 104 36.5625 104 37.125V40.875C104 41.5312 104.469 42 105.125 42H108.875C109.438 42 110 41.5312 110 40.875V37.125C110 36.5625 109.438 36 108.875 36ZM108.875 27H105.125C104.469 27 104 27.5625 104 28.125V31.875C104 32.5312 104.469 33 105.125 33H108.875C109.438 33 110 32.5312 110 31.875V28.125C110 27.5625 109.438 27 108.875 27ZM116.75 18H107V2.25C107 1.03125 105.969 0 104.75 0H85.25C83.9375 0 83 1.03125 83 2.25V9H80V1.5C80 0.75 79.25 0 78.5 0H77C76.1562 0 75.5 0.75 75.5 1.5V9H69.5V1.5C69.5 0.75 68.75 0 68 0H66.5C65.6562 0 65 0.75 65 1.5V9H61.25C59.9375 9 59 10.0312 59 11.25V46.5C59 47.3438 59.6562 48 60.5 48H62C62.75 48 63.5 47.3438 63.5 46.5V13.5H87.5V4.5H102.5V22.5H114.5V46.5C114.5 47.3438 115.156 48 116 48H117.5C118.25 48 119 47.3438 119 46.5V20.25C119 19.0312 117.969 18 116.75 18ZM96.875 9H93.125C92.4688 9 92 9.5625 92 10.125V13.875C92 14.5312 92.4688 15 93.125 15H96.875C97.4375 15 98 14.5312 98 13.875V10.125C98 9.5625 97.4375 9 96.875 9ZM96.875 27H93.125C92.4688 27 92 27.5625 92 28.125V31.875C92 32.5312 92.4688 33 93.125 33H96.875C97.4375 33 98 32.5312 98 31.875V28.125C98 27.5625 97.4375 27 96.875 27ZM96.875 18H93.125C92.4688 18 92 18.5625 92 19.125V22.875C92 23.5312 92.4688 24 93.125 24H96.875C97.4375 24 98 23.5312 98 22.875V19.125C98 18.5625 97.4375 18 96.875 18Z" fill="#F7654A"/>
</svg>
