<svg width="350" height="250" viewBox="0 0 350 250" fill="none" xmlns="http://www.w3.org/2000/svg">
<rect width="350" height="250" fill="#F7F7F7"/>
<path d="M104.751 154.231C103.505 154.231 102.525 153.986 101.811 153.496C101.111 153.006 100.621 152.341 100.341 151.501C100.061 150.647 99.9211 149.667 99.9211 148.561V142.492C99.9211 141.33 100.061 140.322 100.341 139.468C100.621 138.614 101.111 137.956 101.811 137.494C102.525 137.032 103.505 136.801 104.751 136.801C105.927 136.801 106.844 137.004 107.502 137.41C108.174 137.802 108.65 138.369 108.93 139.111C109.21 139.853 109.35 140.714 109.35 141.694V143.122H106.368V141.652C106.368 141.176 106.34 140.742 106.284 140.35C106.242 139.958 106.109 139.65 105.885 139.426C105.675 139.188 105.304 139.069 104.772 139.069C104.24 139.069 103.848 139.195 103.596 139.447C103.358 139.685 103.204 140.014 103.134 140.434C103.064 140.84 103.029 141.302 103.029 141.82V149.212C103.029 149.828 103.078 150.339 103.176 150.745C103.274 151.137 103.449 151.438 103.701 151.648C103.967 151.844 104.324 151.942 104.772 151.942C105.29 151.942 105.654 151.823 105.864 151.585C106.088 151.333 106.228 151.004 106.284 150.598C106.34 150.192 106.368 149.737 106.368 149.233V147.7H109.35V149.065C109.35 150.073 109.217 150.969 108.951 151.753C108.685 152.523 108.216 153.132 107.544 153.58C106.886 154.014 105.955 154.231 104.751 154.231ZM113.635 154V139.279H110.926V136.99H119.41V139.279H116.743V154H113.635ZM121.377 154V136.99H126.375C127.397 136.99 128.223 137.179 128.853 137.557C129.497 137.935 129.966 138.488 130.26 139.216C130.568 139.93 130.722 140.798 130.722 141.82C130.722 142.926 130.533 143.822 130.155 144.508C129.777 145.18 129.245 145.67 128.559 145.978C127.887 146.286 127.089 146.44 126.165 146.44H124.485V154H121.377ZM124.485 144.256H125.661C126.221 144.256 126.655 144.179 126.963 144.025C127.285 143.857 127.502 143.598 127.614 143.248C127.74 142.884 127.803 142.401 127.803 141.799C127.803 141.183 127.754 140.686 127.656 140.308C127.572 139.916 127.376 139.629 127.068 139.447C126.774 139.265 126.305 139.174 125.661 139.174H124.485V144.256ZM137.492 154.231C136.288 154.231 135.329 154.007 134.615 153.559C133.901 153.111 133.39 152.467 133.082 151.627C132.774 150.787 132.62 149.793 132.62 148.645V142.282C132.62 141.134 132.774 140.154 133.082 139.342C133.39 138.516 133.901 137.886 134.615 137.452C135.329 137.018 136.288 136.801 137.492 136.801C138.724 136.801 139.69 137.018 140.39 137.452C141.104 137.886 141.615 138.516 141.923 139.342C142.245 140.154 142.406 141.134 142.406 142.282V148.666C142.406 149.8 142.245 150.787 141.923 151.627C141.615 152.453 141.104 153.097 140.39 153.559C139.69 154.007 138.724 154.231 137.492 154.231ZM137.492 151.942C138.01 151.942 138.388 151.83 138.626 151.606C138.878 151.382 139.046 151.074 139.13 150.682C139.214 150.29 139.256 149.863 139.256 149.401V141.568C139.256 141.092 139.214 140.665 139.13 140.287C139.046 139.909 138.878 139.615 138.626 139.405C138.388 139.181 138.01 139.069 137.492 139.069C137.002 139.069 136.631 139.181 136.379 139.405C136.127 139.615 135.959 139.909 135.875 140.287C135.791 140.665 135.749 141.092 135.749 141.568V149.401C135.749 149.863 135.784 150.29 135.854 150.682C135.938 151.074 136.106 151.382 136.358 151.606C136.61 151.83 136.988 151.942 137.492 151.942ZM145.167 154V136.99H147.708V147.721L152.37 136.99H154.449V154H151.887V143.101L147.204 154H145.167ZM159.181 154V139.279H156.472V136.99H164.956V139.279H162.289V154H159.181ZM166.924 154V136.99H174.064V139.174H170.032V144.067H173.203V146.23H170.032V151.858H174.106V154H166.924ZM175.15 154V151.774C175.542 151.788 175.871 151.767 176.137 151.711C176.417 151.641 176.648 151.494 176.83 151.27C177.026 151.046 177.187 150.703 177.313 150.241C177.439 149.765 177.544 149.128 177.628 148.33C177.712 147.532 177.803 146.517 177.901 145.285L178.447 136.99H186.721V154H183.634V139.321H181.198L180.82 145.663C180.736 146.909 180.638 148.008 180.526 148.96C180.428 149.912 180.267 150.724 180.043 151.396C179.833 152.054 179.532 152.586 179.14 152.992C178.748 153.398 178.23 153.685 177.586 153.853C176.942 154.007 176.13 154.056 175.15 154ZM189.81 154V136.99H192.897V144.13H193.653C194.801 144.13 195.76 144.291 196.53 144.613C197.3 144.921 197.881 145.439 198.273 146.167C198.665 146.881 198.861 147.847 198.861 149.065C198.861 150.017 198.742 150.815 198.504 151.459C198.266 152.089 197.909 152.593 197.433 152.971C196.971 153.349 196.411 153.615 195.753 153.769C195.095 153.923 194.353 154 193.527 154H189.81ZM192.897 151.9H193.527C194.129 151.9 194.605 151.816 194.955 151.648C195.319 151.48 195.585 151.186 195.753 150.766C195.921 150.332 196.005 149.744 196.005 149.002C195.991 148.12 195.809 147.448 195.459 146.986C195.123 146.524 194.465 146.293 193.485 146.293H192.897V151.9ZM205.82 154.231C204.574 154.231 203.594 153.986 202.88 153.496C202.18 153.006 201.69 152.341 201.41 151.501C201.13 150.647 200.99 149.667 200.99 148.561V142.492C200.99 141.33 201.13 140.322 201.41 139.468C201.69 138.614 202.18 137.956 202.88 137.494C203.594 137.032 204.574 136.801 205.82 136.801C206.996 136.801 207.913 137.004 208.571 137.41C209.243 137.802 209.719 138.369 209.999 139.111C210.279 139.853 210.419 140.714 210.419 141.694V143.122H207.437V141.652C207.437 141.176 207.409 140.742 207.353 140.35C207.311 139.958 207.178 139.65 206.954 139.426C206.744 139.188 206.373 139.069 205.841 139.069C205.309 139.069 204.917 139.195 204.665 139.447C204.427 139.685 204.273 140.014 204.203 140.434C204.133 140.84 204.098 141.302 204.098 141.82V149.212C204.098 149.828 204.147 150.339 204.245 150.745C204.343 151.137 204.518 151.438 204.77 151.648C205.036 151.844 205.393 151.942 205.841 151.942C206.359 151.942 206.723 151.823 206.933 151.585C207.157 151.333 207.297 151.004 207.353 150.598C207.409 150.192 207.437 149.737 207.437 149.233V147.7H210.419V149.065C210.419 150.073 210.286 150.969 210.02 151.753C209.754 152.523 209.285 153.132 208.613 153.58C207.955 154.014 207.024 154.231 205.82 154.231ZM214.704 154V139.279H211.995V136.99H220.479V139.279H217.812V154H214.704ZM222.446 154V136.99H226.625C227.381 136.99 228.06 137.06 228.662 137.2C229.278 137.34 229.803 137.578 230.237 137.914C230.685 138.236 231.028 138.677 231.266 139.237C231.504 139.797 231.623 140.504 231.623 141.358C231.623 142.044 231.525 142.632 231.329 143.122C231.147 143.612 230.874 144.004 230.51 144.298C230.146 144.578 229.691 144.767 229.145 144.865C229.817 144.977 230.37 145.215 230.804 145.579C231.252 145.929 231.581 146.391 231.791 146.965C232.015 147.539 232.127 148.232 232.127 149.044C232.127 149.856 232.022 150.577 231.812 151.207C231.616 151.823 231.315 152.341 230.909 152.761C230.517 153.167 230.02 153.475 229.418 153.685C228.83 153.895 228.137 154 227.339 154H222.446ZM225.554 151.816H226.73C227.668 151.816 228.305 151.592 228.641 151.144C228.977 150.682 229.145 149.975 229.145 149.023C229.145 148.337 229.061 147.784 228.893 147.364C228.739 146.93 228.473 146.608 228.095 146.398C227.731 146.188 227.241 146.083 226.625 146.083H225.554V151.816ZM225.554 143.941H226.604C227.22 143.941 227.696 143.85 228.032 143.668C228.368 143.486 228.599 143.206 228.725 142.828C228.865 142.45 228.935 141.974 228.935 141.4C228.935 140.798 228.83 140.336 228.62 140.014C228.424 139.678 228.123 139.454 227.717 139.342C227.311 139.216 226.793 139.153 226.163 139.153H225.554V143.941ZM239.176 154.231C237.972 154.231 237.013 154.007 236.299 153.559C235.585 153.111 235.074 152.467 234.766 151.627C234.458 150.787 234.304 149.793 234.304 148.645V142.282C234.304 141.134 234.458 140.154 234.766 139.342C235.074 138.516 235.585 137.886 236.299 137.452C237.013 137.018 237.972 136.801 239.176 136.801C240.408 136.801 241.374 137.018 242.074 137.452C242.788 137.886 243.299 138.516 243.607 139.342C243.929 140.154 244.09 141.134 244.09 142.282V148.666C244.09 149.8 243.929 150.787 243.607 151.627C243.299 152.453 242.788 153.097 242.074 153.559C241.374 154.007 240.408 154.231 239.176 154.231ZM239.176 151.942C239.694 151.942 240.072 151.83 240.31 151.606C240.562 151.382 240.73 151.074 240.814 150.682C240.898 150.29 240.94 149.863 240.94 149.401V141.568C240.94 141.092 240.898 140.665 240.814 140.287C240.73 139.909 240.562 139.615 240.31 139.405C240.072 139.181 239.694 139.069 239.176 139.069C238.686 139.069 238.315 139.181 238.063 139.405C237.811 139.615 237.643 139.909 237.559 140.287C237.475 140.665 237.433 141.092 237.433 141.568V149.401C237.433 149.863 237.468 150.29 237.538 150.682C237.622 151.074 237.79 151.382 238.042 151.606C238.294 151.83 238.672 151.942 239.176 151.942ZM92.1861 185.231C90.9821 185.231 90.0231 185.007 89.3091 184.559C88.5951 184.111 88.0841 183.467 87.7761 182.627C87.4681 181.787 87.3141 180.793 87.3141 179.645V173.282C87.3141 172.134 87.4681 171.154 87.7761 170.342C88.0841 169.516 88.5951 168.886 89.3091 168.452C90.0231 168.018 90.9821 167.801 92.1861 167.801C93.4181 167.801 94.3841 168.018 95.0841 168.452C95.7981 168.886 96.3091 169.516 96.6171 170.342C96.9391 171.154 97.1001 172.134 97.1001 173.282V179.666C97.1001 180.8 96.9391 181.787 96.6171 182.627C96.3091 183.453 95.7981 184.097 95.0841 184.559C94.3841 185.007 93.4181 185.231 92.1861 185.231ZM92.1861 182.942C92.7041 182.942 93.0821 182.83 93.3201 182.606C93.5721 182.382 93.7401 182.074 93.8241 181.682C93.9081 181.29 93.9501 180.863 93.9501 180.401V172.568C93.9501 172.092 93.9081 171.665 93.8241 171.287C93.7401 170.909 93.5721 170.615 93.3201 170.405C93.0821 170.181 92.7041 170.069 92.1861 170.069C91.6961 170.069 91.3251 170.181 91.0731 170.405C90.8211 170.615 90.6531 170.909 90.5691 171.287C90.4851 171.665 90.4431 172.092 90.4431 172.568V180.401C90.4431 180.863 90.4781 181.29 90.5481 181.682C90.6321 182.074 90.8001 182.382 91.0521 182.606C91.3041 182.83 91.6821 182.942 92.1861 182.942ZM104.649 185.672V182.984C104.495 182.998 104.327 183.012 104.145 183.026C103.963 183.04 103.788 183.047 103.62 183.047C102.808 183.047 102.094 182.9 101.478 182.606C100.862 182.312 100.379 181.85 100.029 181.22C99.6931 180.576 99.5251 179.743 99.5251 178.721V174.017C99.5251 173.051 99.6931 172.246 100.029 171.602C100.379 170.958 100.862 170.475 101.478 170.153C102.108 169.831 102.843 169.67 103.683 169.67C103.851 169.67 104.026 169.677 104.208 169.691C104.39 169.691 104.537 169.698 104.649 169.712V166.73H107.358V169.712C107.484 169.698 107.631 169.691 107.799 169.691C107.981 169.677 108.149 169.67 108.303 169.67C109.171 169.67 109.913 169.831 110.529 170.153C111.159 170.475 111.642 170.965 111.978 171.623C112.328 172.267 112.503 173.065 112.503 174.017V178.721C112.503 179.743 112.335 180.576 111.999 181.22C111.663 181.85 111.208 182.319 110.634 182.627C110.074 182.921 109.444 183.068 108.744 183.068C108.52 183.068 108.289 183.061 108.051 183.047C107.827 183.033 107.596 183.019 107.358 183.005V185.672H104.649ZM104.145 181.157C104.229 181.157 104.32 181.157 104.418 181.157C104.516 181.143 104.593 181.129 104.649 181.115V171.56C104.551 171.546 104.446 171.539 104.334 171.539C104.236 171.525 104.138 171.518 104.04 171.518C103.634 171.518 103.298 171.602 103.032 171.77C102.78 171.938 102.591 172.204 102.465 172.568C102.339 172.932 102.276 173.408 102.276 173.996V178.742C102.276 179.316 102.325 179.778 102.423 180.128C102.535 180.478 102.724 180.737 102.99 180.905C103.256 181.073 103.641 181.157 104.145 181.157ZM107.946 181.136C108.408 181.136 108.765 181.059 109.017 180.905C109.283 180.751 109.465 180.499 109.563 180.149C109.675 179.785 109.731 179.316 109.731 178.742V173.996C109.731 173.394 109.675 172.911 109.563 172.547C109.451 172.183 109.269 171.924 109.017 171.77C108.779 171.602 108.443 171.518 108.009 171.518C107.897 171.518 107.785 171.525 107.673 171.539C107.561 171.539 107.456 171.546 107.358 171.56V181.094C107.442 181.108 107.533 181.122 107.631 181.136C107.743 181.136 107.848 181.136 107.946 181.136ZM115.231 185V167.99H117.772V178.721L122.434 167.99H124.513V185H121.951V174.101L117.268 185H115.231ZM132.123 185.231C130.877 185.231 129.897 184.986 129.183 184.496C128.483 184.006 127.993 183.341 127.713 182.501C127.433 181.647 127.293 180.667 127.293 179.561V173.492C127.293 172.33 127.433 171.322 127.713 170.468C127.993 169.614 128.483 168.956 129.183 168.494C129.897 168.032 130.877 167.801 132.123 167.801C133.299 167.801 134.216 168.004 134.874 168.41C135.546 168.802 136.022 169.369 136.302 170.111C136.582 170.853 136.722 171.714 136.722 172.694V174.122H133.74V172.652C133.74 172.176 133.712 171.742 133.656 171.35C133.614 170.958 133.481 170.65 133.257 170.426C133.047 170.188 132.676 170.069 132.144 170.069C131.612 170.069 131.22 170.195 130.968 170.447C130.73 170.685 130.576 171.014 130.506 171.434C130.436 171.84 130.401 172.302 130.401 172.82V180.212C130.401 180.828 130.45 181.339 130.548 181.745C130.646 182.137 130.821 182.438 131.073 182.648C131.339 182.844 131.696 182.942 132.144 182.942C132.662 182.942 133.026 182.823 133.236 182.585C133.46 182.333 133.6 182.004 133.656 181.598C133.712 181.192 133.74 180.737 133.74 180.233V178.7H136.722V180.065C136.722 181.073 136.589 181.969 136.323 182.753C136.057 183.523 135.588 184.132 134.916 184.58C134.258 185.014 133.327 185.231 132.123 185.231ZM139.348 185V167.99H142.435V175.109H145.9V167.99H149.008V185H145.9V177.314H142.435V185H139.348ZM152.072 185V167.99H155.159V175.13H155.915C157.077 175.13 158.043 175.291 158.813 175.613C159.583 175.921 160.164 176.439 160.556 177.167C160.948 177.881 161.144 178.847 161.144 180.065C161.144 181.017 161.018 181.815 160.766 182.459C160.528 183.089 160.178 183.593 159.716 183.971C159.254 184.349 158.694 184.615 158.036 184.769C157.378 184.923 156.629 185 155.789 185H152.072ZM155.159 182.9H155.81C156.398 182.9 156.874 182.816 157.238 182.648C157.602 182.48 157.868 182.186 158.036 181.766C158.204 181.332 158.281 180.744 158.267 180.002C158.267 179.12 158.092 178.448 157.742 177.986C157.392 177.524 156.734 177.293 155.768 177.293H155.159V182.9ZM162.74 185V167.99H165.827V185H162.74ZM167.786 185L171.209 175.97L167.891 167.99H170.789L172.994 173.261L174.926 167.99H177.614L174.338 176.558L177.866 185H174.968L172.553 179.288L170.453 185H167.786ZM189.315 185.252C188.265 185.252 187.411 185.056 186.753 184.664C186.109 184.258 185.64 183.691 185.346 182.963C185.052 182.221 184.905 181.36 184.905 180.38V179.792H187.803C187.803 179.862 187.803 179.96 187.803 180.086C187.803 180.198 187.803 180.31 187.803 180.422C187.817 181.206 187.929 181.801 188.139 182.207C188.349 182.613 188.755 182.816 189.357 182.816C189.791 182.816 190.113 182.711 190.323 182.501C190.547 182.291 190.694 181.99 190.764 181.598C190.848 181.192 190.89 180.709 190.89 180.149C190.89 179.281 190.729 178.595 190.407 178.091C190.099 177.573 189.476 177.293 188.538 177.251C188.496 177.237 188.426 177.23 188.328 177.23C188.244 177.23 188.146 177.23 188.034 177.23C187.922 177.23 187.817 177.23 187.719 177.23V175.172C187.803 175.172 187.887 175.172 187.971 175.172C188.055 175.172 188.139 175.172 188.223 175.172C188.321 175.172 188.398 175.172 188.454 175.172C189.406 175.13 190.05 174.878 190.386 174.416C190.722 173.954 190.89 173.282 190.89 172.4C190.89 171.686 190.764 171.126 190.512 170.72C190.274 170.314 189.84 170.111 189.21 170.111C188.622 170.111 188.202 170.321 187.95 170.741C187.712 171.161 187.572 171.714 187.53 172.4C187.53 172.456 187.53 172.561 187.53 172.715C187.53 172.855 187.53 173.002 187.53 173.156H184.632V172.337C184.632 171.371 184.814 170.552 185.178 169.88C185.542 169.194 186.06 168.676 186.732 168.326C187.418 167.962 188.237 167.78 189.189 167.78C190.155 167.78 190.974 167.962 191.646 168.326C192.332 168.676 192.857 169.187 193.221 169.859C193.585 170.517 193.767 171.329 193.767 172.295C193.767 173.303 193.55 174.136 193.116 174.794C192.696 175.452 192.164 175.872 191.52 176.054C191.954 176.222 192.339 176.474 192.675 176.81C193.025 177.132 193.291 177.566 193.473 178.112C193.669 178.644 193.767 179.309 193.767 180.107C193.767 181.129 193.62 182.032 193.326 182.816C193.032 183.586 192.556 184.188 191.898 184.622C191.254 185.042 190.393 185.252 189.315 185.252ZM195.319 188.381V182.795H195.928C196.208 182.641 196.474 182.438 196.726 182.186C196.992 181.92 197.23 181.57 197.44 181.136C197.65 180.702 197.839 180.149 198.007 179.477C198.189 178.791 198.343 177.958 198.469 176.978C198.609 175.998 198.714 174.836 198.784 173.492L199.162 167.99H206.68V182.795H208.465V188.381H206.302L206.113 185H197.734L197.524 188.381H195.319ZM198.826 182.795H203.74V170.216H201.598L201.409 173.975C201.353 175.319 201.262 176.46 201.136 177.398C201.01 178.322 200.863 179.092 200.695 179.708C200.527 180.31 200.338 180.8 200.128 181.178C199.932 181.556 199.722 181.864 199.498 182.102C199.274 182.34 199.05 182.571 198.826 182.795ZM209.727 185L213.129 167.99H216.447L219.849 185H216.972L216.3 181.073H213.339L212.646 185H209.727ZM213.654 179.099H215.964L214.809 171.959L213.654 179.099ZM222.022 185V167.99H225.109V175.109H228.574V167.99H231.682V185H228.574V177.314H225.109V185H222.022ZM234.747 185V167.99H237.288V178.721L241.95 167.99H244.029V185H241.467V174.101L236.784 185H234.747ZM247.102 185V167.99H249.643V178.721L254.305 167.99H256.384V185H253.822V174.101L249.139 185H247.102ZM251.995 166.646C250.987 166.646 250.224 166.373 249.706 165.827C249.202 165.267 248.95 164.518 248.95 163.58H250.588C250.588 164.084 250.693 164.469 250.903 164.735C251.113 165.001 251.477 165.134 251.995 165.134C252.499 165.134 252.856 165.001 253.066 164.735C253.276 164.455 253.381 164.07 253.381 163.58H255.019C255.019 164.518 254.76 165.267 254.242 165.827C253.738 166.373 252.989 166.646 251.995 166.646Z" fill="black"/>
<path d="M167.875 94H164.125C163.469 94 163 94.5625 163 95.125V98.875C163 99.5312 163.469 100 164.125 100H167.875C168.438 100 169 99.5312 169 98.875V95.125C169 94.5625 168.438 94 167.875 94ZM167.875 76H164.125C163.469 76 163 76.5625 163 77.125V80.875C163 81.5312 163.469 82 164.125 82H167.875C168.438 82 169 81.5312 169 80.875V77.125C169 76.5625 168.438 76 167.875 76ZM158.875 76H155.125C154.469 76 154 76.5625 154 77.125V80.875C154 81.5312 154.469 82 155.125 82H158.875C159.438 82 160 81.5312 160 80.875V77.125C160 76.5625 159.438 76 158.875 76ZM158.875 94H155.125C154.469 94 154 94.5625 154 95.125V98.875C154 99.5312 154.469 100 155.125 100H158.875C159.438 100 160 99.5312 160 98.875V95.125C160 94.5625 159.438 94 158.875 94ZM158.875 85H155.125C154.469 85 154 85.5625 154 86.125V89.875C154 90.5312 154.469 91 155.125 91H158.875C159.438 91 160 90.5312 160 89.875V86.125C160 85.5625 159.438 85 158.875 85ZM167.875 85H164.125C163.469 85 163 85.5625 163 86.125V89.875C163 90.5312 163.469 91 164.125 91H167.875C168.438 91 169 90.5312 169 89.875V86.125C169 85.5625 168.438 85 167.875 85ZM194.875 94H191.125C190.469 94 190 94.5625 190 95.125V98.875C190 99.5312 190.469 100 191.125 100H194.875C195.438 100 196 99.5312 196 98.875V95.125C196 94.5625 195.438 94 194.875 94ZM194.875 85H191.125C190.469 85 190 85.5625 190 86.125V89.875C190 90.5312 190.469 91 191.125 91H194.875C195.438 91 196 90.5312 196 89.875V86.125C196 85.5625 195.438 85 194.875 85ZM202.75 76H193V60.25C193 59.0312 191.969 58 190.75 58H171.25C169.938 58 169 59.0312 169 60.25V67H166V59.5C166 58.75 165.25 58 164.5 58H163C162.156 58 161.5 58.75 161.5 59.5V67H155.5V59.5C155.5 58.75 154.75 58 154 58H152.5C151.656 58 151 58.75 151 59.5V67H147.25C145.938 67 145 68.0312 145 69.25V104.5C145 105.344 145.656 106 146.5 106H148C148.75 106 149.5 105.344 149.5 104.5V71.5H173.5V62.5H188.5V80.5H200.5V104.5C200.5 105.344 201.156 106 202 106H203.5C204.25 106 205 105.344 205 104.5V78.25C205 77.0312 203.969 76 202.75 76ZM182.875 67H179.125C178.469 67 178 67.5625 178 68.125V71.875C178 72.5312 178.469 73 179.125 73H182.875C183.438 73 184 72.5312 184 71.875V68.125C184 67.5625 183.438 67 182.875 67ZM182.875 85H179.125C178.469 85 178 85.5625 178 86.125V89.875C178 90.5312 178.469 91 179.125 91H182.875C183.438 91 184 90.5312 184 89.875V86.125C184 85.5625 183.438 85 182.875 85ZM182.875 76H179.125C178.469 76 178 76.5625 178 77.125V80.875C178 81.5312 178.469 82 179.125 82H182.875C183.438 82 184 81.5312 184 80.875V77.125C184 76.5625 183.438 76 182.875 76Z" fill="#F7654A"/>
</svg>
