<svg width="350" height="250" viewBox="0 0 350 250" fill="none" xmlns="http://www.w3.org/2000/svg">
<rect width="350" height="250" fill="#F7F7F7"/>
<path d="M107.751 117.231C106.505 117.231 105.525 116.986 104.811 116.496C104.111 116.006 103.621 115.341 103.341 114.501C103.061 113.647 102.921 112.667 102.921 111.561V105.492C102.921 104.33 103.061 103.322 103.341 102.468C103.621 101.614 104.111 100.956 104.811 100.494C105.525 100.032 106.505 99.801 107.751 99.801C108.927 99.801 109.844 100.004 110.502 100.41C111.174 100.802 111.65 101.369 111.93 102.111C112.21 102.853 112.35 103.714 112.35 104.694V106.122H109.368V104.652C109.368 104.176 109.34 103.742 109.284 103.35C109.242 102.958 109.109 102.65 108.885 102.426C108.675 102.188 108.304 102.069 107.772 102.069C107.24 102.069 106.848 102.195 106.596 102.447C106.358 102.685 106.204 103.014 106.134 103.434C106.064 103.84 106.029 104.302 106.029 104.82V112.212C106.029 112.828 106.078 113.339 106.176 113.745C106.274 114.137 106.449 114.438 106.701 114.648C106.967 114.844 107.324 114.942 107.772 114.942C108.29 114.942 108.654 114.823 108.864 114.585C109.088 114.333 109.228 114.004 109.284 113.598C109.34 113.192 109.368 112.737 109.368 112.233V110.7H112.35V112.065C112.35 113.073 112.217 113.969 111.951 114.753C111.685 115.523 111.216 116.132 110.544 116.58C109.886 117.014 108.955 117.231 107.751 117.231ZM116.635 117V102.279H113.926V99.99H122.41V102.279H119.743V117H116.635ZM124.377 117V99.99H129.375C130.397 99.99 131.223 100.179 131.853 100.557C132.497 100.935 132.966 101.488 133.26 102.216C133.568 102.93 133.722 103.798 133.722 104.82C133.722 105.926 133.533 106.822 133.155 107.508C132.777 108.18 132.245 108.67 131.559 108.978C130.887 109.286 130.089 109.44 129.165 109.44H127.485V117H124.377ZM127.485 107.256H128.661C129.221 107.256 129.655 107.179 129.963 107.025C130.285 106.857 130.502 106.598 130.614 106.248C130.74 105.884 130.803 105.401 130.803 104.799C130.803 104.183 130.754 103.686 130.656 103.308C130.572 102.916 130.376 102.629 130.068 102.447C129.774 102.265 129.305 102.174 128.661 102.174H127.485V107.256ZM140.492 117.231C139.288 117.231 138.329 117.007 137.615 116.559C136.901 116.111 136.39 115.467 136.082 114.627C135.774 113.787 135.62 112.793 135.62 111.645V105.282C135.62 104.134 135.774 103.154 136.082 102.342C136.39 101.516 136.901 100.886 137.615 100.452C138.329 100.018 139.288 99.801 140.492 99.801C141.724 99.801 142.69 100.018 143.39 100.452C144.104 100.886 144.615 101.516 144.923 102.342C145.245 103.154 145.406 104.134 145.406 105.282V111.666C145.406 112.8 145.245 113.787 144.923 114.627C144.615 115.453 144.104 116.097 143.39 116.559C142.69 117.007 141.724 117.231 140.492 117.231ZM140.492 114.942C141.01 114.942 141.388 114.83 141.626 114.606C141.878 114.382 142.046 114.074 142.13 113.682C142.214 113.29 142.256 112.863 142.256 112.401V104.568C142.256 104.092 142.214 103.665 142.13 103.287C142.046 102.909 141.878 102.615 141.626 102.405C141.388 102.181 141.01 102.069 140.492 102.069C140.002 102.069 139.631 102.181 139.379 102.405C139.127 102.615 138.959 102.909 138.875 103.287C138.791 103.665 138.749 104.092 138.749 104.568V112.401C138.749 112.863 138.784 113.29 138.854 113.682C138.938 114.074 139.106 114.382 139.358 114.606C139.61 114.83 139.988 114.942 140.492 114.942ZM148.167 117V99.99H150.708V110.721L155.37 99.99H157.449V117H154.887V106.101L150.204 117H148.167ZM162.181 117V102.279H159.472V99.99H167.956V102.279H165.289V117H162.181ZM169.924 117V99.99H177.064V102.174H173.032V107.067H176.203V109.23H173.032V114.858H177.106V117H169.924ZM178.15 117V114.774C178.542 114.788 178.871 114.767 179.137 114.711C179.417 114.641 179.648 114.494 179.83 114.27C180.026 114.046 180.187 113.703 180.313 113.241C180.439 112.765 180.544 112.128 180.628 111.33C180.712 110.532 180.803 109.517 180.901 108.285L181.447 99.99H189.721V117H186.634V102.321H184.198L183.82 108.663C183.736 109.909 183.638 111.008 183.526 111.96C183.428 112.912 183.267 113.724 183.043 114.396C182.833 115.054 182.532 115.586 182.14 115.992C181.748 116.398 181.23 116.685 180.586 116.853C179.942 117.007 179.13 117.056 178.15 117ZM192.81 117V99.99H195.897V107.13H196.653C197.801 107.13 198.76 107.291 199.53 107.613C200.3 107.921 200.881 108.439 201.273 109.167C201.665 109.881 201.861 110.847 201.861 112.065C201.861 113.017 201.742 113.815 201.504 114.459C201.266 115.089 200.909 115.593 200.433 115.971C199.971 116.349 199.411 116.615 198.753 116.769C198.095 116.923 197.353 117 196.527 117H192.81ZM195.897 114.9H196.527C197.129 114.9 197.605 114.816 197.955 114.648C198.319 114.48 198.585 114.186 198.753 113.766C198.921 113.332 199.005 112.744 199.005 112.002C198.991 111.12 198.809 110.448 198.459 109.986C198.123 109.524 197.465 109.293 196.485 109.293H195.897V114.9ZM208.82 117.231C207.574 117.231 206.594 116.986 205.88 116.496C205.18 116.006 204.69 115.341 204.41 114.501C204.13 113.647 203.99 112.667 203.99 111.561V105.492C203.99 104.33 204.13 103.322 204.41 102.468C204.69 101.614 205.18 100.956 205.88 100.494C206.594 100.032 207.574 99.801 208.82 99.801C209.996 99.801 210.913 100.004 211.571 100.41C212.243 100.802 212.719 101.369 212.999 102.111C213.279 102.853 213.419 103.714 213.419 104.694V106.122H210.437V104.652C210.437 104.176 210.409 103.742 210.353 103.35C210.311 102.958 210.178 102.65 209.954 102.426C209.744 102.188 209.373 102.069 208.841 102.069C208.309 102.069 207.917 102.195 207.665 102.447C207.427 102.685 207.273 103.014 207.203 103.434C207.133 103.84 207.098 104.302 207.098 104.82V112.212C207.098 112.828 207.147 113.339 207.245 113.745C207.343 114.137 207.518 114.438 207.77 114.648C208.036 114.844 208.393 114.942 208.841 114.942C209.359 114.942 209.723 114.823 209.933 114.585C210.157 114.333 210.297 114.004 210.353 113.598C210.409 113.192 210.437 112.737 210.437 112.233V110.7H213.419V112.065C213.419 113.073 213.286 113.969 213.02 114.753C212.754 115.523 212.285 116.132 211.613 116.58C210.955 117.014 210.024 117.231 208.82 117.231ZM217.704 117V102.279H214.995V99.99H223.479V102.279H220.812V117H217.704ZM225.446 117V99.99H229.625C230.381 99.99 231.06 100.06 231.662 100.2C232.278 100.34 232.803 100.578 233.237 100.914C233.685 101.236 234.028 101.677 234.266 102.237C234.504 102.797 234.623 103.504 234.623 104.358C234.623 105.044 234.525 105.632 234.329 106.122C234.147 106.612 233.874 107.004 233.51 107.298C233.146 107.578 232.691 107.767 232.145 107.865C232.817 107.977 233.37 108.215 233.804 108.579C234.252 108.929 234.581 109.391 234.791 109.965C235.015 110.539 235.127 111.232 235.127 112.044C235.127 112.856 235.022 113.577 234.812 114.207C234.616 114.823 234.315 115.341 233.909 115.761C233.517 116.167 233.02 116.475 232.418 116.685C231.83 116.895 231.137 117 230.339 117H225.446ZM228.554 114.816H229.73C230.668 114.816 231.305 114.592 231.641 114.144C231.977 113.682 232.145 112.975 232.145 112.023C232.145 111.337 232.061 110.784 231.893 110.364C231.739 109.93 231.473 109.608 231.095 109.398C230.731 109.188 230.241 109.083 229.625 109.083H228.554V114.816ZM228.554 106.941H229.604C230.22 106.941 230.696 106.85 231.032 106.668C231.368 106.486 231.599 106.206 231.725 105.828C231.865 105.45 231.935 104.974 231.935 104.4C231.935 103.798 231.83 103.336 231.62 103.014C231.424 102.678 231.123 102.454 230.717 102.342C230.311 102.216 229.793 102.153 229.163 102.153H228.554V106.941ZM242.176 117.231C240.972 117.231 240.013 117.007 239.299 116.559C238.585 116.111 238.074 115.467 237.766 114.627C237.458 113.787 237.304 112.793 237.304 111.645V105.282C237.304 104.134 237.458 103.154 237.766 102.342C238.074 101.516 238.585 100.886 239.299 100.452C240.013 100.018 240.972 99.801 242.176 99.801C243.408 99.801 244.374 100.018 245.074 100.452C245.788 100.886 246.299 101.516 246.607 102.342C246.929 103.154 247.09 104.134 247.09 105.282V111.666C247.09 112.8 246.929 113.787 246.607 114.627C246.299 115.453 245.788 116.097 245.074 116.559C244.374 117.007 243.408 117.231 242.176 117.231ZM242.176 114.942C242.694 114.942 243.072 114.83 243.31 114.606C243.562 114.382 243.73 114.074 243.814 113.682C243.898 113.29 243.94 112.863 243.94 112.401V104.568C243.94 104.092 243.898 103.665 243.814 103.287C243.73 102.909 243.562 102.615 243.31 102.405C243.072 102.181 242.694 102.069 242.176 102.069C241.686 102.069 241.315 102.181 241.063 102.405C240.811 102.615 240.643 102.909 240.559 103.287C240.475 103.665 240.433 104.092 240.433 104.568V112.401C240.433 112.863 240.468 113.29 240.538 113.682C240.622 114.074 240.79 114.382 241.042 114.606C241.294 114.83 241.672 114.942 242.176 114.942ZM95.1861 148.231C93.9821 148.231 93.0231 148.007 92.3091 147.559C91.5951 147.111 91.0841 146.467 90.7761 145.627C90.4681 144.787 90.3141 143.793 90.3141 142.645V136.282C90.3141 135.134 90.4681 134.154 90.7761 133.342C91.0841 132.516 91.5951 131.886 92.3091 131.452C93.0231 131.018 93.9821 130.801 95.1861 130.801C96.4181 130.801 97.3841 131.018 98.0841 131.452C98.7981 131.886 99.3091 132.516 99.6171 133.342C99.9391 134.154 100.1 135.134 100.1 136.282V142.666C100.1 143.8 99.9391 144.787 99.6171 145.627C99.3091 146.453 98.7981 147.097 98.0841 147.559C97.3841 148.007 96.4181 148.231 95.1861 148.231ZM95.1861 145.942C95.7041 145.942 96.0821 145.83 96.3201 145.606C96.5721 145.382 96.7401 145.074 96.8241 144.682C96.9081 144.29 96.9501 143.863 96.9501 143.401V135.568C96.9501 135.092 96.9081 134.665 96.8241 134.287C96.7401 133.909 96.5721 133.615 96.3201 133.405C96.0821 133.181 95.7041 133.069 95.1861 133.069C94.6961 133.069 94.3251 133.181 94.0731 133.405C93.8211 133.615 93.6531 133.909 93.5691 134.287C93.4851 134.665 93.4431 135.092 93.4431 135.568V143.401C93.4431 143.863 93.4781 144.29 93.5481 144.682C93.6321 145.074 93.8001 145.382 94.0521 145.606C94.3041 145.83 94.6821 145.942 95.1861 145.942ZM107.649 148.672V145.984C107.495 145.998 107.327 146.012 107.145 146.026C106.963 146.04 106.788 146.047 106.62 146.047C105.808 146.047 105.094 145.9 104.478 145.606C103.862 145.312 103.379 144.85 103.029 144.22C102.693 143.576 102.525 142.743 102.525 141.721V137.017C102.525 136.051 102.693 135.246 103.029 134.602C103.379 133.958 103.862 133.475 104.478 133.153C105.108 132.831 105.843 132.67 106.683 132.67C106.851 132.67 107.026 132.677 107.208 132.691C107.39 132.691 107.537 132.698 107.649 132.712V129.73H110.358V132.712C110.484 132.698 110.631 132.691 110.799 132.691C110.981 132.677 111.149 132.67 111.303 132.67C112.171 132.67 112.913 132.831 113.529 133.153C114.159 133.475 114.642 133.965 114.978 134.623C115.328 135.267 115.503 136.065 115.503 137.017V141.721C115.503 142.743 115.335 143.576 114.999 144.22C114.663 144.85 114.208 145.319 113.634 145.627C113.074 145.921 112.444 146.068 111.744 146.068C111.52 146.068 111.289 146.061 111.051 146.047C110.827 146.033 110.596 146.019 110.358 146.005V148.672H107.649ZM107.145 144.157C107.229 144.157 107.32 144.157 107.418 144.157C107.516 144.143 107.593 144.129 107.649 144.115V134.56C107.551 134.546 107.446 134.539 107.334 134.539C107.236 134.525 107.138 134.518 107.04 134.518C106.634 134.518 106.298 134.602 106.032 134.77C105.78 134.938 105.591 135.204 105.465 135.568C105.339 135.932 105.276 136.408 105.276 136.996V141.742C105.276 142.316 105.325 142.778 105.423 143.128C105.535 143.478 105.724 143.737 105.99 143.905C106.256 144.073 106.641 144.157 107.145 144.157ZM110.946 144.136C111.408 144.136 111.765 144.059 112.017 143.905C112.283 143.751 112.465 143.499 112.563 143.149C112.675 142.785 112.731 142.316 112.731 141.742V136.996C112.731 136.394 112.675 135.911 112.563 135.547C112.451 135.183 112.269 134.924 112.017 134.77C111.779 134.602 111.443 134.518 111.009 134.518C110.897 134.518 110.785 134.525 110.673 134.539C110.561 134.539 110.456 134.546 110.358 134.56V144.094C110.442 144.108 110.533 144.122 110.631 144.136C110.743 144.136 110.848 144.136 110.946 144.136ZM118.231 148V130.99H120.772V141.721L125.434 130.99H127.513V148H124.951V137.101L120.268 148H118.231ZM135.123 148.231C133.877 148.231 132.897 147.986 132.183 147.496C131.483 147.006 130.993 146.341 130.713 145.501C130.433 144.647 130.293 143.667 130.293 142.561V136.492C130.293 135.33 130.433 134.322 130.713 133.468C130.993 132.614 131.483 131.956 132.183 131.494C132.897 131.032 133.877 130.801 135.123 130.801C136.299 130.801 137.216 131.004 137.874 131.41C138.546 131.802 139.022 132.369 139.302 133.111C139.582 133.853 139.722 134.714 139.722 135.694V137.122H136.74V135.652C136.74 135.176 136.712 134.742 136.656 134.35C136.614 133.958 136.481 133.65 136.257 133.426C136.047 133.188 135.676 133.069 135.144 133.069C134.612 133.069 134.22 133.195 133.968 133.447C133.73 133.685 133.576 134.014 133.506 134.434C133.436 134.84 133.401 135.302 133.401 135.82V143.212C133.401 143.828 133.45 144.339 133.548 144.745C133.646 145.137 133.821 145.438 134.073 145.648C134.339 145.844 134.696 145.942 135.144 145.942C135.662 145.942 136.026 145.823 136.236 145.585C136.46 145.333 136.6 145.004 136.656 144.598C136.712 144.192 136.74 143.737 136.74 143.233V141.7H139.722V143.065C139.722 144.073 139.589 144.969 139.323 145.753C139.057 146.523 138.588 147.132 137.916 147.58C137.258 148.014 136.327 148.231 135.123 148.231ZM142.348 148V130.99H145.435V138.109H148.9V130.99H152.008V148H148.9V140.314H145.435V148H142.348ZM155.072 148V130.99H158.159V138.13H158.915C160.077 138.13 161.043 138.291 161.813 138.613C162.583 138.921 163.164 139.439 163.556 140.167C163.948 140.881 164.144 141.847 164.144 143.065C164.144 144.017 164.018 144.815 163.766 145.459C163.528 146.089 163.178 146.593 162.716 146.971C162.254 147.349 161.694 147.615 161.036 147.769C160.378 147.923 159.629 148 158.789 148H155.072ZM158.159 145.9H158.81C159.398 145.9 159.874 145.816 160.238 145.648C160.602 145.48 160.868 145.186 161.036 144.766C161.204 144.332 161.281 143.744 161.267 143.002C161.267 142.12 161.092 141.448 160.742 140.986C160.392 140.524 159.734 140.293 158.768 140.293H158.159V145.9ZM165.74 148V130.99H168.827V148H165.74ZM170.786 148L174.209 138.97L170.891 130.99H173.789L175.994 136.261L177.926 130.99H180.614L177.338 139.558L180.866 148H177.968L175.553 142.288L173.453 148H170.786ZM192.315 148.252C191.265 148.252 190.411 148.056 189.753 147.664C189.109 147.258 188.64 146.691 188.346 145.963C188.052 145.221 187.905 144.36 187.905 143.38V142.792H190.803C190.803 142.862 190.803 142.96 190.803 143.086C190.803 143.198 190.803 143.31 190.803 143.422C190.817 144.206 190.929 144.801 191.139 145.207C191.349 145.613 191.755 145.816 192.357 145.816C192.791 145.816 193.113 145.711 193.323 145.501C193.547 145.291 193.694 144.99 193.764 144.598C193.848 144.192 193.89 143.709 193.89 143.149C193.89 142.281 193.729 141.595 193.407 141.091C193.099 140.573 192.476 140.293 191.538 140.251C191.496 140.237 191.426 140.23 191.328 140.23C191.244 140.23 191.146 140.23 191.034 140.23C190.922 140.23 190.817 140.23 190.719 140.23V138.172C190.803 138.172 190.887 138.172 190.971 138.172C191.055 138.172 191.139 138.172 191.223 138.172C191.321 138.172 191.398 138.172 191.454 138.172C192.406 138.13 193.05 137.878 193.386 137.416C193.722 136.954 193.89 136.282 193.89 135.4C193.89 134.686 193.764 134.126 193.512 133.72C193.274 133.314 192.84 133.111 192.21 133.111C191.622 133.111 191.202 133.321 190.95 133.741C190.712 134.161 190.572 134.714 190.53 135.4C190.53 135.456 190.53 135.561 190.53 135.715C190.53 135.855 190.53 136.002 190.53 136.156H187.632V135.337C187.632 134.371 187.814 133.552 188.178 132.88C188.542 132.194 189.06 131.676 189.732 131.326C190.418 130.962 191.237 130.78 192.189 130.78C193.155 130.78 193.974 130.962 194.646 131.326C195.332 131.676 195.857 132.187 196.221 132.859C196.585 133.517 196.767 134.329 196.767 135.295C196.767 136.303 196.55 137.136 196.116 137.794C195.696 138.452 195.164 138.872 194.52 139.054C194.954 139.222 195.339 139.474 195.675 139.81C196.025 140.132 196.291 140.566 196.473 141.112C196.669 141.644 196.767 142.309 196.767 143.107C196.767 144.129 196.62 145.032 196.326 145.816C196.032 146.586 195.556 147.188 194.898 147.622C194.254 148.042 193.393 148.252 192.315 148.252ZM198.319 151.381V145.795H198.928C199.208 145.641 199.474 145.438 199.726 145.186C199.992 144.92 200.23 144.57 200.44 144.136C200.65 143.702 200.839 143.149 201.007 142.477C201.189 141.791 201.343 140.958 201.469 139.978C201.609 138.998 201.714 137.836 201.784 136.492L202.162 130.99H209.68V145.795H211.465V151.381H209.302L209.113 148H200.734L200.524 151.381H198.319ZM201.826 145.795H206.74V133.216H204.598L204.409 136.975C204.353 138.319 204.262 139.46 204.136 140.398C204.01 141.322 203.863 142.092 203.695 142.708C203.527 143.31 203.338 143.8 203.128 144.178C202.932 144.556 202.722 144.864 202.498 145.102C202.274 145.34 202.05 145.571 201.826 145.795ZM212.727 148L216.129 130.99H219.447L222.849 148H219.972L219.3 144.073H216.339L215.646 148H212.727ZM216.654 142.099H218.964L217.809 134.959L216.654 142.099ZM225.022 148V130.99H228.109V138.109H231.574V130.99H234.682V148H231.574V140.314H228.109V148H225.022ZM237.747 148V130.99H240.288V141.721L244.95 130.99H247.029V148H244.467V137.101L239.784 148H237.747ZM250.102 148V130.99H252.643V141.721L257.305 130.99H259.384V148H256.822V137.101L252.139 148H250.102ZM254.995 129.646C253.987 129.646 253.224 129.373 252.706 128.827C252.202 128.267 251.95 127.518 251.95 126.58H253.588C253.588 127.084 253.693 127.469 253.903 127.735C254.113 128.001 254.477 128.134 254.995 128.134C255.499 128.134 255.856 128.001 256.066 127.735C256.276 127.455 256.381 127.07 256.381 126.58H258.019C258.019 127.518 257.76 128.267 257.242 128.827C256.738 129.373 255.989 129.646 254.995 129.646Z" fill="black"/>
</svg>
