<svg width="1110" height="359" viewBox="0 0 1110 359" fill="none" xmlns="http://www.w3.org/2000/svg">
<path d="M392.32 43V30.292C390.928 30.556 389.632 30.688 388.432 30.688C386.896 30.688 385.54 30.436 384.364 29.932C383.212 29.404 382.3 28.624 381.628 27.592C380.98 26.56 380.656 25.288 380.656 23.776V13.84H385.984V23.776C385.984 24.52 386.08 25.168 386.272 25.72C386.464 26.248 386.836 26.656 387.388 26.944C387.94 27.208 388.72 27.34 389.728 27.34C390.112 27.34 390.52 27.328 390.952 27.304C391.384 27.256 391.84 27.184 392.32 27.088V13.84H397.612V43H392.32ZM402.079 43V13.84H414.319V17.584H407.407V25.972H412.843V29.68H407.407V39.328H414.391V43H402.079ZM417.405 43L417.909 13.84H423.417L427.557 34.036L431.877 13.84H437.205L437.745 43H433.785L433.353 22.732L429.213 43H426.009L421.797 22.66L421.401 43H417.405ZM450.733 43L451.237 13.84H456.745L460.885 34.036L465.205 13.84H470.533L471.073 43H467.113L466.681 22.732L462.541 43H459.337L455.125 22.66L454.729 43H450.733ZM475.452 43V13.84H480.744V26.08H482.04C484.032 26.08 485.688 26.356 487.008 26.908C488.328 27.436 489.324 28.324 489.996 29.572C490.668 30.796 491.004 32.452 491.004 34.54C491.004 36.172 490.788 37.54 490.356 38.644C489.948 39.724 489.348 40.588 488.556 41.236C487.764 41.884 486.804 42.34 485.676 42.604C484.548 42.868 483.264 43 481.824 43H475.452ZM480.744 39.4H481.86C482.868 39.4 483.684 39.256 484.308 38.968C484.932 38.68 485.388 38.176 485.676 37.456C485.964 36.712 486.096 35.704 486.072 34.432C486.072 32.92 485.772 31.768 485.172 30.976C484.572 30.184 483.444 29.788 481.788 29.788H480.744V39.4ZM493.74 43V13.84H499.032V43H493.74ZM519.171 43.432C517.371 43.432 515.907 43.096 514.779 42.424C513.675 41.728 512.871 40.756 512.367 39.508C511.863 38.236 511.611 36.76 511.611 35.08V34.072H516.579C516.579 34.192 516.579 34.36 516.579 34.576C516.579 34.768 516.579 34.96 516.579 35.152C516.603 36.496 516.795 37.516 517.155 38.212C517.515 38.908 518.211 39.256 519.243 39.256C519.987 39.256 520.539 39.076 520.899 38.716C521.283 38.356 521.535 37.84 521.655 37.168C521.799 36.472 521.871 35.644 521.871 34.684C521.871 33.196 521.595 32.02 521.043 31.156C520.515 30.268 519.447 29.788 517.839 29.716C517.767 29.692 517.647 29.68 517.479 29.68C517.335 29.68 517.167 29.68 516.975 29.68C516.783 29.68 516.603 29.68 516.435 29.68V26.152C516.579 26.152 516.723 26.152 516.867 26.152C517.011 26.152 517.155 26.152 517.299 26.152C517.467 26.152 517.599 26.152 517.695 26.152C519.327 26.08 520.431 25.648 521.007 24.856C521.583 24.064 521.871 22.912 521.871 21.4C521.871 20.176 521.655 19.216 521.223 18.52C520.815 17.824 520.071 17.476 518.991 17.476C517.983 17.476 517.263 17.836 516.831 18.556C516.423 19.276 516.183 20.224 516.111 21.4C516.111 21.496 516.111 21.676 516.111 21.94C516.111 22.18 516.111 22.432 516.111 22.696H511.143V21.292C511.143 19.636 511.455 18.232 512.079 17.08C512.703 15.904 513.591 15.016 514.743 14.416C515.919 13.792 517.323 13.48 518.955 13.48C520.611 13.48 522.015 13.792 523.167 14.416C524.343 15.016 525.243 15.892 525.867 17.044C526.491 18.172 526.803 19.564 526.803 21.22C526.803 22.948 526.431 24.376 525.687 25.504C524.967 26.632 524.055 27.352 522.951 27.664C523.695 27.952 524.355 28.384 524.931 28.96C525.531 29.512 525.987 30.256 526.299 31.192C526.635 32.104 526.803 33.244 526.803 34.612C526.803 36.364 526.551 37.912 526.047 39.256C525.543 40.576 524.727 41.608 523.599 42.352C522.495 43.072 521.019 43.432 519.171 43.432ZM528.923 43L534.755 13.84H540.443L546.275 43H541.343L540.191 36.268H535.115L533.927 43H528.923ZM535.655 32.884H539.615L537.635 20.644L535.655 32.884ZM549.28 43V13.84H554.572V26.044H560.512V13.84H565.84V43H560.512V29.824H554.572V43H549.28ZM570.373 43V13.84H574.729V32.236L582.721 13.84H586.285V43H581.893V24.316L573.865 43H570.373ZM590.69 43L591.194 13.84H596.702L600.842 34.036L605.162 13.84H610.49L611.03 43H607.07L606.638 22.732L602.498 43H599.294L595.082 22.66L594.686 43H590.69ZM613.861 43L619.693 13.84H625.381L631.213 43H626.281L625.129 36.268H620.053L618.865 43H613.861ZM620.593 32.884H624.553L622.573 20.644L620.593 32.884ZM634.145 43V13.84H646.385V17.584H639.473V25.972H644.909V29.68H639.473V39.328H646.457V43H634.145ZM649.472 43L649.976 13.84H655.484L659.624 34.036L663.944 13.84H669.272L669.812 43H665.852L665.42 22.732L661.28 43H658.076L653.864 22.66L653.468 43H649.472ZM681.966 43.396C679.83 43.396 678.15 42.976 676.926 42.136C675.726 41.296 674.886 40.156 674.406 38.716C673.926 37.252 673.686 35.572 673.686 33.676V23.272C673.686 21.28 673.926 19.552 674.406 18.088C674.886 16.624 675.726 15.496 676.926 14.704C678.15 13.912 679.83 13.516 681.966 13.516C683.982 13.516 685.554 13.864 686.682 14.56C687.834 15.232 688.65 16.204 689.13 17.476C689.61 18.748 689.85 20.224 689.85 21.904V24.352H684.738V21.832C684.738 21.016 684.69 20.272 684.594 19.6C684.522 18.928 684.294 18.4 683.91 18.016C683.55 17.608 682.914 17.404 682.002 17.404C681.09 17.404 680.418 17.62 679.986 18.052C679.578 18.46 679.314 19.024 679.194 19.744C679.074 20.44 679.014 21.232 679.014 22.12V34.792C679.014 35.848 679.098 36.724 679.266 37.42C679.434 38.092 679.734 38.608 680.166 38.968C680.622 39.304 681.234 39.472 682.002 39.472C682.89 39.472 683.514 39.268 683.874 38.86C684.258 38.428 684.498 37.864 684.594 37.168C684.69 36.472 684.738 35.692 684.738 34.828V32.2H689.85V34.54C689.85 36.268 689.622 37.804 689.166 39.148C688.71 40.468 687.906 41.512 686.754 42.28C685.626 43.024 684.03 43.396 681.966 43.396ZM691.759 43L697.591 29.968C696.391 29.344 695.419 28.384 694.675 27.088C693.931 25.768 693.559 24.148 693.559 22.228C693.559 20.308 693.907 18.736 694.603 17.512C695.299 16.264 696.343 15.34 697.735 14.74C699.151 14.14 700.939 13.84 703.099 13.84H709.831V43H704.539V31.192H702.847C702.799 31.192 702.691 31.192 702.523 31.192C702.355 31.192 702.247 31.192 702.199 31.192L697.555 43H691.759ZM703.351 27.448H704.539V17.548H703.243C701.683 17.548 700.507 17.932 699.715 18.7C698.923 19.444 698.527 20.62 698.527 22.228C698.527 23.884 698.875 25.168 699.571 26.08C700.291 26.992 701.551 27.448 703.351 27.448ZM717.325 35.512V30.94C718.453 30.004 719.473 29.02 720.385 27.988C721.321 26.932 722.053 25.816 722.581 24.64C723.133 23.464 723.409 22.228 723.409 20.932C723.409 19.924 723.181 19.144 722.725 18.592C722.269 18.016 721.609 17.728 720.745 17.728C719.977 17.728 719.365 17.944 718.909 18.376C718.477 18.808 718.261 19.396 718.261 20.14C718.261 20.476 718.297 20.788 718.369 21.076C718.441 21.364 718.525 21.676 718.621 22.012L714.157 22.984C713.989 22.504 713.857 22.036 713.761 21.58C713.689 21.1 713.653 20.62 713.653 20.14C713.653 18.124 714.265 16.516 715.489 15.316C716.737 14.116 718.513 13.516 720.817 13.516C723.169 13.516 724.993 14.152 726.289 15.424C727.585 16.696 728.233 18.508 728.233 20.86C728.233 22.396 727.957 23.812 727.405 25.108C726.877 26.404 726.121 27.616 725.137 28.744C724.153 29.872 723.013 30.952 721.717 31.984V35.512H717.325ZM717.145 43V38.212H721.969V43H717.145Z" fill="black"/>
<rect y="109" width="350" height="250" fill="#F7F7F7"/>
<path d="M104.751 263.231C103.505 263.231 102.525 262.986 101.811 262.496C101.111 262.006 100.621 261.341 100.341 260.501C100.061 259.647 99.9211 258.667 99.9211 257.561V251.492C99.9211 250.33 100.061 249.322 100.341 248.468C100.621 247.614 101.111 246.956 101.811 246.494C102.525 246.032 103.505 245.801 104.751 245.801C105.927 245.801 106.844 246.004 107.502 246.41C108.174 246.802 108.65 247.369 108.93 248.111C109.21 248.853 109.35 249.714 109.35 250.694V252.122H106.368V250.652C106.368 250.176 106.34 249.742 106.284 249.35C106.242 248.958 106.109 248.65 105.885 248.426C105.675 248.188 105.304 248.069 104.772 248.069C104.24 248.069 103.848 248.195 103.596 248.447C103.358 248.685 103.204 249.014 103.134 249.434C103.064 249.84 103.029 250.302 103.029 250.82V258.212C103.029 258.828 103.078 259.339 103.176 259.745C103.274 260.137 103.449 260.438 103.701 260.648C103.967 260.844 104.324 260.942 104.772 260.942C105.29 260.942 105.654 260.823 105.864 260.585C106.088 260.333 106.228 260.004 106.284 259.598C106.34 259.192 106.368 258.737 106.368 258.233V256.7H109.35V258.065C109.35 259.073 109.217 259.969 108.951 260.753C108.685 261.523 108.216 262.132 107.544 262.58C106.886 263.014 105.955 263.231 104.751 263.231ZM113.635 263V248.279H110.926V245.99H119.41V248.279H116.743V263H113.635ZM121.377 263V245.99H126.375C127.397 245.99 128.223 246.179 128.853 246.557C129.497 246.935 129.966 247.488 130.26 248.216C130.568 248.93 130.722 249.798 130.722 250.82C130.722 251.926 130.533 252.822 130.155 253.508C129.777 254.18 129.245 254.67 128.559 254.978C127.887 255.286 127.089 255.44 126.165 255.44H124.485V263H121.377ZM124.485 253.256H125.661C126.221 253.256 126.655 253.179 126.963 253.025C127.285 252.857 127.502 252.598 127.614 252.248C127.74 251.884 127.803 251.401 127.803 250.799C127.803 250.183 127.754 249.686 127.656 249.308C127.572 248.916 127.376 248.629 127.068 248.447C126.774 248.265 126.305 248.174 125.661 248.174H124.485V253.256ZM137.492 263.231C136.288 263.231 135.329 263.007 134.615 262.559C133.901 262.111 133.39 261.467 133.082 260.627C132.774 259.787 132.62 258.793 132.62 257.645V251.282C132.62 250.134 132.774 249.154 133.082 248.342C133.39 247.516 133.901 246.886 134.615 246.452C135.329 246.018 136.288 245.801 137.492 245.801C138.724 245.801 139.69 246.018 140.39 246.452C141.104 246.886 141.615 247.516 141.923 248.342C142.245 249.154 142.406 250.134 142.406 251.282V257.666C142.406 258.8 142.245 259.787 141.923 260.627C141.615 261.453 141.104 262.097 140.39 262.559C139.69 263.007 138.724 263.231 137.492 263.231ZM137.492 260.942C138.01 260.942 138.388 260.83 138.626 260.606C138.878 260.382 139.046 260.074 139.13 259.682C139.214 259.29 139.256 258.863 139.256 258.401V250.568C139.256 250.092 139.214 249.665 139.13 249.287C139.046 248.909 138.878 248.615 138.626 248.405C138.388 248.181 138.01 248.069 137.492 248.069C137.002 248.069 136.631 248.181 136.379 248.405C136.127 248.615 135.959 248.909 135.875 249.287C135.791 249.665 135.749 250.092 135.749 250.568V258.401C135.749 258.863 135.784 259.29 135.854 259.682C135.938 260.074 136.106 260.382 136.358 260.606C136.61 260.83 136.988 260.942 137.492 260.942ZM145.167 263V245.99H147.708V256.721L152.37 245.99H154.449V263H151.887V252.101L147.204 263H145.167ZM159.181 263V248.279H156.472V245.99H164.956V248.279H162.289V263H159.181ZM166.924 263V245.99H174.064V248.174H170.032V253.067H173.203V255.23H170.032V260.858H174.106V263H166.924ZM175.15 263V260.774C175.542 260.788 175.871 260.767 176.137 260.711C176.417 260.641 176.648 260.494 176.83 260.27C177.026 260.046 177.187 259.703 177.313 259.241C177.439 258.765 177.544 258.128 177.628 257.33C177.712 256.532 177.803 255.517 177.901 254.285L178.447 245.99H186.721V263H183.634V248.321H181.198L180.82 254.663C180.736 255.909 180.638 257.008 180.526 257.96C180.428 258.912 180.267 259.724 180.043 260.396C179.833 261.054 179.532 261.586 179.14 261.992C178.748 262.398 178.23 262.685 177.586 262.853C176.942 263.007 176.13 263.056 175.15 263ZM189.81 263V245.99H192.897V253.13H193.653C194.801 253.13 195.76 253.291 196.53 253.613C197.3 253.921 197.881 254.439 198.273 255.167C198.665 255.881 198.861 256.847 198.861 258.065C198.861 259.017 198.742 259.815 198.504 260.459C198.266 261.089 197.909 261.593 197.433 261.971C196.971 262.349 196.411 262.615 195.753 262.769C195.095 262.923 194.353 263 193.527 263H189.81ZM192.897 260.9H193.527C194.129 260.9 194.605 260.816 194.955 260.648C195.319 260.48 195.585 260.186 195.753 259.766C195.921 259.332 196.005 258.744 196.005 258.002C195.991 257.12 195.809 256.448 195.459 255.986C195.123 255.524 194.465 255.293 193.485 255.293H192.897V260.9ZM205.82 263.231C204.574 263.231 203.594 262.986 202.88 262.496C202.18 262.006 201.69 261.341 201.41 260.501C201.13 259.647 200.99 258.667 200.99 257.561V251.492C200.99 250.33 201.13 249.322 201.41 248.468C201.69 247.614 202.18 246.956 202.88 246.494C203.594 246.032 204.574 245.801 205.82 245.801C206.996 245.801 207.913 246.004 208.571 246.41C209.243 246.802 209.719 247.369 209.999 248.111C210.279 248.853 210.419 249.714 210.419 250.694V252.122H207.437V250.652C207.437 250.176 207.409 249.742 207.353 249.35C207.311 248.958 207.178 248.65 206.954 248.426C206.744 248.188 206.373 248.069 205.841 248.069C205.309 248.069 204.917 248.195 204.665 248.447C204.427 248.685 204.273 249.014 204.203 249.434C204.133 249.84 204.098 250.302 204.098 250.82V258.212C204.098 258.828 204.147 259.339 204.245 259.745C204.343 260.137 204.518 260.438 204.77 260.648C205.036 260.844 205.393 260.942 205.841 260.942C206.359 260.942 206.723 260.823 206.933 260.585C207.157 260.333 207.297 260.004 207.353 259.598C207.409 259.192 207.437 258.737 207.437 258.233V256.7H210.419V258.065C210.419 259.073 210.286 259.969 210.02 260.753C209.754 261.523 209.285 262.132 208.613 262.58C207.955 263.014 207.024 263.231 205.82 263.231ZM214.704 263V248.279H211.995V245.99H220.479V248.279H217.812V263H214.704ZM222.446 263V245.99H226.625C227.381 245.99 228.06 246.06 228.662 246.2C229.278 246.34 229.803 246.578 230.237 246.914C230.685 247.236 231.028 247.677 231.266 248.237C231.504 248.797 231.623 249.504 231.623 250.358C231.623 251.044 231.525 251.632 231.329 252.122C231.147 252.612 230.874 253.004 230.51 253.298C230.146 253.578 229.691 253.767 229.145 253.865C229.817 253.977 230.37 254.215 230.804 254.579C231.252 254.929 231.581 255.391 231.791 255.965C232.015 256.539 232.127 257.232 232.127 258.044C232.127 258.856 232.022 259.577 231.812 260.207C231.616 260.823 231.315 261.341 230.909 261.761C230.517 262.167 230.02 262.475 229.418 262.685C228.83 262.895 228.137 263 227.339 263H222.446ZM225.554 260.816H226.73C227.668 260.816 228.305 260.592 228.641 260.144C228.977 259.682 229.145 258.975 229.145 258.023C229.145 257.337 229.061 256.784 228.893 256.364C228.739 255.93 228.473 255.608 228.095 255.398C227.731 255.188 227.241 255.083 226.625 255.083H225.554V260.816ZM225.554 252.941H226.604C227.22 252.941 227.696 252.85 228.032 252.668C228.368 252.486 228.599 252.206 228.725 251.828C228.865 251.45 228.935 250.974 228.935 250.4C228.935 249.798 228.83 249.336 228.62 249.014C228.424 248.678 228.123 248.454 227.717 248.342C227.311 248.216 226.793 248.153 226.163 248.153H225.554V252.941ZM239.176 263.231C237.972 263.231 237.013 263.007 236.299 262.559C235.585 262.111 235.074 261.467 234.766 260.627C234.458 259.787 234.304 258.793 234.304 257.645V251.282C234.304 250.134 234.458 249.154 234.766 248.342C235.074 247.516 235.585 246.886 236.299 246.452C237.013 246.018 237.972 245.801 239.176 245.801C240.408 245.801 241.374 246.018 242.074 246.452C242.788 246.886 243.299 247.516 243.607 248.342C243.929 249.154 244.09 250.134 244.09 251.282V257.666C244.09 258.8 243.929 259.787 243.607 260.627C243.299 261.453 242.788 262.097 242.074 262.559C241.374 263.007 240.408 263.231 239.176 263.231ZM239.176 260.942C239.694 260.942 240.072 260.83 240.31 260.606C240.562 260.382 240.73 260.074 240.814 259.682C240.898 259.29 240.94 258.863 240.94 258.401V250.568C240.94 250.092 240.898 249.665 240.814 249.287C240.73 248.909 240.562 248.615 240.31 248.405C240.072 248.181 239.694 248.069 239.176 248.069C238.686 248.069 238.315 248.181 238.063 248.405C237.811 248.615 237.643 248.909 237.559 249.287C237.475 249.665 237.433 250.092 237.433 250.568V258.401C237.433 258.863 237.468 259.29 237.538 259.682C237.622 260.074 237.79 260.382 238.042 260.606C238.294 260.83 238.672 260.942 239.176 260.942ZM92.1861 294.231C90.9821 294.231 90.0231 294.007 89.3091 293.559C88.5951 293.111 88.0841 292.467 87.7761 291.627C87.4681 290.787 87.3141 289.793 87.3141 288.645V282.282C87.3141 281.134 87.4681 280.154 87.7761 279.342C88.0841 278.516 88.5951 277.886 89.3091 277.452C90.0231 277.018 90.9821 276.801 92.1861 276.801C93.4181 276.801 94.3841 277.018 95.0841 277.452C95.7981 277.886 96.3091 278.516 96.6171 279.342C96.9391 280.154 97.1001 281.134 97.1001 282.282V288.666C97.1001 289.8 96.9391 290.787 96.6171 291.627C96.3091 292.453 95.7981 293.097 95.0841 293.559C94.3841 294.007 93.4181 294.231 92.1861 294.231ZM92.1861 291.942C92.7041 291.942 93.0821 291.83 93.3201 291.606C93.5721 291.382 93.7401 291.074 93.8241 290.682C93.9081 290.29 93.9501 289.863 93.9501 289.401V281.568C93.9501 281.092 93.9081 280.665 93.8241 280.287C93.7401 279.909 93.5721 279.615 93.3201 279.405C93.0821 279.181 92.7041 279.069 92.1861 279.069C91.6961 279.069 91.3251 279.181 91.0731 279.405C90.8211 279.615 90.6531 279.909 90.5691 280.287C90.4851 280.665 90.4431 281.092 90.4431 281.568V289.401C90.4431 289.863 90.4781 290.29 90.5481 290.682C90.6321 291.074 90.8001 291.382 91.0521 291.606C91.3041 291.83 91.6821 291.942 92.1861 291.942ZM104.649 294.672V291.984C104.495 291.998 104.327 292.012 104.145 292.026C103.963 292.04 103.788 292.047 103.62 292.047C102.808 292.047 102.094 291.9 101.478 291.606C100.862 291.312 100.379 290.85 100.029 290.22C99.6931 289.576 99.5251 288.743 99.5251 287.721V283.017C99.5251 282.051 99.6931 281.246 100.029 280.602C100.379 279.958 100.862 279.475 101.478 279.153C102.108 278.831 102.843 278.67 103.683 278.67C103.851 278.67 104.026 278.677 104.208 278.691C104.39 278.691 104.537 278.698 104.649 278.712V275.73H107.358V278.712C107.484 278.698 107.631 278.691 107.799 278.691C107.981 278.677 108.149 278.67 108.303 278.67C109.171 278.67 109.913 278.831 110.529 279.153C111.159 279.475 111.642 279.965 111.978 280.623C112.328 281.267 112.503 282.065 112.503 283.017V287.721C112.503 288.743 112.335 289.576 111.999 290.22C111.663 290.85 111.208 291.319 110.634 291.627C110.074 291.921 109.444 292.068 108.744 292.068C108.52 292.068 108.289 292.061 108.051 292.047C107.827 292.033 107.596 292.019 107.358 292.005V294.672H104.649ZM104.145 290.157C104.229 290.157 104.32 290.157 104.418 290.157C104.516 290.143 104.593 290.129 104.649 290.115V280.56C104.551 280.546 104.446 280.539 104.334 280.539C104.236 280.525 104.138 280.518 104.04 280.518C103.634 280.518 103.298 280.602 103.032 280.77C102.78 280.938 102.591 281.204 102.465 281.568C102.339 281.932 102.276 282.408 102.276 282.996V287.742C102.276 288.316 102.325 288.778 102.423 289.128C102.535 289.478 102.724 289.737 102.99 289.905C103.256 290.073 103.641 290.157 104.145 290.157ZM107.946 290.136C108.408 290.136 108.765 290.059 109.017 289.905C109.283 289.751 109.465 289.499 109.563 289.149C109.675 288.785 109.731 288.316 109.731 287.742V282.996C109.731 282.394 109.675 281.911 109.563 281.547C109.451 281.183 109.269 280.924 109.017 280.77C108.779 280.602 108.443 280.518 108.009 280.518C107.897 280.518 107.785 280.525 107.673 280.539C107.561 280.539 107.456 280.546 107.358 280.56V290.094C107.442 290.108 107.533 290.122 107.631 290.136C107.743 290.136 107.848 290.136 107.946 290.136ZM115.231 294V276.99H117.772V287.721L122.434 276.99H124.513V294H121.951V283.101L117.268 294H115.231ZM132.123 294.231C130.877 294.231 129.897 293.986 129.183 293.496C128.483 293.006 127.993 292.341 127.713 291.501C127.433 290.647 127.293 289.667 127.293 288.561V282.492C127.293 281.33 127.433 280.322 127.713 279.468C127.993 278.614 128.483 277.956 129.183 277.494C129.897 277.032 130.877 276.801 132.123 276.801C133.299 276.801 134.216 277.004 134.874 277.41C135.546 277.802 136.022 278.369 136.302 279.111C136.582 279.853 136.722 280.714 136.722 281.694V283.122H133.74V281.652C133.74 281.176 133.712 280.742 133.656 280.35C133.614 279.958 133.481 279.65 133.257 279.426C133.047 279.188 132.676 279.069 132.144 279.069C131.612 279.069 131.22 279.195 130.968 279.447C130.73 279.685 130.576 280.014 130.506 280.434C130.436 280.84 130.401 281.302 130.401 281.82V289.212C130.401 289.828 130.45 290.339 130.548 290.745C130.646 291.137 130.821 291.438 131.073 291.648C131.339 291.844 131.696 291.942 132.144 291.942C132.662 291.942 133.026 291.823 133.236 291.585C133.46 291.333 133.6 291.004 133.656 290.598C133.712 290.192 133.74 289.737 133.74 289.233V287.7H136.722V289.065C136.722 290.073 136.589 290.969 136.323 291.753C136.057 292.523 135.588 293.132 134.916 293.58C134.258 294.014 133.327 294.231 132.123 294.231ZM139.348 294V276.99H142.435V284.109H145.9V276.99H149.008V294H145.9V286.314H142.435V294H139.348ZM152.072 294V276.99H155.159V284.13H155.915C157.077 284.13 158.043 284.291 158.813 284.613C159.583 284.921 160.164 285.439 160.556 286.167C160.948 286.881 161.144 287.847 161.144 289.065C161.144 290.017 161.018 290.815 160.766 291.459C160.528 292.089 160.178 292.593 159.716 292.971C159.254 293.349 158.694 293.615 158.036 293.769C157.378 293.923 156.629 294 155.789 294H152.072ZM155.159 291.9H155.81C156.398 291.9 156.874 291.816 157.238 291.648C157.602 291.48 157.868 291.186 158.036 290.766C158.204 290.332 158.281 289.744 158.267 289.002C158.267 288.12 158.092 287.448 157.742 286.986C157.392 286.524 156.734 286.293 155.768 286.293H155.159V291.9ZM162.74 294V276.99H165.827V294H162.74ZM167.786 294L171.209 284.97L167.891 276.99H170.789L172.994 282.261L174.926 276.99H177.614L174.338 285.558L177.866 294H174.968L172.553 288.288L170.453 294H167.786ZM189.315 294.252C188.265 294.252 187.411 294.056 186.753 293.664C186.109 293.258 185.64 292.691 185.346 291.963C185.052 291.221 184.905 290.36 184.905 289.38V288.792H187.803C187.803 288.862 187.803 288.96 187.803 289.086C187.803 289.198 187.803 289.31 187.803 289.422C187.817 290.206 187.929 290.801 188.139 291.207C188.349 291.613 188.755 291.816 189.357 291.816C189.791 291.816 190.113 291.711 190.323 291.501C190.547 291.291 190.694 290.99 190.764 290.598C190.848 290.192 190.89 289.709 190.89 289.149C190.89 288.281 190.729 287.595 190.407 287.091C190.099 286.573 189.476 286.293 188.538 286.251C188.496 286.237 188.426 286.23 188.328 286.23C188.244 286.23 188.146 286.23 188.034 286.23C187.922 286.23 187.817 286.23 187.719 286.23V284.172C187.803 284.172 187.887 284.172 187.971 284.172C188.055 284.172 188.139 284.172 188.223 284.172C188.321 284.172 188.398 284.172 188.454 284.172C189.406 284.13 190.05 283.878 190.386 283.416C190.722 282.954 190.89 282.282 190.89 281.4C190.89 280.686 190.764 280.126 190.512 279.72C190.274 279.314 189.84 279.111 189.21 279.111C188.622 279.111 188.202 279.321 187.95 279.741C187.712 280.161 187.572 280.714 187.53 281.4C187.53 281.456 187.53 281.561 187.53 281.715C187.53 281.855 187.53 282.002 187.53 282.156H184.632V281.337C184.632 280.371 184.814 279.552 185.178 278.88C185.542 278.194 186.06 277.676 186.732 277.326C187.418 276.962 188.237 276.78 189.189 276.78C190.155 276.78 190.974 276.962 191.646 277.326C192.332 277.676 192.857 278.187 193.221 278.859C193.585 279.517 193.767 280.329 193.767 281.295C193.767 282.303 193.55 283.136 193.116 283.794C192.696 284.452 192.164 284.872 191.52 285.054C191.954 285.222 192.339 285.474 192.675 285.81C193.025 286.132 193.291 286.566 193.473 287.112C193.669 287.644 193.767 288.309 193.767 289.107C193.767 290.129 193.62 291.032 193.326 291.816C193.032 292.586 192.556 293.188 191.898 293.622C191.254 294.042 190.393 294.252 189.315 294.252ZM195.319 297.381V291.795H195.928C196.208 291.641 196.474 291.438 196.726 291.186C196.992 290.92 197.23 290.57 197.44 290.136C197.65 289.702 197.839 289.149 198.007 288.477C198.189 287.791 198.343 286.958 198.469 285.978C198.609 284.998 198.714 283.836 198.784 282.492L199.162 276.99H206.68V291.795H208.465V297.381H206.302L206.113 294H197.734L197.524 297.381H195.319ZM198.826 291.795H203.74V279.216H201.598L201.409 282.975C201.353 284.319 201.262 285.46 201.136 286.398C201.01 287.322 200.863 288.092 200.695 288.708C200.527 289.31 200.338 289.8 200.128 290.178C199.932 290.556 199.722 290.864 199.498 291.102C199.274 291.34 199.05 291.571 198.826 291.795ZM209.727 294L213.129 276.99H216.447L219.849 294H216.972L216.3 290.073H213.339L212.646 294H209.727ZM213.654 288.099H215.964L214.809 280.959L213.654 288.099ZM222.022 294V276.99H225.109V284.109H228.574V276.99H231.682V294H228.574V286.314H225.109V294H222.022ZM234.747 294V276.99H237.288V287.721L241.95 276.99H244.029V294H241.467V283.101L236.784 294H234.747ZM247.102 294V276.99H249.643V287.721L254.305 276.99H256.384V294H253.822V283.101L249.139 294H247.102ZM251.995 275.646C250.987 275.646 250.224 275.373 249.706 274.827C249.202 274.267 248.95 273.518 248.95 272.58H250.588C250.588 273.084 250.693 273.469 250.903 273.735C251.113 274.001 251.477 274.134 251.995 274.134C252.499 274.134 252.856 274.001 253.066 273.735C253.276 273.455 253.381 273.07 253.381 272.58H255.019C255.019 273.518 254.76 274.267 254.242 274.827C253.738 275.373 252.989 275.646 251.995 275.646Z" fill="black"/>
<path d="M167.875 203H164.125C163.469 203 163 203.562 163 204.125V207.875C163 208.531 163.469 209 164.125 209H167.875C168.438 209 169 208.531 169 207.875V204.125C169 203.562 168.438 203 167.875 203ZM167.875 185H164.125C163.469 185 163 185.562 163 186.125V189.875C163 190.531 163.469 191 164.125 191H167.875C168.438 191 169 190.531 169 189.875V186.125C169 185.562 168.438 185 167.875 185ZM158.875 185H155.125C154.469 185 154 185.562 154 186.125V189.875C154 190.531 154.469 191 155.125 191H158.875C159.438 191 160 190.531 160 189.875V186.125C160 185.562 159.438 185 158.875 185ZM158.875 203H155.125C154.469 203 154 203.562 154 204.125V207.875C154 208.531 154.469 209 155.125 209H158.875C159.438 209 160 208.531 160 207.875V204.125C160 203.562 159.438 203 158.875 203ZM158.875 194H155.125C154.469 194 154 194.562 154 195.125V198.875C154 199.531 154.469 200 155.125 200H158.875C159.438 200 160 199.531 160 198.875V195.125C160 194.562 159.438 194 158.875 194ZM167.875 194H164.125C163.469 194 163 194.562 163 195.125V198.875C163 199.531 163.469 200 164.125 200H167.875C168.438 200 169 199.531 169 198.875V195.125C169 194.562 168.438 194 167.875 194ZM194.875 203H191.125C190.469 203 190 203.562 190 204.125V207.875C190 208.531 190.469 209 191.125 209H194.875C195.438 209 196 208.531 196 207.875V204.125C196 203.562 195.438 203 194.875 203ZM194.875 194H191.125C190.469 194 190 194.562 190 195.125V198.875C190 199.531 190.469 200 191.125 200H194.875C195.438 200 196 199.531 196 198.875V195.125C196 194.562 195.438 194 194.875 194ZM202.75 185H193V169.25C193 168.031 191.969 167 190.75 167H171.25C169.938 167 169 168.031 169 169.25V176H166V168.5C166 167.75 165.25 167 164.5 167H163C162.156 167 161.5 167.75 161.5 168.5V176H155.5V168.5C155.5 167.75 154.75 167 154 167H152.5C151.656 167 151 167.75 151 168.5V176H147.25C145.938 176 145 177.031 145 178.25V213.5C145 214.344 145.656 215 146.5 215H148C148.75 215 149.5 214.344 149.5 213.5V180.5H173.5V171.5H188.5V189.5H200.5V213.5C200.5 214.344 201.156 215 202 215H203.5C204.25 215 205 214.344 205 213.5V187.25C205 186.031 203.969 185 202.75 185ZM182.875 176H179.125C178.469 176 178 176.562 178 177.125V180.875C178 181.531 178.469 182 179.125 182H182.875C183.438 182 184 181.531 184 180.875V177.125C184 176.562 183.438 176 182.875 176ZM182.875 194H179.125C178.469 194 178 194.562 178 195.125V198.875C178 199.531 178.469 200 179.125 200H182.875C183.438 200 184 199.531 184 198.875V195.125C184 194.562 183.438 194 182.875 194ZM182.875 185H179.125C178.469 185 178 185.562 178 186.125V189.875C178 190.531 178.469 191 179.125 191H182.875C183.438 191 184 190.531 184 189.875V186.125C184 185.562 183.438 185 182.875 185Z" fill="#F7654A"/>
<rect x="380" y="109" width="350" height="250" fill="#F7F7F7"/>
<path d="M484.782 263.231C483.018 263.231 481.765 262.741 481.023 261.761C480.295 260.767 479.931 259.367 479.931 257.561V251.492C479.931 249.63 480.295 248.216 481.023 247.25C481.751 246.284 483.004 245.801 484.782 245.801C486.448 245.801 487.631 246.221 488.331 247.061C489.031 247.901 489.381 249.112 489.381 250.694V252.122H486.399V250.652C486.399 250.05 486.371 249.581 486.315 249.245C486.259 248.895 486.112 248.615 485.874 248.405C485.65 248.181 485.293 248.069 484.803 248.069C484.299 248.069 483.921 248.188 483.669 248.426C483.417 248.65 483.249 248.958 483.165 249.35C483.095 249.728 483.06 250.225 483.06 250.841V258.212C483.06 259.178 483.186 259.878 483.438 260.312C483.69 260.732 484.145 260.942 484.803 260.942C485.279 260.942 485.629 260.83 485.853 260.606C486.091 260.382 486.238 260.088 486.294 259.724C486.364 259.346 486.399 258.849 486.399 258.233V256.7H489.381V258.065C489.381 259.703 489.038 260.977 488.352 261.887C487.666 262.783 486.476 263.231 484.782 263.231ZM493.666 248.279H490.957V245.99H499.42V248.279H496.774V263H493.666V248.279ZM501.388 245.99H506.386C509.284 245.99 510.733 247.6 510.733 250.82C510.733 253.9 509.214 255.44 506.176 255.44H504.475V263H501.388V245.99ZM505.672 253.256C506.512 253.256 507.079 253.081 507.373 252.731C507.667 252.367 507.814 251.723 507.814 250.799C507.814 250.127 507.765 249.616 507.667 249.266C507.569 248.902 507.366 248.629 507.058 248.447C506.764 248.265 506.302 248.174 505.672 248.174H504.475V253.256H505.672ZM517.523 263.231C515.759 263.231 514.499 262.762 513.743 261.824C512.987 260.872 512.609 259.486 512.609 257.666V251.282C512.609 249.476 512.987 248.111 513.743 247.187C514.499 246.263 515.759 245.801 517.523 245.801C519.273 245.801 520.526 246.263 521.282 247.187C522.038 248.111 522.416 249.476 522.416 251.282V257.666C522.416 259.472 522.031 260.851 521.261 261.803C520.505 262.755 519.259 263.231 517.523 263.231ZM517.523 260.942C518.209 260.942 518.671 260.725 518.909 260.291C519.147 259.857 519.266 259.227 519.266 258.401V250.568C519.266 249.742 519.147 249.119 518.909 248.699C518.685 248.279 518.223 248.069 517.523 248.069C516.823 248.069 516.354 248.286 516.116 248.72C515.878 249.14 515.759 249.756 515.759 250.568V258.401C515.759 259.227 515.878 259.857 516.116 260.291C516.354 260.725 516.823 260.942 517.523 260.942ZM525.177 245.99H527.718V256.721L532.38 245.99H534.459V263H531.876V252.08L527.214 263H525.177V245.99ZM539.191 248.279H536.482V245.99H544.945V248.279H542.299V263H539.191V248.279ZM546.913 245.99H554.053V248.174H550V253.067H553.192V255.23H550V260.879H554.095V263H546.913V245.99ZM555.14 260.774C555.854 260.788 556.365 260.676 556.673 260.438C556.995 260.186 557.24 259.626 557.408 258.758C557.576 257.89 557.737 256.399 557.891 254.285L558.437 245.99H566.711V263H563.624V248.321H561.167L560.81 254.663C560.67 256.931 560.481 258.618 560.243 259.724C560.005 260.816 559.557 261.642 558.899 262.202C558.255 262.748 557.254 263.021 555.896 263.021C555.574 263.021 555.322 263.014 555.14 263V260.774ZM569.8 245.99H572.887V253.13H573.643C575.407 253.13 576.716 253.508 577.57 254.264C578.438 255.02 578.872 256.287 578.872 258.065C578.872 259.885 578.424 261.166 577.528 261.908C576.632 262.636 575.295 263 573.517 263H569.8V245.99ZM573.517 260.9C574.413 260.9 575.05 260.697 575.428 260.291C575.806 259.885 575.995 259.15 575.995 258.086C575.995 257.134 575.813 256.434 575.449 255.986C575.085 255.524 574.427 255.293 573.475 255.293H572.887V260.9H573.517ZM585.81 263.231C584.046 263.231 582.793 262.741 582.051 261.761C581.323 260.767 580.959 259.367 580.959 257.561V251.492C580.959 249.63 581.323 248.216 582.051 247.25C582.779 246.284 584.032 245.801 585.81 245.801C587.476 245.801 588.659 246.221 589.359 247.061C590.059 247.901 590.409 249.112 590.409 250.694V252.122H587.427V250.652C587.427 250.05 587.399 249.581 587.343 249.245C587.287 248.895 587.14 248.615 586.902 248.405C586.678 248.181 586.321 248.069 585.831 248.069C585.327 248.069 584.949 248.188 584.697 248.426C584.445 248.65 584.277 248.958 584.193 249.35C584.123 249.728 584.088 250.225 584.088 250.841V258.212C584.088 259.178 584.214 259.878 584.466 260.312C584.718 260.732 585.173 260.942 585.831 260.942C586.307 260.942 586.657 260.83 586.881 260.606C587.119 260.382 587.266 260.088 587.322 259.724C587.392 259.346 587.427 258.849 587.427 258.233V256.7H590.409V258.065C590.409 259.703 590.066 260.977 589.38 261.887C588.694 262.783 587.504 263.231 585.81 263.231ZM594.694 248.279H591.985V245.99H600.448V248.279H597.802V263H594.694V248.279ZM602.416 245.99H606.616C608.226 245.99 609.458 246.319 610.312 246.977C611.166 247.635 611.593 248.762 611.593 250.358C611.593 251.394 611.383 252.206 610.963 252.794C610.543 253.368 609.934 253.718 609.136 253.844C611.096 254.222 612.076 255.622 612.076 258.044C612.076 259.682 611.677 260.921 610.879 261.761C610.081 262.587 608.898 263 607.33 263H602.416V245.99ZM606.574 252.941C607.47 252.941 608.079 252.745 608.401 252.353C608.737 251.947 608.905 251.296 608.905 250.4C608.905 249.532 608.688 248.944 608.254 248.636C607.834 248.314 607.127 248.153 606.133 248.153H605.503V252.941H606.574ZM606.7 260.816C607.61 260.816 608.24 260.599 608.59 260.165C608.94 259.731 609.115 259.017 609.115 258.023C609.115 257.001 608.919 256.259 608.527 255.797C608.149 255.321 607.505 255.083 606.595 255.083H605.503V260.816H606.7ZM619.166 263.231C617.402 263.231 616.142 262.762 615.386 261.824C614.63 260.872 614.252 259.486 614.252 257.666V251.282C614.252 249.476 614.63 248.111 615.386 247.187C616.142 246.263 617.402 245.801 619.166 245.801C620.916 245.801 622.169 246.263 622.925 247.187C623.681 248.111 624.059 249.476 624.059 251.282V257.666C624.059 259.472 623.674 260.851 622.904 261.803C622.148 262.755 620.902 263.231 619.166 263.231ZM619.166 260.942C619.852 260.942 620.314 260.725 620.552 260.291C620.79 259.857 620.909 259.227 620.909 258.401V250.568C620.909 249.742 620.79 249.119 620.552 248.699C620.328 248.279 619.866 248.069 619.166 248.069C618.466 248.069 617.997 248.286 617.759 248.72C617.521 249.14 617.402 249.756 617.402 250.568V258.401C617.402 259.227 617.521 259.857 617.759 260.291C617.997 260.725 618.466 260.942 619.166 260.942ZM472.207 294.231C470.443 294.231 469.183 293.762 468.427 292.824C467.671 291.872 467.293 290.486 467.293 288.666V282.282C467.293 280.476 467.671 279.111 468.427 278.187C469.183 277.263 470.443 276.801 472.207 276.801C473.957 276.801 475.21 277.263 475.966 278.187C476.722 279.111 477.1 280.476 477.1 282.282V288.666C477.1 290.472 476.715 291.851 475.945 292.803C475.189 293.755 473.943 294.231 472.207 294.231ZM472.207 291.942C472.893 291.942 473.355 291.725 473.593 291.291C473.831 290.857 473.95 290.227 473.95 289.401V281.568C473.95 280.742 473.831 280.119 473.593 279.699C473.369 279.279 472.907 279.069 472.207 279.069C471.507 279.069 471.038 279.286 470.8 279.72C470.562 280.14 470.443 280.756 470.443 281.568V289.401C470.443 290.227 470.562 290.857 470.8 291.291C471.038 291.725 471.507 291.942 472.207 291.942ZM484.649 291.984C484.061 292.026 483.718 292.047 483.62 292.047C482.332 292.047 481.324 291.697 480.596 290.997C479.882 290.283 479.525 289.191 479.525 287.721V283.017C479.525 281.603 479.889 280.525 480.617 279.783C481.359 279.041 482.374 278.67 483.662 278.67C483.984 278.67 484.313 278.684 484.649 278.712V275.73H487.358V278.712C487.694 278.684 488.009 278.67 488.303 278.67C489.619 278.67 490.641 279.041 491.369 279.783C492.111 280.525 492.482 281.603 492.482 283.017V287.721C492.482 289.177 492.139 290.262 491.453 290.976C490.767 291.69 489.864 292.047 488.744 292.047C488.282 292.047 487.82 292.026 487.358 291.984V294.672H484.649V291.984ZM484.145 290.157C484.313 290.157 484.481 290.143 484.649 290.115V280.56C484.397 280.532 484.194 280.518 484.04 280.518C483.424 280.518 482.976 280.714 482.696 281.106C482.43 281.484 482.297 282.114 482.297 282.996V287.742C482.297 288.638 482.423 289.268 482.675 289.632C482.927 289.982 483.417 290.157 484.145 290.157ZM487.946 290.157C488.618 290.157 489.08 289.982 489.332 289.632C489.598 289.268 489.731 288.645 489.731 287.763V282.996C489.731 282.086 489.605 281.449 489.353 281.085C489.101 280.707 488.653 280.518 488.009 280.518C487.827 280.518 487.61 280.532 487.358 280.56V290.115C487.554 290.143 487.75 290.157 487.946 290.157ZM495.231 276.99H497.772V287.721L502.434 276.99H504.513V294H501.93V283.08L497.268 294H495.231V276.99ZM512.123 294.231C510.359 294.231 509.106 293.741 508.364 292.761C507.636 291.767 507.272 290.367 507.272 288.561V282.492C507.272 280.63 507.636 279.216 508.364 278.25C509.092 277.284 510.345 276.801 512.123 276.801C513.789 276.801 514.972 277.221 515.672 278.061C516.372 278.901 516.722 280.112 516.722 281.694V283.122H513.74V281.652C513.74 281.05 513.712 280.581 513.656 280.245C513.6 279.895 513.453 279.615 513.215 279.405C512.991 279.181 512.634 279.069 512.144 279.069C511.64 279.069 511.262 279.188 511.01 279.426C510.758 279.65 510.59 279.958 510.506 280.35C510.436 280.728 510.401 281.225 510.401 281.841V289.212C510.401 290.178 510.527 290.878 510.779 291.312C511.031 291.732 511.486 291.942 512.144 291.942C512.62 291.942 512.97 291.83 513.194 291.606C513.432 291.382 513.579 291.088 513.635 290.724C513.705 290.346 513.74 289.849 513.74 289.233V287.7H516.722V289.065C516.722 290.703 516.379 291.977 515.693 292.887C515.007 293.783 513.817 294.231 512.123 294.231ZM519.348 276.99H522.435V284.088H525.9V276.99H529.008V294H525.9V286.314H522.435V294H519.348V276.99ZM532.072 276.99H535.159V284.13H535.915C537.693 284.13 539.009 284.508 539.863 285.264C540.717 286.02 541.144 287.287 541.144 289.065C541.144 290.885 540.696 292.166 539.8 292.908C538.904 293.636 537.567 294 535.789 294H532.072V276.99ZM542.74 276.99H545.827V294H542.74V276.99ZM535.81 291.9C536.692 291.9 537.322 291.697 537.7 291.291C538.078 290.885 538.267 290.15 538.267 289.086C538.267 288.134 538.085 287.434 537.721 286.986C537.357 286.524 536.706 286.293 535.768 286.293H535.159V291.9H535.81ZM551.209 284.97L547.891 276.99H550.789L552.994 282.282L554.926 276.99H557.593L554.338 285.558L557.845 294H554.968L552.553 288.267L550.453 294H547.786L551.209 284.97ZM569.336 294.252C566.368 294.252 564.884 292.628 564.884 289.38V288.792H567.782C567.782 289.072 567.789 289.282 567.803 289.422C567.817 290.262 567.929 290.871 568.139 291.249C568.363 291.627 568.769 291.816 569.357 291.816C569.959 291.816 570.365 291.606 570.575 291.186C570.785 290.752 570.89 290.073 570.89 289.149C570.89 288.225 570.715 287.525 570.365 287.049C570.029 286.573 569.413 286.307 568.517 286.251H567.719V284.193C568.069 284.193 568.321 284.186 568.475 284.172C569.385 284.13 570.015 283.892 570.365 283.458C570.715 283.01 570.89 282.324 570.89 281.4C570.89 280.658 570.757 280.091 570.491 279.699C570.239 279.307 569.819 279.111 569.231 279.111C568.657 279.111 568.237 279.314 567.971 279.72C567.705 280.112 567.558 280.672 567.53 281.4V282.135H564.632V281.337C564.632 279.895 565.031 278.775 565.829 277.977C566.641 277.179 567.761 276.78 569.189 276.78C570.631 276.78 571.751 277.179 572.549 277.977C573.361 278.761 573.767 279.867 573.767 281.295C573.767 282.275 573.557 283.101 573.137 283.773C572.731 284.445 572.192 284.872 571.52 285.054C573.018 285.6 573.767 286.951 573.767 289.107C573.767 290.731 573.41 291.998 572.696 292.908C571.996 293.804 570.876 294.252 569.336 294.252ZM575.319 291.795H575.928C576.446 291.515 576.887 291.074 577.251 290.472C577.615 289.856 577.93 288.911 578.196 287.637C578.462 286.363 578.658 284.648 578.784 282.492L579.162 276.99H586.68V291.795H588.465V297.381H586.302L586.113 294H577.734L577.524 297.381H575.319V291.795ZM583.74 291.795V279.216H581.598L581.409 282.975C581.311 285.089 581.136 286.727 580.884 287.889C580.646 289.051 580.373 289.877 580.065 290.367C579.757 290.857 579.344 291.333 578.826 291.795H583.74ZM593.129 276.99H596.447L599.849 294H596.972L596.3 290.073H593.339L592.646 294H589.727L593.129 276.99ZM595.964 288.099L594.809 280.959L593.654 288.099H595.964ZM602.022 276.99H605.109V284.088H608.574V276.99H611.682V294H608.574V286.314H605.109V294H602.022V276.99ZM614.747 276.99H617.288V287.721L621.95 276.99H624.029V294H621.446V283.08L616.784 294H614.747V276.99ZM627.102 276.99H629.643V287.721L634.305 276.99H636.384V294H633.801V283.08L629.139 294H627.102V276.99ZM631.974 275.646C630.994 275.646 630.245 275.373 629.727 274.827C629.209 274.281 628.95 273.532 628.95 272.58H630.567C630.581 273.112 630.693 273.504 630.903 273.756C631.127 274.008 631.484 274.134 631.974 274.134C632.478 274.134 632.835 274.008 633.045 273.756C633.269 273.49 633.381 273.098 633.381 272.58H635.019C635.019 273.532 634.76 274.281 634.242 274.827C633.724 275.373 632.968 275.646 631.974 275.646Z" fill="black"/>
<path d="M547.875 203H544.125C543.469 203 543 203.562 543 204.125V207.875C543 208.531 543.469 209 544.125 209H547.875C548.438 209 549 208.531 549 207.875V204.125C549 203.562 548.438 203 547.875 203ZM547.875 185H544.125C543.469 185 543 185.562 543 186.125V189.875C543 190.531 543.469 191 544.125 191H547.875C548.438 191 549 190.531 549 189.875V186.125C549 185.562 548.438 185 547.875 185ZM538.875 185H535.125C534.469 185 534 185.562 534 186.125V189.875C534 190.531 534.469 191 535.125 191H538.875C539.438 191 540 190.531 540 189.875V186.125C540 185.562 539.438 185 538.875 185ZM538.875 203H535.125C534.469 203 534 203.562 534 204.125V207.875C534 208.531 534.469 209 535.125 209H538.875C539.438 209 540 208.531 540 207.875V204.125C540 203.562 539.438 203 538.875 203ZM538.875 194H535.125C534.469 194 534 194.562 534 195.125V198.875C534 199.531 534.469 200 535.125 200H538.875C539.438 200 540 199.531 540 198.875V195.125C540 194.562 539.438 194 538.875 194ZM547.875 194H544.125C543.469 194 543 194.562 543 195.125V198.875C543 199.531 543.469 200 544.125 200H547.875C548.438 200 549 199.531 549 198.875V195.125C549 194.562 548.438 194 547.875 194ZM574.875 203H571.125C570.469 203 570 203.562 570 204.125V207.875C570 208.531 570.469 209 571.125 209H574.875C575.438 209 576 208.531 576 207.875V204.125C576 203.562 575.438 203 574.875 203ZM574.875 194H571.125C570.469 194 570 194.562 570 195.125V198.875C570 199.531 570.469 200 571.125 200H574.875C575.438 200 576 199.531 576 198.875V195.125C576 194.562 575.438 194 574.875 194ZM582.75 185H573V169.25C573 168.031 571.969 167 570.75 167H551.25C549.938 167 549 168.031 549 169.25V176H546V168.5C546 167.75 545.25 167 544.5 167H543C542.156 167 541.5 167.75 541.5 168.5V176H535.5V168.5C535.5 167.75 534.75 167 534 167H532.5C531.656 167 531 167.75 531 168.5V176H527.25C525.938 176 525 177.031 525 178.25V213.5C525 214.344 525.656 215 526.5 215H528C528.75 215 529.5 214.344 529.5 213.5V180.5H553.5V171.5H568.5V189.5H580.5V213.5C580.5 214.344 581.156 215 582 215H583.5C584.25 215 585 214.344 585 213.5V187.25C585 186.031 583.969 185 582.75 185ZM562.875 176H559.125C558.469 176 558 176.562 558 177.125V180.875C558 181.531 558.469 182 559.125 182H562.875C563.438 182 564 181.531 564 180.875V177.125C564 176.562 563.438 176 562.875 176ZM562.875 194H559.125C558.469 194 558 194.562 558 195.125V198.875C558 199.531 558.469 200 559.125 200H562.875C563.438 200 564 199.531 564 198.875V195.125C564 194.562 563.438 194 562.875 194ZM562.875 185H559.125C558.469 185 558 185.562 558 186.125V189.875C558 190.531 558.469 191 559.125 191H562.875C563.438 191 564 190.531 564 189.875V186.125C564 185.562 563.438 185 562.875 185Z" fill="#F7654A"/>
<rect x="760" y="109" width="350" height="250" fill="#F7F7F7"/>
<path d="M864.782 263.231C863.018 263.231 861.765 262.741 861.023 261.761C860.295 260.767 859.931 259.367 859.931 257.561V251.492C859.931 249.63 860.295 248.216 861.023 247.25C861.751 246.284 863.004 245.801 864.782 245.801C866.448 245.801 867.631 246.221 868.331 247.061C869.031 247.901 869.381 249.112 869.381 250.694V252.122H866.399V250.652C866.399 250.05 866.371 249.581 866.315 249.245C866.259 248.895 866.112 248.615 865.874 248.405C865.65 248.181 865.293 248.069 864.803 248.069C864.299 248.069 863.921 248.188 863.669 248.426C863.417 248.65 863.249 248.958 863.165 249.35C863.095 249.728 863.06 250.225 863.06 250.841V258.212C863.06 259.178 863.186 259.878 863.438 260.312C863.69 260.732 864.145 260.942 864.803 260.942C865.279 260.942 865.629 260.83 865.853 260.606C866.091 260.382 866.238 260.088 866.294 259.724C866.364 259.346 866.399 258.849 866.399 258.233V256.7H869.381V258.065C869.381 259.703 869.038 260.977 868.352 261.887C867.666 262.783 866.476 263.231 864.782 263.231ZM873.666 248.279H870.957V245.99H879.42V248.279H876.774V263H873.666V248.279ZM881.388 245.99H886.386C889.284 245.99 890.733 247.6 890.733 250.82C890.733 253.9 889.214 255.44 886.176 255.44H884.475V263H881.388V245.99ZM885.672 253.256C886.512 253.256 887.079 253.081 887.373 252.731C887.667 252.367 887.814 251.723 887.814 250.799C887.814 250.127 887.765 249.616 887.667 249.266C887.569 248.902 887.366 248.629 887.058 248.447C886.764 248.265 886.302 248.174 885.672 248.174H884.475V253.256H885.672ZM897.523 263.231C895.759 263.231 894.499 262.762 893.743 261.824C892.987 260.872 892.609 259.486 892.609 257.666V251.282C892.609 249.476 892.987 248.111 893.743 247.187C894.499 246.263 895.759 245.801 897.523 245.801C899.273 245.801 900.526 246.263 901.282 247.187C902.038 248.111 902.416 249.476 902.416 251.282V257.666C902.416 259.472 902.031 260.851 901.261 261.803C900.505 262.755 899.259 263.231 897.523 263.231ZM897.523 260.942C898.209 260.942 898.671 260.725 898.909 260.291C899.147 259.857 899.266 259.227 899.266 258.401V250.568C899.266 249.742 899.147 249.119 898.909 248.699C898.685 248.279 898.223 248.069 897.523 248.069C896.823 248.069 896.354 248.286 896.116 248.72C895.878 249.14 895.759 249.756 895.759 250.568V258.401C895.759 259.227 895.878 259.857 896.116 260.291C896.354 260.725 896.823 260.942 897.523 260.942ZM905.177 245.99H907.718V256.721L912.38 245.99H914.459V263H911.876V252.08L907.214 263H905.177V245.99ZM919.191 248.279H916.482V245.99H924.945V248.279H922.299V263H919.191V248.279ZM926.913 245.99H934.053V248.174H930V253.067H933.192V255.23H930V260.879H934.095V263H926.913V245.99ZM935.14 260.774C935.854 260.788 936.365 260.676 936.673 260.438C936.995 260.186 937.24 259.626 937.408 258.758C937.576 257.89 937.737 256.399 937.891 254.285L938.437 245.99H946.711V263H943.624V248.321H941.167L940.81 254.663C940.67 256.931 940.481 258.618 940.243 259.724C940.005 260.816 939.557 261.642 938.899 262.202C938.255 262.748 937.254 263.021 935.896 263.021C935.574 263.021 935.322 263.014 935.14 263V260.774ZM949.8 245.99H952.887V253.13H953.643C955.407 253.13 956.716 253.508 957.57 254.264C958.438 255.02 958.872 256.287 958.872 258.065C958.872 259.885 958.424 261.166 957.528 261.908C956.632 262.636 955.295 263 953.517 263H949.8V245.99ZM953.517 260.9C954.413 260.9 955.05 260.697 955.428 260.291C955.806 259.885 955.995 259.15 955.995 258.086C955.995 257.134 955.813 256.434 955.449 255.986C955.085 255.524 954.427 255.293 953.475 255.293H952.887V260.9H953.517ZM965.81 263.231C964.046 263.231 962.793 262.741 962.051 261.761C961.323 260.767 960.959 259.367 960.959 257.561V251.492C960.959 249.63 961.323 248.216 962.051 247.25C962.779 246.284 964.032 245.801 965.81 245.801C967.476 245.801 968.659 246.221 969.359 247.061C970.059 247.901 970.409 249.112 970.409 250.694V252.122H967.427V250.652C967.427 250.05 967.399 249.581 967.343 249.245C967.287 248.895 967.14 248.615 966.902 248.405C966.678 248.181 966.321 248.069 965.831 248.069C965.327 248.069 964.949 248.188 964.697 248.426C964.445 248.65 964.277 248.958 964.193 249.35C964.123 249.728 964.088 250.225 964.088 250.841V258.212C964.088 259.178 964.214 259.878 964.466 260.312C964.718 260.732 965.173 260.942 965.831 260.942C966.307 260.942 966.657 260.83 966.881 260.606C967.119 260.382 967.266 260.088 967.322 259.724C967.392 259.346 967.427 258.849 967.427 258.233V256.7H970.409V258.065C970.409 259.703 970.066 260.977 969.38 261.887C968.694 262.783 967.504 263.231 965.81 263.231ZM974.694 248.279H971.985V245.99H980.448V248.279H977.802V263H974.694V248.279ZM982.416 245.99H986.616C988.226 245.99 989.458 246.319 990.312 246.977C991.166 247.635 991.593 248.762 991.593 250.358C991.593 251.394 991.383 252.206 990.963 252.794C990.543 253.368 989.934 253.718 989.136 253.844C991.096 254.222 992.076 255.622 992.076 258.044C992.076 259.682 991.677 260.921 990.879 261.761C990.081 262.587 988.898 263 987.33 263H982.416V245.99ZM986.574 252.941C987.47 252.941 988.079 252.745 988.401 252.353C988.737 251.947 988.905 251.296 988.905 250.4C988.905 249.532 988.688 248.944 988.254 248.636C987.834 248.314 987.127 248.153 986.133 248.153H985.503V252.941H986.574ZM986.7 260.816C987.61 260.816 988.24 260.599 988.59 260.165C988.94 259.731 989.115 259.017 989.115 258.023C989.115 257.001 988.919 256.259 988.527 255.797C988.149 255.321 987.505 255.083 986.595 255.083H985.503V260.816H986.7ZM999.166 263.231C997.402 263.231 996.142 262.762 995.386 261.824C994.63 260.872 994.252 259.486 994.252 257.666V251.282C994.252 249.476 994.63 248.111 995.386 247.187C996.142 246.263 997.402 245.801 999.166 245.801C1000.92 245.801 1002.17 246.263 1002.93 247.187C1003.68 248.111 1004.06 249.476 1004.06 251.282V257.666C1004.06 259.472 1003.67 260.851 1002.9 261.803C1002.15 262.755 1000.9 263.231 999.166 263.231ZM999.166 260.942C999.852 260.942 1000.31 260.725 1000.55 260.291C1000.79 259.857 1000.91 259.227 1000.91 258.401V250.568C1000.91 249.742 1000.79 249.119 1000.55 248.699C1000.33 248.279 999.866 248.069 999.166 248.069C998.466 248.069 997.997 248.286 997.759 248.72C997.521 249.14 997.402 249.756 997.402 250.568V258.401C997.402 259.227 997.521 259.857 997.759 260.291C997.997 260.725 998.466 260.942 999.166 260.942ZM852.207 294.231C850.443 294.231 849.183 293.762 848.427 292.824C847.671 291.872 847.293 290.486 847.293 288.666V282.282C847.293 280.476 847.671 279.111 848.427 278.187C849.183 277.263 850.443 276.801 852.207 276.801C853.957 276.801 855.21 277.263 855.966 278.187C856.722 279.111 857.1 280.476 857.1 282.282V288.666C857.1 290.472 856.715 291.851 855.945 292.803C855.189 293.755 853.943 294.231 852.207 294.231ZM852.207 291.942C852.893 291.942 853.355 291.725 853.593 291.291C853.831 290.857 853.95 290.227 853.95 289.401V281.568C853.95 280.742 853.831 280.119 853.593 279.699C853.369 279.279 852.907 279.069 852.207 279.069C851.507 279.069 851.038 279.286 850.8 279.72C850.562 280.14 850.443 280.756 850.443 281.568V289.401C850.443 290.227 850.562 290.857 850.8 291.291C851.038 291.725 851.507 291.942 852.207 291.942ZM864.649 291.984C864.061 292.026 863.718 292.047 863.62 292.047C862.332 292.047 861.324 291.697 860.596 290.997C859.882 290.283 859.525 289.191 859.525 287.721V283.017C859.525 281.603 859.889 280.525 860.617 279.783C861.359 279.041 862.374 278.67 863.662 278.67C863.984 278.67 864.313 278.684 864.649 278.712V275.73H867.358V278.712C867.694 278.684 868.009 278.67 868.303 278.67C869.619 278.67 870.641 279.041 871.369 279.783C872.111 280.525 872.482 281.603 872.482 283.017V287.721C872.482 289.177 872.139 290.262 871.453 290.976C870.767 291.69 869.864 292.047 868.744 292.047C868.282 292.047 867.82 292.026 867.358 291.984V294.672H864.649V291.984ZM864.145 290.157C864.313 290.157 864.481 290.143 864.649 290.115V280.56C864.397 280.532 864.194 280.518 864.04 280.518C863.424 280.518 862.976 280.714 862.696 281.106C862.43 281.484 862.297 282.114 862.297 282.996V287.742C862.297 288.638 862.423 289.268 862.675 289.632C862.927 289.982 863.417 290.157 864.145 290.157ZM867.946 290.157C868.618 290.157 869.08 289.982 869.332 289.632C869.598 289.268 869.731 288.645 869.731 287.763V282.996C869.731 282.086 869.605 281.449 869.353 281.085C869.101 280.707 868.653 280.518 868.009 280.518C867.827 280.518 867.61 280.532 867.358 280.56V290.115C867.554 290.143 867.75 290.157 867.946 290.157ZM875.231 276.99H877.772V287.721L882.434 276.99H884.513V294H881.93V283.08L877.268 294H875.231V276.99ZM892.123 294.231C890.359 294.231 889.106 293.741 888.364 292.761C887.636 291.767 887.272 290.367 887.272 288.561V282.492C887.272 280.63 887.636 279.216 888.364 278.25C889.092 277.284 890.345 276.801 892.123 276.801C893.789 276.801 894.972 277.221 895.672 278.061C896.372 278.901 896.722 280.112 896.722 281.694V283.122H893.74V281.652C893.74 281.05 893.712 280.581 893.656 280.245C893.6 279.895 893.453 279.615 893.215 279.405C892.991 279.181 892.634 279.069 892.144 279.069C891.64 279.069 891.262 279.188 891.01 279.426C890.758 279.65 890.59 279.958 890.506 280.35C890.436 280.728 890.401 281.225 890.401 281.841V289.212C890.401 290.178 890.527 290.878 890.779 291.312C891.031 291.732 891.486 291.942 892.144 291.942C892.62 291.942 892.97 291.83 893.194 291.606C893.432 291.382 893.579 291.088 893.635 290.724C893.705 290.346 893.74 289.849 893.74 289.233V287.7H896.722V289.065C896.722 290.703 896.379 291.977 895.693 292.887C895.007 293.783 893.817 294.231 892.123 294.231ZM899.348 276.99H902.435V284.088H905.9V276.99H909.008V294H905.9V286.314H902.435V294H899.348V276.99ZM912.072 276.99H915.159V284.13H915.915C917.693 284.13 919.009 284.508 919.863 285.264C920.717 286.02 921.144 287.287 921.144 289.065C921.144 290.885 920.696 292.166 919.8 292.908C918.904 293.636 917.567 294 915.789 294H912.072V276.99ZM922.74 276.99H925.827V294H922.74V276.99ZM915.81 291.9C916.692 291.9 917.322 291.697 917.7 291.291C918.078 290.885 918.267 290.15 918.267 289.086C918.267 288.134 918.085 287.434 917.721 286.986C917.357 286.524 916.706 286.293 915.768 286.293H915.159V291.9H915.81ZM931.209 284.97L927.891 276.99H930.789L932.994 282.282L934.926 276.99H937.593L934.338 285.558L937.845 294H934.968L932.553 288.267L930.453 294H927.786L931.209 284.97ZM949.336 294.252C946.368 294.252 944.884 292.628 944.884 289.38V288.792H947.782C947.782 289.072 947.789 289.282 947.803 289.422C947.817 290.262 947.929 290.871 948.139 291.249C948.363 291.627 948.769 291.816 949.357 291.816C949.959 291.816 950.365 291.606 950.575 291.186C950.785 290.752 950.89 290.073 950.89 289.149C950.89 288.225 950.715 287.525 950.365 287.049C950.029 286.573 949.413 286.307 948.517 286.251H947.719V284.193C948.069 284.193 948.321 284.186 948.475 284.172C949.385 284.13 950.015 283.892 950.365 283.458C950.715 283.01 950.89 282.324 950.89 281.4C950.89 280.658 950.757 280.091 950.491 279.699C950.239 279.307 949.819 279.111 949.231 279.111C948.657 279.111 948.237 279.314 947.971 279.72C947.705 280.112 947.558 280.672 947.53 281.4V282.135H944.632V281.337C944.632 279.895 945.031 278.775 945.829 277.977C946.641 277.179 947.761 276.78 949.189 276.78C950.631 276.78 951.751 277.179 952.549 277.977C953.361 278.761 953.767 279.867 953.767 281.295C953.767 282.275 953.557 283.101 953.137 283.773C952.731 284.445 952.192 284.872 951.52 285.054C953.018 285.6 953.767 286.951 953.767 289.107C953.767 290.731 953.41 291.998 952.696 292.908C951.996 293.804 950.876 294.252 949.336 294.252ZM955.319 291.795H955.928C956.446 291.515 956.887 291.074 957.251 290.472C957.615 289.856 957.93 288.911 958.196 287.637C958.462 286.363 958.658 284.648 958.784 282.492L959.162 276.99H966.68V291.795H968.465V297.381H966.302L966.113 294H957.734L957.524 297.381H955.319V291.795ZM963.74 291.795V279.216H961.598L961.409 282.975C961.311 285.089 961.136 286.727 960.884 287.889C960.646 289.051 960.373 289.877 960.065 290.367C959.757 290.857 959.344 291.333 958.826 291.795H963.74ZM973.129 276.99H976.447L979.849 294H976.972L976.3 290.073H973.339L972.646 294H969.727L973.129 276.99ZM975.964 288.099L974.809 280.959L973.654 288.099H975.964ZM982.022 276.99H985.109V284.088H988.574V276.99H991.682V294H988.574V286.314H985.109V294H982.022V276.99ZM994.747 276.99H997.288V287.721L1001.95 276.99H1004.03V294H1001.45V283.08L996.784 294H994.747V276.99ZM1007.1 276.99H1009.64V287.721L1014.31 276.99H1016.38V294H1013.8V283.08L1009.14 294H1007.1V276.99ZM1011.97 275.646C1010.99 275.646 1010.25 275.373 1009.73 274.827C1009.21 274.281 1008.95 273.532 1008.95 272.58H1010.57C1010.58 273.112 1010.69 273.504 1010.9 273.756C1011.13 274.008 1011.48 274.134 1011.97 274.134C1012.48 274.134 1012.84 274.008 1013.05 273.756C1013.27 273.49 1013.38 273.098 1013.38 272.58H1015.02C1015.02 273.532 1014.76 274.281 1014.24 274.827C1013.72 275.373 1012.97 275.646 1011.97 275.646Z" fill="black"/>
<path d="M927.875 203H924.125C923.469 203 923 203.562 923 204.125V207.875C923 208.531 923.469 209 924.125 209H927.875C928.438 209 929 208.531 929 207.875V204.125C929 203.562 928.438 203 927.875 203ZM927.875 185H924.125C923.469 185 923 185.562 923 186.125V189.875C923 190.531 923.469 191 924.125 191H927.875C928.438 191 929 190.531 929 189.875V186.125C929 185.562 928.438 185 927.875 185ZM918.875 185H915.125C914.469 185 914 185.562 914 186.125V189.875C914 190.531 914.469 191 915.125 191H918.875C919.438 191 920 190.531 920 189.875V186.125C920 185.562 919.438 185 918.875 185ZM918.875 203H915.125C914.469 203 914 203.562 914 204.125V207.875C914 208.531 914.469 209 915.125 209H918.875C919.438 209 920 208.531 920 207.875V204.125C920 203.562 919.438 203 918.875 203ZM918.875 194H915.125C914.469 194 914 194.562 914 195.125V198.875C914 199.531 914.469 200 915.125 200H918.875C919.438 200 920 199.531 920 198.875V195.125C920 194.562 919.438 194 918.875 194ZM927.875 194H924.125C923.469 194 923 194.562 923 195.125V198.875C923 199.531 923.469 200 924.125 200H927.875C928.438 200 929 199.531 929 198.875V195.125C929 194.562 928.438 194 927.875 194ZM954.875 203H951.125C950.469 203 950 203.562 950 204.125V207.875C950 208.531 950.469 209 951.125 209H954.875C955.438 209 956 208.531 956 207.875V204.125C956 203.562 955.438 203 954.875 203ZM954.875 194H951.125C950.469 194 950 194.562 950 195.125V198.875C950 199.531 950.469 200 951.125 200H954.875C955.438 200 956 199.531 956 198.875V195.125C956 194.562 955.438 194 954.875 194ZM962.75 185H953V169.25C953 168.031 951.969 167 950.75 167H931.25C929.938 167 929 168.031 929 169.25V176H926V168.5C926 167.75 925.25 167 924.5 167H923C922.156 167 921.5 167.75 921.5 168.5V176H915.5V168.5C915.5 167.75 914.75 167 914 167H912.5C911.656 167 911 167.75 911 168.5V176H907.25C905.938 176 905 177.031 905 178.25V213.5C905 214.344 905.656 215 906.5 215H908C908.75 215 909.5 214.344 909.5 213.5V180.5H933.5V171.5H948.5V189.5H960.5V213.5C960.5 214.344 961.156 215 962 215H963.5C964.25 215 965 214.344 965 213.5V187.25C965 186.031 963.969 185 962.75 185ZM942.875 176H939.125C938.469 176 938 176.562 938 177.125V180.875C938 181.531 938.469 182 939.125 182H942.875C943.438 182 944 181.531 944 180.875V177.125C944 176.562 943.438 176 942.875 176ZM942.875 194H939.125C938.469 194 938 194.562 938 195.125V198.875C938 199.531 938.469 200 939.125 200H942.875C943.438 200 944 199.531 944 198.875V195.125C944 194.562 943.438 194 942.875 194ZM942.875 185H939.125C938.469 185 938 185.562 938 186.125V189.875C938 190.531 938.469 191 939.125 191H942.875C943.438 191 944 190.531 944 189.875V186.125C944 185.562 943.438 185 942.875 185Z" fill="#F7654A"/>
</svg>
